<svg xmlns="http://www.w3.org/2000/svg" viewBox="0 0 466.51 56.89"><defs><style>.cls-1{fill:#fff;}</style></defs><title>Asset 14</title><g id="Layer_2" data-name="Layer 2"><g id="Layer_1-2" data-name="Layer 1"><path class="cls-1" d="M0,12.37H9.82L15.31,33.1l6.44-20.85H30.1l6.51,20.92,5.61-20.8h9.63L41.2,46.82H32.46l-6.56-21-6.7,21H10.52Z"/><path class="cls-1" d="M54.47,29.66v-.13c0-9.76,7-17.79,16.9-17.79C82.79,11.74,88,20.6,88,30.3c0,.76-.06,1.65-.13,2.55H64.1c1,4.4,4,6.69,8.36,6.69,3.25,0,5.61-1,8.29-3.5L86.3,41a17.11,17.11,0,0,1-14,6.38C62.06,47.33,54.47,40.12,54.47,29.66Zm24.11-2.87c-.57-4.34-3.12-7.27-7.21-7.27S64.74,22.39,64,26.79Z"/><path class="cls-1" d="M92.87,18.43c4.4-.44,6.57-2.68,6.25-6.31h-4V1.91H105.5v8.61c0,8.42-4.21,11.8-11.8,11.93Z"/><path class="cls-1" d="M110.41,12.37h10.27l7.65,22.9,7.72-22.9h10.08L132.67,46.82h-8.8Z"/><path class="cls-1" d="M148.17,29.66v-.13c0-9.76,7-17.79,16.9-17.79,11.42,0,16.65,8.86,16.65,18.56,0,.76-.06,1.65-.13,2.55H157.8c1,4.4,4,6.69,8.36,6.69,3.25,0,5.61-1,8.29-3.5L180,41a17.11,17.11,0,0,1-14,6.38C155.76,47.33,148.17,40.12,148.17,29.66Zm24.11-2.87c-.57-4.34-3.13-7.27-7.21-7.27s-6.63,2.87-7.4,7.27Z"/><path class="cls-1" d="M208.25,53.32l3.32-7.27a22.31,22.31,0,0,0,11.55,3.13c6.63,0,9.75-3.19,9.75-9.32V38.21c-2.87,3.44-6,5.54-11.16,5.54-8,0-15.18-5.8-15.18-15.94v-.13c0-10.2,7.34-15.94,15.18-15.94,5.3,0,8.42,2.23,11,5.1V12.37h9.69V38.84c0,6.13-1.47,10.59-4.34,13.46-3.18,3.19-8.1,4.59-14.73,4.59A32.41,32.41,0,0,1,208.25,53.32Zm24.62-25.51v-.13c0-4.66-3.63-7.91-8.35-7.91s-8.29,3.25-8.29,7.91v.13c0,4.72,3.57,7.91,8.29,7.91S232.87,32.46,232.87,27.81Z"/><path class="cls-1" d="M249.46,29.66v-.13c0-9.82,7.91-17.79,18.56-17.79s18.43,7.84,18.43,17.66v.13c0,9.82-7.91,17.8-18.56,17.8S249.46,39.48,249.46,29.66Zm27.42,0v-.13c0-5-3.63-9.44-9-9.44-5.55,0-8.86,4.27-8.86,9.31v.13c0,5,3.63,9.44,9,9.44C273.57,39,276.88,34.7,276.88,29.66Z"/><path class="cls-1" d="M295.06,36.87V20.67H291v-8.3h4.08V3.64h9.7v8.73h8v8.3h-8v14.6c0,2.23,1,3.32,3.12,3.32a10,10,0,0,0,4.79-1.21v7.78a14.31,14.31,0,0,1-7.66,2C299.08,47.13,295.06,44.77,295.06,36.87Z"/><path class="cls-1" d="M340.67,36.87V20.67h-4.08v-8.3h4.08V3.64h9.69v8.73h8v8.3h-8v14.6c0,2.23,1,3.32,3.13,3.32a9.91,9.91,0,0,0,4.78-1.21v7.78a14.3,14.3,0,0,1-7.65,2C344.69,47.13,340.67,44.77,340.67,36.87Z"/><path class="cls-1" d="M365.54,0h9.7V17.22c2.23-2.87,5.1-5.48,10-5.48,7.34,0,11.61,4.84,11.61,12.69V46.56h-9.69V27.49c0-4.59-2.17-6.95-5.87-6.95s-6.06,2.36-6.06,7V46.56h-9.7Z"/><path class="cls-1" d="M405.47,0h10.21V8.61H405.47Zm.26,12.37h9.69V46.56h-9.69Z"/><path class="cls-1" d="M421.86,42,426,35.65c3.7,2.68,7.59,4.09,10.78,4.09,2.81,0,4.08-1,4.08-2.56v-.12c0-2.11-3.31-2.81-7.08-4-4.78-1.4-10.2-3.63-10.2-10.27v-.12c0-7,5.61-10.85,12.5-10.85a23.59,23.59,0,0,1,12.75,4l-3.69,6.69c-3.38-2-6.77-3.18-9.25-3.18s-3.58,1-3.58,2.36v.12c0,1.92,3.26,2.81,7,4.09,4.78,1.59,10.33,3.89,10.33,10.14v.12c0,7.59-5.68,11-13.08,11A24,24,0,0,1,421.86,42Z"/><path class="cls-1" d="M456.18,36.36h10.33v10.2H456.18Z"/></g></g></svg>