<svg xmlns="http://www.w3.org/2000/svg" viewBox="0 0 88 76.86"><defs><style>.cls-1{fill:#f2fafa;}.cls-2{fill:none;stroke:#1c184e;stroke-linecap:round;stroke-linejoin:round;}.cls-3{fill:#e9f6f6;}.cls-4{fill:#fff;}</style></defs><title>Resurs 19</title><g id="Lager_2" data-name="Lager 2"><g id="Layer_1" data-name="Layer 1"><path class="cls-1" d="M84.5,40A40,40,0,1,0,8.06,56.5H80.94A39.88,39.88,0,0,0,84.5,40"/><line class="cls-2" x1="5" y1="56.5" x2="83" y2="56.5"/><line class="cls-2" x1="0.5" y1="56.5" x2="3" y2="56.5"/><line class="cls-2" x1="85" y1="56.5" x2="87.5" y2="56.5"/><line class="cls-2" x1="17.47" y1="48.25" x2="17.47" y2="47.1"/><path class="cls-3" d="M22.65,50.55A5.86,5.86,0,0,1,17.47,54a5.85,5.85,0,0,1-5.17-3.45s2.63-2.3,5.17-2.3,5.18,2.3,5.18,2.3"/><path class="cls-2" d="M22.65,50.55A5.86,5.86,0,0,1,17.47,54a5.85,5.85,0,0,1-5.17-3.45s2.63-2.3,5.17-2.3S22.65,50.55,22.65,50.55Z"/><line class="cls-2" x1="22.65" y1="50.55" x2="12.3" y2="50.55"/><line class="cls-2" x1="14.02" y1="56.3" x2="15.22" y2="53.52"/><line class="cls-2" x1="20.92" y1="56.3" x2="19.73" y2="53.52"/><path class="cls-2" d="M15.17,45.38a1.72,1.72,0,0,0-1.72-1.73,1.73,1.73,0,1,1,0-3.45"/><path class="cls-2" d="M20.92,46a1.15,1.15,0,1,1,0-2.3,1.73,1.73,0,1,0,0-3.45"/><path class="cls-3" d="M64.1,45a1.73,1.73,0,0,0,3.36.79c.3-1.26-1.62-1.47-1.57-3.33A3.63,3.63,0,0,0,64.1,45"/><path class="cls-2" d="M64.1,45a1.73,1.73,0,0,0,3.36.79c.3-1.26-1.62-1.47-1.57-3.33A3.63,3.63,0,0,0,64.1,45Z"/><path class="cls-4" d="M67.07,49.4h-2.6a1,1,0,0,0-1,1v5.9h4.6V50.4a1,1,0,0,0-1-1"/><path class="cls-2" d="M67.07,49.4h-2.6a1,1,0,0,0-1,1v5.9h4.6V50.4A1,1,0,0,0,67.07,49.4Z"/><path class="cls-4" d="M69.37,51.7h-2.6a1,1,0,0,0-1,1v3.6h4.6V52.7a1,1,0,0,0-1-1"/><path class="cls-2" d="M69.37,51.7h-2.6a1,1,0,0,0-1,1v3.6h4.6V52.7A1,1,0,0,0,69.37,51.7Z"/><path class="cls-4" d="M76.27,48.25h-2.6a1,1,0,0,0-1,1v7h4.6v-7a1,1,0,0,0-1-1"/><path class="cls-2" d="M76.27,48.25h-2.6a1,1,0,0,0-1,1v7h4.6v-7A1,1,0,0,0,76.27,48.25Z"/><path class="cls-3" d="M69.74,47.3a1.73,1.73,0,0,1-3.36.8c-.3-1.26,1.62-1.47,1.57-3.33a3.64,3.64,0,0,1,1.79,2.53"/><path class="cls-2" d="M69.74,47.3a1.73,1.73,0,0,1-3.36.8c-.3-1.26,1.62-1.47,1.57-3.33A3.64,3.64,0,0,1,69.74,47.3Z"/><path class="cls-3" d="M76.64,43.83a1.73,1.73,0,0,1-3.36.79c-.3-1.26,1.62-1.47,1.57-3.33a3.63,3.63,0,0,1,1.79,2.54"/><path class="cls-2" d="M76.64,43.83a1.73,1.73,0,0,1-3.36.79c-.3-1.26,1.62-1.47,1.57-3.33A3.63,3.63,0,0,1,76.64,43.83Z"/><path class="cls-3" d="M52.43,62.07V41.47a13.49,13.49,0,0,0-17.45,0v20.6Z"/><path class="cls-4" d="M77.74,74.12A1.31,1.31,0,0,1,78,75.55a1.33,1.33,0,0,1-1.22.81H12.21a1.33,1.33,0,0,1-1-2.24l11.36-11.9a1.32,1.32,0,0,1,.95-.41H65.42a1.34,1.34,0,0,1,1,.41Z"/><path class="cls-2" d="M77.74,74.12A1.31,1.31,0,0,1,78,75.55a1.33,1.33,0,0,1-1.22.81H12.21a1.33,1.33,0,0,1-1-2.24l11.36-11.9a1.32,1.32,0,0,1,.95-.41H65.42a1.34,1.34,0,0,1,1,.41Z"/><path class="cls-1" d="M61.69,72.34c0,1.1-7.7,2-17.19,2s-17.19-.88-17.19-2,7.69-2,17.19-2,17.19.89,17.19,2"/><path class="cls-4" d="M53.21,23.72a9.53,9.53,0,0,1-19.05,0c0-5.86,3.34-10.31,6.35-10.31,2.42,3.83,12.7-.77,12.7,10.31"/><path class="cls-2" d="M53.21,23.72a9.53,9.53,0,0,1-19.05,0c0-5.86,3.34-10.31,6.35-10.31C42.93,17.24,53.21,12.64,53.21,23.72Z"/><path class="cls-4" d="M51.63,26.1l-1.6.79-1.15-4A1.58,1.58,0,0,0,47,21.74a15.19,15.19,0,0,1-3.35.39,15,15,0,0,1-3.34-.39,1.58,1.58,0,0,0-1.85,1.12l-1.15,4-1.58-.79c-2.26,0-2.11,4,.4,4h0a7.89,7.89,0,0,0,15.07,0h0c2.51,0,2.67-4,.4-4"/><path class="cls-2" d="M51.63,26.1l-1.6.79-1.15-4A1.58,1.58,0,0,0,47,21.74a15.19,15.19,0,0,1-3.35.39,15,15,0,0,1-3.34-.39,1.58,1.58,0,0,0-1.85,1.12l-1.15,4-1.58-.79c-2.26,0-2.11,4,.4,4h0a7.89,7.89,0,0,0,15.07,0h0C53.74,30.07,53.9,26.1,51.63,26.1Z"/><path class="cls-3" d="M39.74,28.48a.79.79,0,0,1-.8.79.79.79,0,0,1,0-1.58.79.79,0,0,1,.8.79"/><path class="cls-3" d="M49.26,28.48a.8.8,0,1,1-.8-.79.79.79,0,0,1,.8.79"/><path class="cls-2" d="M41.72,31.05a3.55,3.55,0,0,0,4,0"/><path class="cls-2" d="M41.3,26.8a1,1,0,0,1-1.4,0"/><path class="cls-2" d="M47.45,26.8a1,1,0,0,1-1.4,0"/><path class="cls-4" d="M43.71,43a4.76,4.76,0,0,0,4.67-3.91,13.28,13.28,0,0,0-9.35,0A4.76,4.76,0,0,0,43.71,43"/><path class="cls-2" d="M43.71,43a4.76,4.76,0,0,0,4.67-3.91,13.28,13.28,0,0,0-9.35,0A4.76,4.76,0,0,0,43.71,43Z"/><path class="cls-2" d="M52.43,62.07V41.47a13.49,13.49,0,0,0-17.45,0v20.6Z"/><path class="cls-4" d="M42.91,59.69H37.36A2.38,2.38,0,0,1,35,57.31V41.48a13.47,13.47,0,0,0-4.76,10.28v5.55a7.14,7.14,0,0,0,7.14,7.14h5.55a2.38,2.38,0,0,0,0-4.76"/><path class="cls-2" d="M42.91,59.69H37.36A2.38,2.38,0,0,1,35,57.31V41.48a13.47,13.47,0,0,0-4.76,10.28v5.55a7.14,7.14,0,0,0,7.14,7.14h5.55a2.38,2.38,0,0,0,0-4.76Z"/><path class="cls-4" d="M52.43,41.48V57.31a2.37,2.37,0,0,1-2.38,2.38H44.5a2.38,2.38,0,0,0,0,4.76h5.55a7.15,7.15,0,0,0,7.15-7.14V51.76a13.48,13.48,0,0,0-4.77-10.28"/><path class="cls-2" d="M52.43,41.48V57.31a2.37,2.37,0,0,1-2.38,2.38H44.5a2.38,2.38,0,0,0,0,4.76h5.55a7.15,7.15,0,0,0,7.15-7.14V51.76A13.48,13.48,0,0,0,52.43,41.48Z"/><path class="cls-4" d="M32.93,63.76a4,4,0,0,0-.67,7.91l12.53.42,1.66-6.63Z"/><path class="cls-2" d="M32.93,63.76a4,4,0,0,0-.67,7.91l12.53.42,1.66-6.63Z"/><path class="cls-4" d="M40.18,65.76l2.37-.3,1.65,6.63-3.35.11a3.23,3.23,0,0,1-3.49-3h0a3.23,3.23,0,0,1,2.82-3.49"/><path class="cls-2" d="M40.18,65.76l2.37-.3,1.65,6.63-3.35.11a3.23,3.23,0,0,1-3.49-3h0A3.23,3.23,0,0,1,40.18,65.76Z"/><path class="cls-4" d="M56.07,63.76a4,4,0,0,1,.66,7.91l-12.53.42-1.65-6.63Z"/><path class="cls-2" d="M56.07,63.76a4,4,0,0,1,.66,7.91l-12.53.42-1.65-6.63Z"/></g></g></svg>