<svg xmlns="http://www.w3.org/2000/svg" viewBox="0 0 162 162"><defs><style>.cls-1{fill:#f2fafa;}.cls-2{fill:#e9f6f6;}.cls-3{fill:#fff;}.cls-4{fill:none;stroke:#1c184e;stroke-linecap:round;stroke-linejoin:round;}.cls-5{fill:#1c184e;}</style></defs><title>Resurs 29</title><g id="Lager_2" data-name="Lager 2"><g id="Layer_1" data-name="Layer 1"><path class="cls-1" d="M162,81A81,81,0,1,1,81,0a81,81,0,0,1,81,81"/><path class="cls-2" d="M106.7,50.69l0-.58L79,45.58l-.13.46c-15.65-2.16-27.08-2.89-27.29-1.59s10.54,4.18,25.71,7.08l-.45,1.58a6.31,6.31,0,0,0,5.05,8L99,63.9A6.32,6.32,0,0,0,106.37,58l.08-1.74c13.72,1.77,23.4,2.3,23.6,1.09s-9.43-3.87-23.35-6.61"/><path class="cls-2" d="M42.47,84.48,8.17,69.32a1.5,1.5,0,0,1-.77-2l20-45.27a1.5,1.5,0,0,1,2-.77l34.3,15.16a3,3,0,0,1,1.53,3.95L46.43,82.94a3,3,0,0,1-4,1.54"/><path class="cls-2" d="M99.54,90.22l-34.4-2.57A4.5,4.5,0,0,1,61,82.82l.78-10.47,43.38,3.24-.78,10.48a4.52,4.52,0,0,1-4.83,4.15"/><path class="cls-2" d="M110.44,146.26A3,3,0,0,1,107.2,149L19,141.82a3,3,0,0,1-2.75-3.24L20,92.24a3,3,0,0,1,3.23-2.75l88.21,7.19a3,3,0,0,1,2.75,3.24Z"/><path class="cls-2" d="M127,101.12l-2.18,6.07A5.64,5.64,0,1,0,135.48,111l2.19-6.07A5.65,5.65,0,1,0,127,101.12"/><path class="cls-2" d="M112.3,97.55a3,3,0,0,0-2.74-3.24L22.84,87.24A3,3,0,0,0,19.61,90L16,134.84a3,3,0,0,0,2.75,3.23l86.71,7.07a3,3,0,0,0,3.24-2.74ZM53.05,122.81l-6-.48a1.5,1.5,0,0,1,.25-3l6,.48a1.5,1.5,0,1,1-.25,3m1-12-6-.48a1.5,1.5,0,1,1,.24-3l6,.48a1.5,1.5,0,1,1-.24,3m8.39,26.27a3,3,0,1,1,3.24-2.74,3,3,0,0,1-3.24,2.74"/><path class="cls-3" d="M105.78,140.66a1.5,1.5,0,0,1-1.62,1.37l-29.9-2.44A1.49,1.49,0,0,1,72.89,138L76.3,96.11a1.5,1.5,0,0,1,1.62-1.37l29.9,2.44a1.5,1.5,0,0,1,1.37,1.62Z"/><path class="cls-4" d="M105.78,140.66a1.5,1.5,0,0,1-1.62,1.37l-29.9-2.44A1.49,1.49,0,0,1,72.89,138L76.3,96.11a1.5,1.5,0,0,1,1.62-1.37l29.9,2.44a1.5,1.5,0,0,1,1.37,1.62Z"/><path class="cls-2" d="M79.84,126.5l-1.49-.12A1.51,1.51,0,0,1,77,124.76l1.22-15a1.5,1.5,0,0,1,1.62-1.37l1.49.12a1.5,1.5,0,0,1,1.38,1.62l-1.22,14.95a1.49,1.49,0,0,1-1.62,1.37"/><path class="cls-4" d="M79.84,126.5l-1.49-.12A1.51,1.51,0,0,1,77,124.76l1.22-15a1.5,1.5,0,0,1,1.62-1.37l1.49.12a1.5,1.5,0,0,1,1.38,1.62l-1.22,14.95A1.49,1.49,0,0,1,79.84,126.5Z"/><line class="cls-4" x1="60.22" y1="90.29" x2="56.07" y2="141.12"/><line class="cls-4" x1="72.18" y1="91.26" x2="68.04" y2="142.09"/><line class="cls-4" x1="73.59" y1="110.94" x2="79.57" y2="111.43"/><line class="cls-4" x1="72.61" y1="122.9" x2="78.59" y2="123.39"/><path class="cls-4" d="M112.3,97.55a3,3,0,0,0-2.74-3.24L22.84,87.24A3,3,0,0,0,19.61,90L16,134.84a3,3,0,0,0,2.75,3.23l86.71,7.07a3,3,0,0,0,3.24-2.74ZM53.05,122.81l-6-.48a1.5,1.5,0,0,1,.25-3l6,.48a1.5,1.5,0,1,1-.25,3Zm1-12-6-.48a1.5,1.5,0,1,1,.24-3l6,.48a1.5,1.5,0,1,1-.24,3Zm8.39,26.27a3,3,0,1,1,3.24-2.74A3,3,0,0,1,62.42,137.12Z"/><line class="cls-4" x1="86.52" y1="99.96" x2="104.46" y2="101.42"/><line class="cls-4" x1="86.16" y1="104.44" x2="104.1" y2="105.91"/><line class="cls-4" x1="85.79" y1="108.93" x2="103.73" y2="110.39"/><line class="cls-4" x1="85.42" y1="113.41" x2="103.36" y2="114.88"/><line class="cls-4" x1="85.06" y1="117.9" x2="103" y2="119.36"/><line class="cls-4" x1="84.69" y1="122.38" x2="102.63" y2="123.85"/><line class="cls-4" x1="84.33" y1="126.87" x2="102.27" y2="128.33"/><line class="cls-4" x1="83.96" y1="131.35" x2="101.9" y2="132.82"/><line class="cls-4" x1="83.6" y1="135.84" x2="101.54" y2="137.3"/><path class="cls-3" d="M45.1,79.61a3,3,0,0,1-4,1.51L8.28,66.41a1.5,1.5,0,0,1-.76-2L27.13,20.62a1.51,1.51,0,0,1,2-.76L62,34.57a3,3,0,0,1,1.52,4Z"/><path class="cls-2" d="M23.85,53.66l-5.48-2.45a1.5,1.5,0,1,1,1.23-2.74l5.47,2.45a1.5,1.5,0,1,1-1.22,2.74"/><path class="cls-4" d="M23.85,53.66l-5.48-2.45a1.5,1.5,0,1,1,1.23-2.74l5.47,2.45a1.5,1.5,0,1,1-1.22,2.74Z"/><path class="cls-2" d="M28.75,42.71l-5.48-2.46a1.5,1.5,0,1,1,1.23-2.73L30,40a1.5,1.5,0,1,1-1.22,2.74"/><path class="cls-4" d="M28.75,42.71l-5.48-2.46a1.5,1.5,0,1,1,1.23-2.73L30,40a1.5,1.5,0,1,1-1.22,2.74Z"/><path class="cls-4" d="M45.1,79.61a3,3,0,0,1-4,1.51L8.28,66.41a1.5,1.5,0,0,1-.76-2L27.13,20.62a1.51,1.51,0,0,1,2-.76L62,34.57a3,3,0,0,1,1.52,4Z"/><path class="cls-2" d="M29.75,66.16a1.5,1.5,0,0,1,2-.75l11,4.9a1.5,1.5,0,0,1,.75,2L42.22,75a1.5,1.5,0,0,1-2,.76l-11-4.91a1.5,1.5,0,0,1-.75-2Z"/><path class="cls-4" d="M29.75,66.16a1.5,1.5,0,0,1,2-.75l11,4.9a1.5,1.5,0,0,1,.75,2L42.22,75a1.5,1.5,0,0,1-2,.76l-11-4.91a1.5,1.5,0,0,1-.75-2Z"/><path class="cls-3" d="M38.39,126.31a1.5,1.5,0,0,0,2.12,0l1.07-1.06a1.5,1.5,0,0,0,0-2.12L28.92,110.35a1.49,1.49,0,0,0-2.12,0l-1.06,1a1.49,1.49,0,0,0,0,2.12Z"/><line class="cls-4" x1="37.37" y1="118.88" x2="34.17" y2="122.04"/><path class="cls-4" d="M41.59,123.14a3,3,0,0,0,0-4.24l-4.22-4.27"/><path class="cls-2" d="M23.09,110.85a2.25,2.25,0,0,0,3.2-3.17c-.88-.88-4.24-1.08-4.24-1.08s.16,3.37,1,4.25"/><path class="cls-4" d="M23.09,110.85a2.25,2.25,0,0,0,3.2-3.17c-.88-.88-4.24-1.08-4.24-1.08S22.21,110,23.09,110.85Z"/><path class="cls-4" d="M38.39,126.31a1.5,1.5,0,0,0,2.12,0l1.07-1.06a1.5,1.5,0,0,0,0-2.12L28.92,110.35a1.49,1.49,0,0,0-2.12,0l-1.06,1a1.49,1.49,0,0,0,0,2.12Z"/><path class="cls-3" d="M100.57,86.53l-35.9-2.68a3,3,0,0,1-2.77-3.21l1-13.47a1.5,1.5,0,0,1,1.61-1.38l38.89,2.91a1.48,1.48,0,0,1,1.38,1.6l-1,13.47a3,3,0,0,1-3.22,2.76"/><path class="cls-4" d="M100.57,86.53l-35.9-2.68a3,3,0,0,1-2.77-3.21l1-13.47a1.5,1.5,0,0,1,1.61-1.38l38.89,2.91a1.48,1.48,0,0,1,1.38,1.6l-1,13.47A3,3,0,0,1,100.57,86.53Z"/><line class="cls-4" x1="66.5" y1="79.48" x2="69.5" y2="79.7"/><line class="cls-4" x1="66.84" y1="74.99" x2="69.83" y2="75.21"/><line class="cls-4" x1="67.17" y1="70.5" x2="70.17" y2="70.72"/><line class="cls-4" x1="72.82" y1="75.43" x2="75.81" y2="75.66"/><line class="cls-4" x1="73.16" y1="70.95" x2="76.15" y2="71.17"/><line class="cls-4" x1="78.81" y1="75.88" x2="81.8" y2="76.11"/><line class="cls-4" x1="79.14" y1="71.39" x2="82.13" y2="71.62"/><line class="cls-4" x1="84.79" y1="76.33" x2="87.78" y2="76.55"/><line class="cls-4" x1="85.12" y1="71.84" x2="88.12" y2="72.07"/><line class="cls-4" x1="90.77" y1="76.78" x2="93.76" y2="77"/><line class="cls-4" x1="91.11" y1="72.29" x2="94.1" y2="72.51"/><line class="cls-4" x1="96.42" y1="81.71" x2="99.41" y2="81.94"/><line class="cls-4" x1="96.75" y1="77.22" x2="99.75" y2="77.45"/><line class="cls-4" x1="97.09" y1="72.74" x2="100.08" y2="72.96"/><line class="cls-4" x1="72.49" y1="79.92" x2="93.43" y2="81.49"/><path class="cls-3" d="M150.26,31,40.83,13.05a5.32,5.32,0,0,0-6,6.67l119,19.48A5.31,5.31,0,0,0,150.26,31"/><path class="cls-4" d="M150.26,31,40.83,13.05a5.32,5.32,0,0,0-6,6.67l119,19.48A5.31,5.31,0,0,0,150.26,31Z"/><path class="cls-3" d="M100.18,34.93,87,32.78a6,6,0,0,0-6.74,4.27L76.54,50.11a6,6,0,0,0,4.8,7.58l16.29,2.66a6,6,0,0,0,7-5.64l.62-13.58a6,6,0,0,0-5-6.2"/><path class="cls-4" d="M100.18,34.93,87,32.78a6,6,0,0,0-6.74,4.27L76.54,50.11a6,6,0,0,0,4.8,7.58l16.29,2.66a6,6,0,0,0,7-5.64l.62-13.58A6,6,0,0,0,100.18,34.93Z"/><path class="cls-2" d="M153.81,39.2A3,3,0,0,0,152,34.3L38.12,15.65a3,3,0,0,0-3.27,4.07l6.79,17.09a4.49,4.49,0,0,0,3.45,2.78l92.67,15.18a4.52,4.52,0,0,0,4.16-1.53Z"/><path class="cls-3" d="M45.09,39.59l24.13,3.95L95.06,25,38.12,15.65a3,3,0,0,0-3.27,4.07l6.79,17.09a4.49,4.49,0,0,0,3.45,2.78"/><path class="cls-4" d="M153.81,39.2A3,3,0,0,0,152,34.3L38.12,15.65a3,3,0,0,0-3.27,4.07l6.79,17.09a4.49,4.49,0,0,0,3.45,2.78l92.67,15.18a4.52,4.52,0,0,0,4.16-1.53Z"/><path class="cls-3" d="M40.64,34.3l1,2.51a4.49,4.49,0,0,0,3.45,2.78l92.67,15.18a4.52,4.52,0,0,0,4.16-1.53l1.75-2.06Z"/><path class="cls-4" d="M40.64,34.3l1,2.51a4.49,4.49,0,0,0,3.45,2.78l92.67,15.18a4.52,4.52,0,0,0,4.16-1.53l1.75-2.06Z"/><path class="cls-2" d="M119.16,54.23a1.49,1.49,0,0,0-.06,1.39,1.52,1.52,0,0,0,1.12.84L129.84,58a1.48,1.48,0,0,0,1.37-.49l2.34-2.66a1.49,1.49,0,0,0,.28-1.49,1.48,1.48,0,0,0-1.17-1l-10.36-1.7a1.51,1.51,0,0,0-1.55.73Z"/><path class="cls-4" d="M119.16,54.23a1.49,1.49,0,0,0-.06,1.39,1.52,1.52,0,0,0,1.12.84L129.84,58a1.48,1.48,0,0,0,1.37-.49l2.34-2.66a1.49,1.49,0,0,0,.28-1.49,1.48,1.48,0,0,0-1.17-1l-10.36-1.7a1.51,1.51,0,0,0-1.55.73Z"/><path class="cls-2" d="M137.23,73.66a1.49,1.49,0,0,0-.44-2.07l-10.08-6.52a1.5,1.5,0,0,0-2.07.44l-.41.64-7.41-.81a1.5,1.5,0,0,0-1.66,1.33l-1.3,11.93a1.5,1.5,0,0,0,1.33,1.65l8.87,1,4.58,3a1.5,1.5,0,0,0,2.07-.44Z"/><path class="cls-2" d="M114.85,76.44a1.5,1.5,0,0,0,1.33,1.65l10.44,1.14a1.49,1.49,0,0,0,1.65-1.33l1.14-10.43a1.51,1.51,0,0,0-1.33-1.66l-10.44-1.14a1.52,1.52,0,0,0-1.1.33,1.46,1.46,0,0,0-.55,1Z"/><path class="cls-4" d="M114.85,76.44a1.5,1.5,0,0,0,1.33,1.65l10.44,1.14a1.49,1.49,0,0,0,1.65-1.33l1.14-10.43a1.51,1.51,0,0,0-1.33-1.66l-10.44-1.14a1.52,1.52,0,0,0-1.1.33,1.46,1.46,0,0,0-.55,1Z"/><rect class="cls-2" x="120.6" y="65.77" width="13.5" height="13.5" rx="1.5" ry="1.5" transform="translate(-1.33 142.65) rotate(-58.25)"/><rect class="cls-4" x="120.6" y="65.77" width="13.5" height="13.5" rx="1.5" ry="1.5" transform="translate(-1.33 142.65) rotate(-58.25)"/><path class="cls-3" d="M126.56,99.83l-2,5.65a5.25,5.25,0,0,0,9.88,3.55l2-5.65a5.25,5.25,0,0,0-9.89-3.55"/><path class="cls-4" d="M126.56,99.83l-2,5.65a5.25,5.25,0,0,0,9.88,3.55l2-5.65a5.25,5.25,0,0,0-9.89-3.55Z"/><path class="cls-5" d="M131.76,100.15a.75.75,0,0,0-.26,1.45.8.8,0,0,0,.26.05.74.74,0,0,0,.7-.5.75.75,0,0,0-.45-1,.73.73,0,0,0-.25,0"/></g></g></svg>