<svg xmlns="http://www.w3.org/2000/svg" viewBox="0 0 88 70.47"><defs><style>.cls-1{fill:#f2fafa;}.cls-2,.cls-5{fill:none;stroke:#1c184e;}.cls-2{stroke-linecap:round;stroke-linejoin:round;}.cls-3{fill:#e9f6f6;}.cls-4{fill:#fff;}.cls-5{stroke-miterlimit:10;}</style></defs><title>Resurs 43</title><g id="Lager_2" data-name="Lager 2"><g id="Layer_1" data-name="Layer 1"><path class="cls-1" d="M84.5,40A40,40,0,1,0,8.06,56.5H80.94A39.85,39.85,0,0,0,84.5,40"/><line class="cls-2" x1="5" y1="56.5" x2="83" y2="56.5"/><line class="cls-2" x1="0.5" y1="56.5" x2="3" y2="56.5"/><line class="cls-2" x1="85" y1="56.5" x2="87.5" y2="56.5"/><path class="cls-3" d="M61.83,66.89c1.59-.37,2.5-.8,2.5-1.25,0-1.53-10.19-2.76-22.77-2.76s-22.77,1.23-22.77,2.76c0,1.35,8,2.48,18.65,2.71,0,0,0,0,0,.05,0,1.14,6.49,2.07,14.49,2.07S66.4,69.54,66.4,68.4c0-.6-1.76-1.13-4.57-1.51"/><path class="cls-2" d="M63,44.94c0-1.15.62-2.07,1.38-2.07s1.38.92,1.38,2.07c0,2.28-1.85,3.45-4.14,3.45"/><path class="cls-4" d="M61.57,48.39c0-8.17-5.6-11.34-15.18-12.17l-.13.48a2.76,2.76,0,0,1-2.66,2h-4a2.75,2.75,0,0,1-2.67-2.07L36.73,36a43.92,43.92,0,0,0-7.66.9l-5-4.17a.69.69,0,0,0-1.13.53v6.18a9.48,9.48,0,0,0-3.87,6.15H17.41A1.38,1.38,0,0,0,16,47v4.14a1.38,1.38,0,0,0,1.38,1.38h2c1.11,3.41,3.75,5.52,7.65,6.76v4.28A1.38,1.38,0,0,0,28.45,65h4.14A1.38,1.38,0,0,0,34,63.57v-3h0q2.88.25,6.22.25a67.88,67.88,0,0,0,7.61-.39h0v3.14A1.38,1.38,0,0,0,49.15,65h4.14a1.38,1.38,0,0,0,1.38-1.38V58.81c4.44-1.8,6.9-5,6.9-10.42"/><path class="cls-2" d="M61.57,48.39c0-8.17-5.6-11.34-15.18-12.17l-.13.48a2.76,2.76,0,0,1-2.66,2h-4a2.75,2.75,0,0,1-2.67-2.07L36.73,36a43.92,43.92,0,0,0-7.66.9l-5-4.17a.69.69,0,0,0-1.13.53v6.18a9.48,9.48,0,0,0-3.87,6.15H17.41A1.38,1.38,0,0,0,16,47v4.14a1.38,1.38,0,0,0,1.38,1.38h2c1.11,3.41,3.75,5.52,7.65,6.76v4.28A1.38,1.38,0,0,0,28.45,65h4.14A1.38,1.38,0,0,0,34,63.57v-3h0q2.88.25,6.22.25a67.88,67.88,0,0,0,7.61-.39h0v3.14A1.38,1.38,0,0,0,49.15,65h4.14a1.38,1.38,0,0,0,1.38-1.38V58.81C59.11,57,61.57,53.8,61.57,48.39Z"/><path class="cls-2" d="M28.45,52.53a2.77,2.77,0,0,1-2.76,2.76"/><path class="cls-2" d="M24.31,45.63a2.76,2.76,0,1,1,5.52,0"/><path class="cls-2" d="M68.47,45.63c0,1.52-.93,2.76-2.07,2.76"/><path class="cls-4" d="M70,34.79a2.29,2.29,0,0,1,1.73-1.72l3.46-.8a.29.29,0,0,0,.22-.28.28.28,0,0,0-.22-.28l-3.46-.8A2.32,2.32,0,0,1,70,29.19l-.79-3.46a.3.3,0,0,0-.28-.23.29.29,0,0,0-.28.23l-.8,3.46a2.32,2.32,0,0,1-1.73,1.72l-3.45.8a.29.29,0,0,0-.23.28.3.3,0,0,0,.23.28l3.45.8a2.29,2.29,0,0,1,1.73,1.72l.8,3.46a.28.28,0,0,0,.28.22.29.29,0,0,0,.28-.22Z"/><path class="cls-2" d="M70,34.79a2.29,2.29,0,0,1,1.73-1.72l3.46-.8a.29.29,0,0,0,.22-.28.28.28,0,0,0-.22-.28l-3.46-.8A2.32,2.32,0,0,1,70,29.19l-.79-3.46a.3.3,0,0,0-.28-.23.29.29,0,0,0-.28.23l-.8,3.46a2.32,2.32,0,0,1-1.73,1.72l-3.45.8a.29.29,0,0,0-.23.28.3.3,0,0,0,.23.28l3.45.8a2.29,2.29,0,0,1,1.73,1.72l.8,3.46a.28.28,0,0,0,.28.22.29.29,0,0,0,.28-.22Z"/><path class="cls-4" d="M65.71,61.5a2.07,2.07,0,0,0-2.07-2.07h-6.9a2.07,2.07,0,1,0,0,4.14h6.9a2.07,2.07,0,0,0,2.07-2.07"/><path class="cls-2" d="M65.71,61.5a2.07,2.07,0,0,0-2.07-2.07h-6.9a2.07,2.07,0,1,0,0,4.14h6.9A2.07,2.07,0,0,0,65.71,61.5Z"/><path class="cls-4" d="M64.33,65.64a2.07,2.07,0,0,0-2.07-2.07h-6.9a2.07,2.07,0,0,0,0,4.14h6.9a2.07,2.07,0,0,0,2.07-2.07"/><path class="cls-2" d="M64.33,65.64a2.07,2.07,0,0,0-2.07-2.07h-6.9a2.07,2.07,0,0,0,0,4.14h6.9A2.07,2.07,0,0,0,64.33,65.64Z"/><path class="cls-4" d="M50.53,65.64a2.07,2.07,0,0,0-2.07-2.07h-6.9a2.07,2.07,0,0,0,0,4.14h6.9a2.07,2.07,0,0,0,2.07-2.07"/><path class="cls-2" d="M50.53,65.64a2.07,2.07,0,0,0-2.07-2.07h-6.9a2.07,2.07,0,0,0,0,4.14h6.9A2.07,2.07,0,0,0,50.53,65.64Z"/><path class="cls-4" d="M53.29,61.5a2.07,2.07,0,0,0-2.07-2.07h-6.9a2.07,2.07,0,1,0,0,4.14h6.9a2.07,2.07,0,0,0,2.07-2.07"/><path class="cls-2" d="M53.29,61.5a2.07,2.07,0,0,0-2.07-2.07h-6.9a2.07,2.07,0,1,0,0,4.14h6.9A2.07,2.07,0,0,0,53.29,61.5Z"/><path class="cls-4" d="M50.53,57.36a2.07,2.07,0,0,0-2.07-2.07h-6.9a2.07,2.07,0,0,0,0,4.14h6.9a2.07,2.07,0,0,0,2.07-2.07"/><path class="cls-2" d="M50.53,57.36a2.07,2.07,0,0,0-2.07-2.07h-6.9a2.07,2.07,0,0,0,0,4.14h6.9A2.07,2.07,0,0,0,50.53,57.36Z"/><path class="cls-1" d="M49.84,20.79a7.59,7.59,0,1,1-7.59-7.59,7.59,7.59,0,0,1,7.59,7.59"/><path class="cls-4" d="M42.25,13.2a7.59,7.59,0,0,0-5.37,13L47.62,15.42a7.59,7.59,0,0,0-5.37-2.22"/><path class="cls-5" d="M49.84,20.79a7.59,7.59,0,1,1-7.59-7.59A7.59,7.59,0,0,1,49.84,20.79Z"/><line class="cls-2" x1="42.25" y1="24.58" x2="42.25" y2="25.53"/><line class="cls-2" x1="42.25" y1="16.04" x2="42.25" y2="16.99"/><path class="cls-2" d="M40.35,22.69a1.9,1.9,0,1,0,1.9-1.9,1.9,1.9,0,1,1,1.9-1.9"/><path class="cls-4" d="M54.3,9.89l3.07-1a.29.29,0,0,0,0-.54l-2.52-.84a1.2,1.2,0,0,1-.73-.73l-.84-2.52a.29.29,0,0,0-.54,0L51.9,6.76a1.2,1.2,0,0,1-.73.73l-2.52.84a.29.29,0,0,0,0,.54l2.52.84a1.2,1.2,0,0,1,.73.73L52.74,13a.29.29,0,0,0,.54,0Z"/><path class="cls-2" d="M54.3,9.89l3.07-1a.29.29,0,0,0,0-.54l-2.52-.84a1.2,1.2,0,0,1-.73-.73l-.84-2.52a.29.29,0,0,0-.54,0L51.9,6.76a1.2,1.2,0,0,1-.73.73l-2.52.84a.29.29,0,0,0,0,.54l2.52.84a1.2,1.2,0,0,1,.73.73L52.74,13a.29.29,0,0,0,.54,0Z"/><path class="cls-4" d="M25.55,24l3.06-1a.27.27,0,0,0,.2-.27.29.29,0,0,0-.2-.27l-2.51-.84a1.11,1.11,0,0,1-.73-.73l-.84-2.51a.29.29,0,0,0-.27-.2.27.27,0,0,0-.27.2l-.84,2.51a1.15,1.15,0,0,1-.73.73l-2.52.84a.29.29,0,0,0-.2.27.27.27,0,0,0,.2.27l2.52.84a1.2,1.2,0,0,1,.73.73L24,27.06a.27.27,0,0,0,.27.2.29.29,0,0,0,.27-.2Z"/><path class="cls-2" d="M25.55,24l3.06-1a.27.27,0,0,0,.2-.27.29.29,0,0,0-.2-.27l-2.51-.84a1.11,1.11,0,0,1-.73-.73l-.84-2.51a.29.29,0,0,0-.27-.2.27.27,0,0,0-.27.2l-.84,2.51a1.15,1.15,0,0,1-.73.73l-2.52.84a.29.29,0,0,0-.2.27.27.27,0,0,0,.2.27l2.52.84a1.2,1.2,0,0,1,.73.73L24,27.06a.27.27,0,0,0,.27.2.29.29,0,0,0,.27-.2Z"/></g></g></svg>