<svg xmlns="http://www.w3.org/2000/svg" viewBox="0 0 80 80"><defs><style>.cls-1{fill:#f2fafa;}.cls-2{fill:#e9f6f6;}.cls-3{fill:#fff;}.cls-4{fill:none;stroke:#1c184e;stroke-linecap:round;stroke-linejoin:round;}</style></defs><title>Resurs 12</title><g id="Lager_2" data-name="Lager 2"><g id="Layer_1" data-name="Layer 1"><path class="cls-1" d="M80,40A40,40,0,1,1,40,0,40,40,0,0,1,80,40"/><path class="cls-2" d="M57.5,72.45c0,.83-7.61,1.5-17,1.5s-17-.67-17-1.5,7.61-1.5,17-1.5,17,.67,17,1.5"/><path class="cls-3" d="M62.9,40.14,60.15,17.66a1,1,0,0,0-1.31-.83,17.85,17.85,0,0,1-12.78-.56,18.59,18.59,0,0,0-11.43-.94L24.16,17.79,27,42.33l10.63-2.5a18.59,18.59,0,0,1,11.43.94,18.68,18.68,0,0,0,13,.47l.11,0a1,1,0,0,0,.68-1.07"/><path class="cls-4" d="M62.9,40.14,60.15,17.66a1,1,0,0,0-1.31-.83,17.85,17.85,0,0,1-12.78-.56,18.59,18.59,0,0,0-11.43-.94L24.16,17.79,27,42.33l10.63-2.5a18.59,18.59,0,0,1,11.43.94,18.68,18.68,0,0,0,13,.47l.11,0A1,1,0,0,0,62.9,40.14Z"/><path class="cls-2" d="M28.33,69h0a1.75,1.75,0,0,1-1.94-1.53L20.51,16.75A1.75,1.75,0,0,1,24,16.34L29.87,67A1.75,1.75,0,0,1,28.33,69"/><path class="cls-4" d="M28.33,69h0a1.75,1.75,0,0,1-1.94-1.53L20.51,16.75A1.75,1.75,0,0,1,24,16.34L29.87,67A1.75,1.75,0,0,1,28.33,69Z"/><path class="cls-2" d="M34.58,27.73l3.07-3.07A1.18,1.18,0,0,0,36,23l-3.64,3.63a2.39,2.39,0,0,0,0,3.36L36,33.6a1.18,1.18,0,1,0,1.67-1.68l-3.07-3.07a.79.79,0,0,1,0-1.12"/><path class="cls-4" d="M34.58,27.73l3.07-3.07A1.18,1.18,0,0,0,36,23l-3.64,3.63a2.39,2.39,0,0,0,0,3.36L36,33.6a1.18,1.18,0,1,0,1.67-1.68l-3.07-3.07A.79.79,0,0,1,34.58,27.73Z"/><path class="cls-2" d="M51.92,28.05,48.85,25a1.18,1.18,0,1,1,1.67-1.67l3.64,3.63a2.38,2.38,0,0,1,0,3.35l-3.64,3.63a1.18,1.18,0,1,1-1.67-1.67l3.07-3.08a.78.78,0,0,0,0-1.11"/><path class="cls-4" d="M51.92,28.05,48.85,25a1.18,1.18,0,1,1,1.67-1.67l3.64,3.63a2.38,2.38,0,0,1,0,3.35l-3.64,3.63a1.18,1.18,0,1,1-1.67-1.67l3.07-3.08A.78.78,0,0,0,51.92,28.05Z"/><path class="cls-2" d="M41.32,35.17h0a1.24,1.24,0,0,1-.8-1.57l4-12.29a1.25,1.25,0,0,1,2.38.78l-4,12.29a1.25,1.25,0,0,1-1.58.79"/><path class="cls-4" d="M41.32,35.17h0a1.24,1.24,0,0,1-.8-1.57l4-12.29a1.25,1.25,0,0,1,2.38.78l-4,12.29A1.25,1.25,0,0,1,41.32,35.17Z"/></g></g></svg>