<svg xmlns="http://www.w3.org/2000/svg" xmlns:xlink="http://www.w3.org/1999/xlink" viewBox="0 0 84 80"><defs><style>.cls-1,.cls-4,.cls-7,.cls-8{fill:none;}.cls-2{fill:#f2fafa;}.cls-3{clip-path:url(#clip-path);}.cls-4,.cls-7,.cls-8{stroke:#1c184e;}.cls-4,.cls-8{stroke-linecap:round;}.cls-4{stroke-linejoin:round;}.cls-5{fill:#e9f6f6;}.cls-6{fill:#fff;}.cls-7,.cls-8{stroke-miterlimit:10;}.cls-9{fill:#1c184e;}</style><clipPath id="clip-path"><path class="cls-1" d="M2,40A40,40,0,1,0,42,0,40,40,0,0,0,2,40"/></clipPath></defs><title>Resurs 42</title><g id="Lager_2" data-name="Lager 2"><g id="Layer_1" data-name="Layer 1"><path class="cls-2" d="M82,40A40,40,0,1,1,42,0,40,40,0,0,1,82,40"/><g class="cls-3"><line class="cls-4" x1="62" y1="15.5" x2="62" y2="10.5"/><line class="cls-4" x1="64.5" y1="13" x2="59.57" y2="13"/><line class="cls-4" x1="69.5" y1="25.5" x2="69.5" y2="22.5"/><line class="cls-4" x1="71" y1="24" x2="68" y2="24"/><line class="cls-4" x1="35.5" y1="9.5" x2="35.5" y2="6.5"/><line class="cls-4" x1="37" y1="8" x2="34" y2="8"/><rect class="cls-5" x="0.5" y="60.5" width="83" height="2.5"/><rect class="cls-4" x="0.5" y="60.5" width="83" height="2.5"/><rect class="cls-6" x="42" y="63" width="40" height="7"/><rect class="cls-4" x="42" y="63" width="40" height="7"/><rect class="cls-6" x="2" y="63" width="40" height="7"/><rect class="cls-4" x="2" y="63" width="40" height="7"/><path class="cls-5" d="M23,66.5a1,1,0,1,1-1-1,1,1,0,0,1,1,1"/><circle class="cls-4" cx="22" cy="66.5" r="1"/><path class="cls-5" d="M63,66.5a1,1,0,1,1-1-1,1,1,0,0,1,1,1"/><circle class="cls-4" cx="62" cy="66.5" r="1"/><path class="cls-5" d="M74.5,40h-8V30.5a1,1,0,0,1,1-1h6a1,1,0,0,1,1,1Z"/><path class="cls-4" d="M74.5,40h-8V30.5a1,1,0,0,1,1-1h6a1,1,0,0,1,1,1Z"/><path class="cls-6" d="M73,36a2.5,2.5,0,1,1-2.5-2.5A2.5,2.5,0,0,1,73,36"/><circle class="cls-4" cx="70.5" cy="36" r="2.5"/><line class="cls-4" x1="68.5" y1="31.5" x2="72.5" y2="31.5"/><line class="cls-4" x1="70.5" y1="33.5" x2="70.5" y2="38.5"/><line class="cls-4" x1="73" y1="36" x2="68" y2="36"/><path class="cls-5" d="M31,57.5H53.5a3,3,0,0,1,3,3h2a5,5,0,0,0-5-5H31a5,5,0,0,0-5,5h2a3,3,0,0,1,3-3"/><path class="cls-7" d="M31,57.5H53.5a3,3,0,0,1,3,3h2a5,5,0,0,0-5-5H31a5,5,0,0,0-5,5h2A3,3,0,0,1,31,57.5Z"/><path class="cls-6" d="M83,42.5H66a1,1,0,0,1-1-1V41a1,1,0,0,1,1-1H83Z"/><path class="cls-4" d="M83,42.5H66a1,1,0,0,1-1-1V41a1,1,0,0,1,1-1H83Z"/><path class="cls-5" d="M9.5,40h8V30.5a1,1,0,0,0-1-1h-6a1,1,0,0,0-1,1Z"/><path class="cls-4" d="M9.5,40h8V30.5a1,1,0,0,0-1-1h-6a1,1,0,0,0-1,1Z"/><path class="cls-6" d="M11,36a2.5,2.5,0,1,0,2.5-2.5A2.5,2.5,0,0,0,11,36"/><circle class="cls-4" cx="13.5" cy="36" r="2.5"/><line class="cls-4" x1="15.5" y1="31.5" x2="11.5" y2="31.5"/><line class="cls-4" x1="13.5" y1="33.5" x2="13.5" y2="38.5"/><line class="cls-4" x1="11" y1="36" x2="16" y2="36"/><path class="cls-6" d="M1,42.5H18a1,1,0,0,0,1-1V41a1,1,0,0,0-1-1H1Z"/><path class="cls-4" d="M1,42.5H18a1,1,0,0,0,1-1V41a1,1,0,0,0-1-1H1Z"/><path class="cls-6" d="M73,60.5H64A3.5,3.5,0,0,1,67.5,57h2A3.5,3.5,0,0,1,73,60.5"/><path class="cls-4" d="M73,60.5H64A3.5,3.5,0,0,1,67.5,57h2A3.5,3.5,0,0,1,73,60.5Z"/><path class="cls-6" d="M14.79,60.5H22l1-2.84A.5.5,0,0,0,22.5,57H14.29a.5.5,0,0,0-.48.66Z"/><path class="cls-4" d="M14.79,60.5H22l1-2.84A.5.5,0,0,0,22.5,57H14.29a.5.5,0,0,0-.48.66Z"/><path class="cls-5" d="M20.73,52.8c0,2.32-1.05,4.2-2.34,4.2s-2.33-1.88-2.33-4.2a6,6,0,0,1,2-3.89.51.51,0,0,1,.69,0,6,6,0,0,1,2,3.89"/><path class="cls-4" d="M20.73,52.8c0,2.32-1.05,4.2-2.34,4.2s-2.33-1.88-2.33-4.2a6,6,0,0,1,2-3.89.51.51,0,0,1,.69,0A6,6,0,0,1,20.73,52.8Z"/><path class="cls-5" d="M18.39,57l-2.86-6.69a.48.48,0,0,0-.47-.3.5.5,0,0,0-.46.31l-.44,1.11a3.6,3.6,0,0,0,2,4.68Z"/><path class="cls-4" d="M18.39,57l-2.86-6.69a.48.48,0,0,0-.47-.3.5.5,0,0,0-.46.31l-.44,1.11a3.6,3.6,0,0,0,2,4.68Z"/><path class="cls-5" d="M18.39,57l2.87-6.69a.5.5,0,0,1,.92,0l.45,1.11a3.6,3.6,0,0,1-2,4.68Z"/><path class="cls-4" d="M18.39,57l2.87-6.69a.5.5,0,0,1,.92,0l.45,1.11a3.6,3.6,0,0,1-2,4.68Z"/><path class="cls-4" d="M46,14.83a1.67,1.67,0,1,1-3.33,0,1.67,1.67,0,0,1,3.33,0Z"/><path class="cls-4" d="M54,13.17a1.67,1.67,0,1,1-1.67-1.67A1.66,1.66,0,0,1,54,13.17Z"/><polyline class="cls-4" points="46 14.83 46 7.33 54 4 54 13.17"/><path class="cls-4" d="M21.66,17.44a1.57,1.57,0,1,1-1.57-1.56A1.56,1.56,0,0,1,21.66,17.44Z"/><polyline class="cls-4" points="21.66 17.44 21.66 10.41 24 11.97"/><circle class="cls-4" cx="64" cy="21.5" r="1"/><polyline class="cls-4" points="65 21.5 65 17 66.5 18"/><line class="cls-4" x1="27.5" y1="18.5" x2="27.5" y2="16.5"/><line class="cls-4" x1="26.5" y1="17.5" x2="28.5" y2="17.5"/><path class="cls-5" d="M61,24V47.5a2,2,0,0,1-2,2H26a2,2,0,0,1-2-2V24a2,2,0,0,1,2-2H59a2,2,0,0,1,2,2"/><path class="cls-6" d="M46.51,22,24,44.52V24a2,2,0,0,1,2-2Z"/><rect class="cls-8" x="24" y="22" width="37" height="27.5" rx="2" ry="2"/><path class="cls-6" d="M61,44.5v3a2,2,0,0,1-2,2H26a2,2,0,0,1-2-2v-3Z"/><path class="cls-8" d="M61,44.5v3a2,2,0,0,1-2,2H26a2,2,0,0,1-2-2v-3Z"/><path class="cls-9" d="M42,46a1,1,0,1,0,1,1,1,1,0,0,0-1-1"/><rect class="cls-6" x="39" y="49.5" width="6" height="3.5"/><rect class="cls-8" x="39" y="49.5" width="6" height="3.5"/><path class="cls-6" d="M50,55.5H34A2.5,2.5,0,0,1,36.5,53h11A2.5,2.5,0,0,1,50,55.5"/><path class="cls-8" d="M50,55.5H34A2.5,2.5,0,0,1,36.5,53h11A2.5,2.5,0,0,1,50,55.5Z"/></g></g></g></svg>