<svg xmlns="http://www.w3.org/2000/svg" viewBox="0 0 88 60.65"><defs><style>.cls-1{fill:#f2fafa;}.cls-2{fill:none;}.cls-2,.cls-4,.cls-5,.cls-7{stroke:#1c184e;stroke-linejoin:round;}.cls-2,.cls-4,.cls-5{stroke-linecap:round;}.cls-3,.cls-5{fill:#fff;}.cls-4,.cls-6,.cls-7{fill:#e9f6f6;}</style></defs><title>Resurs 56</title><g id="Lager_2" data-name="Lager 2"><g id="Scene"><path class="cls-1" d="M84.5,43.65A40,40,0,1,0,8.06,60.15H80.94A39.85,39.85,0,0,0,84.5,43.65Z"/><line class="cls-2" x1="5" y1="60.15" x2="83" y2="60.15"/><line class="cls-2" x1="0.5" y1="60.15" x2="3" y2="60.15"/><line class="cls-2" x1="85" y1="60.15" x2="87.5" y2="60.15"/><circle class="cls-3" cx="66.27" cy="9" r="5"/><circle class="cls-2" cx="66.27" cy="9" r="5"/><line class="cls-2" x1="66.27" y1="2" x2="66.27" y2="0.5"/><line class="cls-2" x1="71.22" y1="4.05" x2="72.28" y2="2.99"/><line class="cls-2" x1="73.27" y1="9" x2="74.77" y2="9"/><line class="cls-2" x1="71.22" y1="13.95" x2="72.28" y2="15.01"/><line class="cls-2" x1="66.27" y1="16" x2="66.27" y2="17.5"/><line class="cls-2" x1="61.31" y1="13.95" x2="60.25" y2="15.01"/><line class="cls-2" x1="59.26" y1="9" x2="57.76" y2="9"/><line class="cls-2" x1="61.31" y1="4.05" x2="60.25" y2="2.99"/><rect class="cls-4" x="39.39" y="55.15" width="8.75" height="5"/><rect class="cls-5" x="32.66" y="27.65" width="22.21" height="6.25"/><rect class="cls-4" x="32.66" y="27.65" width="2.5" height="6.25"/><rect class="cls-4" x="39.23" y="27.65" width="2.5" height="6.25"/><rect class="cls-4" x="45.8" y="27.65" width="2.5" height="6.25"/><rect class="cls-4" x="52.37" y="27.65" width="2.5" height="6.25"/><rect class="cls-6" x="26.89" y="43.9" width="2.5" height="8.75"/><rect class="cls-2" x="26.89" y="43.9" width="2.5" height="8.75"/><rect class="cls-6" x="33.14" y="43.9" width="2.5" height="8.75"/><rect class="cls-2" x="33.14" y="43.9" width="2.5" height="8.75"/><rect class="cls-6" x="51.89" y="43.9" width="2.5" height="8.75"/><rect class="cls-2" x="51.89" y="43.9" width="2.5" height="8.75"/><rect class="cls-4" x="58.14" y="43.9" width="2.5" height="8.75"/><rect class="cls-6" x="39.39" y="43.9" width="2.5" height="11.25"/><rect class="cls-2" x="39.39" y="43.9" width="2.5" height="11.25"/><rect class="cls-6" x="45.64" y="43.9" width="2.5" height="11.25"/><rect class="cls-2" x="45.64" y="43.9" width="2.5" height="11.25"/><path class="cls-3" d="M29.39,43.9V47h0a3.37,3.37,0,0,1,3.75,0h0V43.9Z"/><path class="cls-2" d="M29.39,43.9V47h0a3.37,3.37,0,0,1,3.75,0h0V43.9Z"/><path class="cls-3" d="M35.64,43.9V47h0a3.37,3.37,0,0,1,3.75,0h0V43.9Z"/><path class="cls-2" d="M35.64,43.9V47h0a3.37,3.37,0,0,1,3.75,0h0V43.9Z"/><path class="cls-3" d="M41.89,43.9V47h0a3.37,3.37,0,0,1,3.75,0h0V43.9Z"/><path class="cls-2" d="M41.89,43.9V47h0a3.37,3.37,0,0,1,3.75,0h0V43.9Z"/><path class="cls-3" d="M48.14,43.9V47h0a3.37,3.37,0,0,1,3.75,0h0V43.9Z"/><path class="cls-2" d="M48.14,43.9V47h0a3.37,3.37,0,0,1,3.75,0h0V43.9Z"/><path class="cls-5" d="M54.39,43.9V47h0a3.37,3.37,0,0,1,3.75,0h0V43.9Z"/><rect class="cls-5" x="26.89" y="39.53" width="33.75" height="4.38"/><path class="cls-6" d="M54.87,33.9H32.66a26,26,0,0,1-9.52,5.36A4.71,4.71,0,0,0,27,41.39a8.45,8.45,0,0,0,5.49-2.13,8.45,8.45,0,0,0,5.62,2.14H49.39A8.49,8.49,0,0,0,55,39.26a8.39,8.39,0,0,0,5.48,2.13,4.7,4.7,0,0,0,3.89-2.13A26,26,0,0,1,54.87,33.9Z"/><path class="cls-2" d="M54.87,33.9H32.66a26,26,0,0,1-9.52,5.36A4.71,4.71,0,0,0,27,41.39a8.45,8.45,0,0,0,5.49-2.13,8.45,8.45,0,0,0,5.62,2.14H49.39A8.49,8.49,0,0,0,55,39.26a8.39,8.39,0,0,0,5.48,2.13,4.7,4.7,0,0,0,3.89-2.13A26,26,0,0,1,54.87,33.9Z"/><path class="cls-5" d="M46.38,12.55a2.78,2.78,0,0,0-5.27,0,3.82,3.82,0,0,0,0,2.22l.69,2.38h4l.68-2.38A3.82,3.82,0,0,0,46.38,12.55Z"/><line class="cls-2" x1="40.02" y1="17.15" x2="47.5" y2="17.15"/><path class="cls-6" d="M46.5,17.15H41c-2.51,5.37-5.43,9.46-12.23,10.5a6.23,6.23,0,0,0,4.58,2.48,3.73,3.73,0,0,0,2.79-1.48l.75-1a6.23,6.23,0,0,0,5,2.5h3.72a6.23,6.23,0,0,0,5-2.5l.75,1a3.73,3.73,0,0,0,2.79,1.48,6.23,6.23,0,0,0,4.58-2.48C51.93,26.61,49,22.52,46.5,17.15Z"/><path class="cls-2" d="M46.5,17.15H41c-2.51,5.37-5.43,9.46-12.23,10.5a6.23,6.23,0,0,0,4.58,2.48,3.73,3.73,0,0,0,2.79-1.48l.75-1a6.23,6.23,0,0,0,5,2.5h3.72a6.23,6.23,0,0,0,5-2.5l.75,1a3.73,3.73,0,0,0,2.79,1.48,6.23,6.23,0,0,0,4.58-2.48C51.93,26.61,49,22.52,46.5,17.15Z"/><path class="cls-5" d="M21.34,53.76l-.7,1.39H39.39v-1.5a1,1,0,0,0-1-1H23.13A2,2,0,0,0,21.34,53.76Z"/><path class="cls-5" d="M64.4,52.65H49.14a1,1,0,0,0-1,1v1.5H66.89l-.7-1.39A2,2,0,0,0,64.4,52.65Z"/><rect class="cls-5" x="20.64" y="55.15" width="18.75" height="5"/><rect class="cls-5" x="48.14" y="55.15" width="18.75" height="5"/><polygon class="cls-5" points="48.14 60.15 39.39 60.15 41.89 55.15 45.64 55.15 48.14 60.15"/><line class="cls-2" x1="40.64" y1="57.65" x2="46.89" y2="57.65"/><path class="cls-2" d="M55,39.26h0a14.66,14.66,0,0,1-4.86-4.84l-.34-.52"/><path class="cls-2" d="M37.71,33.9l-.33.52a14.84,14.84,0,0,1-4.86,4.84h0"/><path class="cls-2" d="M44.5,17.15c.37,1.71,2.07,9.14,6.14,10.5h0"/><path class="cls-2" d="M36.89,27.65h0c3.76-1.26,5.49-7.58,6.11-10.5"/><line class="cls-2" x1="31.27" y1="52.65" x2="31.27" y2="57.65"/><line class="cls-2" x1="56.27" y1="52.65" x2="56.27" y2="57.65"/><line class="cls-2" x1="64.39" y1="39.26" x2="65.5" y2="38.15"/><line class="cls-2" x1="23.14" y1="39.26" x2="22.02" y2="38.14"/><line class="cls-2" x1="28.77" y1="27.65" x2="28" y2="26.65"/><line class="cls-2" x1="58.77" y1="27.65" x2="59.5" y2="26.65"/><path class="cls-7" d="M16,45.52a3.52,3.52,0,0,0-.38-5.91A2.31,2.31,0,0,0,16.21,38a2.34,2.34,0,0,0-4.68,0,2.31,2.31,0,0,0,.64,1.61,3.52,3.52,0,0,0-.38,5.91,4.68,4.68,0,1,0,4.16,0Z"/><line class="cls-2" x1="13.87" y1="54.4" x2="13.87" y2="60.15"/><path class="cls-7" d="M76.82,45.52a3.52,3.52,0,0,0-.38-5.91,2.34,2.34,0,1,0-4-1.61A2.31,2.31,0,0,0,73,39.61a3.51,3.51,0,0,0-.38,5.91,4.68,4.68,0,1,0,4.16,0Z"/><line class="cls-2" x1="74.74" y1="54.4" x2="74.74" y2="60.15"/></g></g></svg>