<?xml version="1.0" encoding="utf-8"?>
<!-- Generator: Adobe Illustrator 22.0.0, SVG Export Plug-In . SVG Version: 6.00 Build 0)  -->
<svg version="1.1" id="Layer_1" xmlns="http://www.w3.org/2000/svg" xmlns:xlink="http://www.w3.org/1999/xlink" x="0px" y="0px"
	 viewBox="0 0 88 66.1" style="enable-background:new 0 0 88 66.1;" xml:space="preserve">
<style type="text/css">
	.st0{fill:#F2FAFA;}
	.st1{fill:none;stroke:#1C184E;stroke-linecap:round;stroke-linejoin:round;}
	.st2{fill:#FFFFFF;}
	.st3{fill:#E9F6F6;}
	.st4{fill:#1C184E;}
</style>
<title>Resurs 22</title>
<g id="Lager_2">
	<g id="Layer_1_1_">
		<path class="st0" d="M84,40C84,17.9,66.1,0,44,0S4,17.9,4,40c0,5.7,1.2,11.3,3.6,16.5h72.9C82.8,51.3,84,45.7,84,40"/>
		<line class="st1" x1="5" y1="56.5" x2="83" y2="56.5"/>
		<line class="st1" x1="0.5" y1="56.5" x2="3" y2="56.5"/>
		<line class="st1" x1="85" y1="56.5" x2="87.5" y2="56.5"/>
		<path class="st2" d="M70.1,54.8c-2,0-3.6-1.6-3.6-3.6l0,0v-2.2c0.2-8.6-6.6-15.8-15.2-16c-8.6-0.2-15.8,6.6-16,15.2
			c0,0.3,0,0.5,0,0.8v7.6h26.9c1.8,2.7,4.8,4.3,8,4.3c1.7,0,3-1.3,3-3S71.8,54.8,70.1,54.8"/>
		<path class="st1" d="M70.1,54.8c-2,0-3.6-1.6-3.6-3.6l0,0v-2.2c0.2-8.6-6.6-15.8-15.2-16c-8.6-0.2-15.8,6.6-16,15.2
			c0,0.3,0,0.5,0,0.8v7.6h26.9c1.8,2.7,4.8,4.3,8,4.3c1.7,0,3-1.3,3-3S71.8,54.8,70.1,54.8L70.1,54.8z"/>
		<path class="st2" d="M54.5,33.7v-3.2h-7.2v3.2c-1.3,0.3-2.5,0.8-3.7,1.4l6.4,9.4c0.3,0.5,0.9,0.6,1.4,0.3c0.1-0.1,0.2-0.2,0.3-0.3
			l6.5-9.4C56.9,34.5,55.7,34,54.5,33.7"/>
		<path class="st1" d="M54.5,33.7v-3.2h-7.2v3.2c-1.3,0.3-2.5,0.8-3.7,1.4l6.4,9.4c0.3,0.5,0.9,0.6,1.4,0.3c0.1-0.1,0.2-0.2,0.3-0.3
			l6.5-9.4C57,34.5,55.7,34,54.5,33.7z"/>
		<line class="st1" x1="41.2" y1="56.5" x2="41.2" y2="47.3"/>
		<path class="st0" d="M47,64.6c0,0.8-8.7,1.5-19.5,1.5S8,65.4,8,64.6c0-0.8,8.7-1.5,19.5-1.5S47,63.8,47,64.6"/>
		<path class="st2" d="M65.3,31v-8.5c0-2.9-1.3-5.7-3.7-7.5c0.1,0.7,0.2,1.3,0.2,2v1.5c0,0.6-0.4,1-1,1c1.1,0,2,0.9,2,2s-0.9,2-2,2
			h-0.1c-0.4,2.5-1.6,4.7-3.5,6.2c1.6,2.9,4.4,5,7.7,5.6c0.5,0.1,1.1-0.2,1.2-0.8c0-0.2,0-0.4-0.1-0.6C65.5,33,65.3,32,65.3,31"/>
		<path class="st1" d="M65.3,31v-8.5c0-2.9-1.3-5.7-3.7-7.5c0.1,0.7,0.2,1.3,0.2,2v1.5c0,0.6-0.4,1-1,1c1.1,0,2,0.9,2,2s-0.9,2-2,2
			h-0.1c-0.4,2.5-1.6,4.7-3.5,6.2c1.6,2.9,4.4,5,7.7,5.6c0.5,0.1,1.1-0.2,1.2-0.8c0-0.2,0-0.4-0.1-0.6C65.5,33,65.3,32,65.3,31z"/>
		<path class="st2" d="M60.8,19.5V17c0-5.5-4.5-10-10-10s-10,4.5-10,10v2.5c-1.1,0-2,0.9-2,2s0.9,2,2,2h0.1c0.9,5.5,6,9.2,11.4,8.3
			c4.3-0.7,7.7-4,8.3-8.3h0.1c1.1,0,2-0.9,2-2S61.9,19.5,60.8,19.5"/>
		<path class="st1" d="M60.8,19.5V17c0-5.5-4.5-10-10-10s-10,4.5-10,10v2.5c-1.1,0-2,0.9-2,2s0.9,2,2,2h0.1c0.9,5.5,6,9.2,11.4,8.3
			c4.3-0.7,7.7-4,8.3-8.3h0.1c1.1,0,2-0.9,2-2S61.9,19.5,60.8,19.5z"/>
		<path class="st3" d="M46.3,23.7c0,0.7-0.6,1.2-1.2,1.2s-1.2-0.6-1.2-1.2s0.6-1.2,1.2-1.2S46.3,23.1,46.3,23.7"/>
		<path class="st3" d="M55.3,23.7c0,0.7,0.6,1.2,1.2,1.2s1.2-0.6,1.2-1.2s-0.6-1.2-1.2-1.2S55.3,23.1,55.3,23.7"/>
		<path class="st1" d="M47.8,26.3c1.7,1.6,4.3,1.6,6,0"/>
		<path class="st1" d="M56.3,20.5c-0.4-0.8-1.3-1.2-2.1-0.9c-0.4,0.2-0.7,0.5-0.9,0.9"/>
		<path class="st1" d="M48.3,20.5c-0.4-0.8-1.3-1.2-2.1-0.9c-0.4,0.2-0.7,0.5-0.9,0.9"/>
		<path class="st2" d="M50.8,5.5c-6,0-9,3.6-10.4,8h-1.1c-0.6,0-1,0.4-1,1c0,1.2,0.5,2.4,1.5,3.1v0.9c0,0.6,0.4,1,1,1
			c0.5,0,1-0.4,1.1-0.9v-0.2c0.4,0.1,0.8,0.1,1.2,0.1c2.3,0,4.2-1.9,4.2-4.2v-0.1c0.1-1.5,1.3-2.6,2.8-2.6h1.8c4.1,0,7.5,3,8,7.1
			c0.1,0.5,0.5,0.9,1,0.9c0.6,0,1-0.4,1-1V17C61.8,10.9,57.8,5.5,50.8,5.5"/>
		<path class="st1" d="M50.8,5.5c-6,0-9,3.6-10.4,8h-1.1c-0.6,0-1,0.4-1,1c0,1.2,0.5,2.4,1.5,3.1v0.9c0,0.6,0.4,1,1,1
			c0.5,0,1-0.4,1.1-0.9v-0.2c0.4,0.1,0.8,0.1,1.2,0.1c2.3,0,4.2-1.9,4.2-4.2v-0.1c0.1-1.5,1.3-2.6,2.8-2.6h1.8c4.1,0,7.5,3,8,7.1
			c0.1,0.5,0.5,0.9,1,0.9c0.6,0,1-0.4,1-1V17C61.8,10.9,57.8,5.5,50.8,5.5z"/>
		<path class="st2" d="M42.6,12.9c0,0,0,0.1,0,0.1c0,0,0.1,0,0.1,0c4.2-4.5,11.2-4.7,15.7-0.5c0.2,0.2,0.4,0.3,0.5,0.5
			c0,0,0.1,0,0.1,0c0,0,0-0.1,0-0.1c-2-4.6-7.3-6.7-11.8-4.7C45.1,9.1,43.4,10.8,42.6,12.9"/>
		<path class="st1" d="M42.6,12.9c0,0,0,0.1,0,0.1c0,0,0.1,0,0.1,0c4.2-4.5,11.2-4.7,15.7-0.5c0.2,0.2,0.4,0.3,0.5,0.5
			c0,0,0.1,0,0.1,0c0,0,0-0.1,0-0.1c-2-4.6-7.3-6.7-11.8-4.7C45.1,9.1,43.4,10.8,42.6,12.9L42.6,12.9z"/>
		<path class="st1" d="M47.3,14.3c0,2.3-1.9,4.2-4.2,4.2c-2.6,0-4.8-1.4-4.8-4c0-0.6,0.4-1,1-1h1.1c1.4,0,2.2,0,3.4-1.5"/>
		<path class="st2" d="M50.9,39.1c-1.7,0-3.4-0.2-5-0.6l4.1,6c0.3,0.5,0.9,0.6,1.4,0.3c0.1-0.1,0.2-0.2,0.3-0.3l4.1-6
			C54.1,38.9,52.5,39.1,50.9,39.1"/>
		<path class="st1" d="M50.9,39.1c-1.7,0-3.4-0.2-5-0.6l4.1,6c0.3,0.5,0.9,0.6,1.4,0.3c0.1-0.1,0.2-0.2,0.3-0.3l4.1-6
			C54.2,38.9,52.5,39.1,50.9,39.1z"/>
		<path class="st3" d="M77.8,32.6c0-0.3-0.2-0.6-0.5-0.7c-0.3-0.1-0.6,0.2-0.7,0.5c0,0,0,0,0,0l-5.3,30.2c-0.1,0.3,0,0.6,0.2,0.9
			c0.4,0.5,1.1,0.7,1.6,0.3c0,0,0,0,0,0c0.3-0.2,0.4-0.5,0.5-0.8L77.8,32.6z"/>
		<path class="st1" d="M77.8,32.6c0-0.3-0.2-0.6-0.5-0.7c-0.3-0.1-0.6,0.2-0.7,0.5c0,0,0,0,0,0l-5.3,30.2c-0.1,0.3,0,0.6,0.2,0.9
			c0.4,0.5,1.1,0.7,1.6,0.3c0,0,0,0,0,0c0.3-0.2,0.4-0.5,0.5-0.8L77.8,32.6z"/>
		<path class="st2" d="M76.9,60.5c-0.1,0.5-0.6,0.9-1.2,0.9H73c-1.6,0-2.9-1.3-2.9-2.9V57c0-1.6,1.3-2.9,2.9-2.9h2.8
			c0.5,0,1,0.4,1.2,0.9C77.5,56.8,77.5,58.7,76.9,60.5"/>
		<path class="st1" d="M76.9,60.5c-0.1,0.5-0.6,0.9-1.2,0.9H73c-1.6,0-2.9-1.3-2.9-2.9V57c0-1.6,1.3-2.9,2.9-2.9h2.8
			c0.5,0,1,0.4,1.2,0.9C77.5,56.8,77.5,58.7,76.9,60.5z"/>
		<path class="st3" d="M42.3,64.3H12.6c-1.1,0-2-0.9-2-2V42.8c0-1.1,0.9-2,2-2h29.7c1.1,0,2,0.9,2,2v19.5
			C44.3,63.4,43.5,64.3,42.3,64.3"/>
		<path class="st1" d="M12.6,40.8h29.7c1.1,0,2,0.9,2,2v19.5c0,1.1-0.9,2-2,2H12.6c-1.1,0-2-0.9-2-2V42.8
			C10.6,41.7,11.5,40.8,12.6,40.8z"/>
		<path class="st2" d="M14.1,43.3h26.9c0.6,0,1,0.4,1,1v16.6c0,0.6-0.4,1-1,1H14.1c-0.6,0-1-0.4-1-1V44.3
			C13.1,43.7,13.5,43.3,14.1,43.3z"/>
		<path class="st1" d="M14.1,43.3h26.9c0.6,0,1,0.4,1,1v16.6c0,0.6-0.4,1-1,1H14.1c-0.6,0-1-0.4-1-1V44.3
			C13.1,43.7,13.5,43.3,14.1,43.3z"/>
		<path class="st2" d="M30.9,38.8c0.5,0.2,0.9,0.6,0.9,1.2v2.8c0,1.6-1.3,2.9-2.9,2.9h-1.4c-1.6,0-2.9-1.3-2.9-2.9V40
			c0-0.5,0.4-1,0.9-1.2C27.2,38.3,29.1,38.3,30.9,38.8"/>
		<path class="st1" d="M30.9,38.8c0.5,0.2,0.9,0.6,0.9,1.2v2.8c0,1.6-1.3,2.9-2.9,2.9h-1.4c-1.6,0-2.9-1.3-2.9-2.9V40
			c0-0.5,0.4-1,0.9-1.2C27.2,38.3,29.1,38.3,30.9,38.8z"/>
		<path class="st1" d="M62.1,56.5c-1.1-1.6-1.7-3.5-1.7-5.4v-3.8"/>
		<g id="Artboard_2_">
			<g id="new-logo_x2F_orange_2_">
				<g id="logo_x2F_new_2_" transform="translate(.347)">
					<path id="Fill-12_2_" class="st4" d="M36.9,48.8c0.3-0.2,0.6-0.2,0.9,0l-1.3,0.9C36.5,49.4,36.7,49,36.9,48.8z M38.2,49.7
						c0,0.2-0.2,0.4-0.3,0.5c-0.3,0.2-0.7,0.2-0.9,0l1.3-0.9l0.2-0.1l0.4-0.3c0-0.1-0.1-0.2-0.1-0.3c-0.5-0.7-1.4-0.8-2.1-0.4
						c-0.7,0.5-0.9,1.4-0.4,2.1c0.5,0.7,1.4,0.8,2.1,0.4c0.4-0.3,0.6-0.7,0.7-1.2L38.2,49.7z"/>
					<path id="Fill-10_2_" class="st4" d="M35.3,51.9l-0.8-2l-0.4,0.2l-0.3-0.7l0.4-0.2l-0.4-0.9l0.7-0.3l0.4,0.9l0.5-0.2l0.3,0.7
						l-0.5,0.2l0.8,2L35.3,51.9L35.3,51.9z"/>
					<path id="Fill-7_2_" class="st4" d="M33.9,52.4l0.7-0.3l-1.1-2.7l-0.7,0.3L33.9,52.4z M32.4,48.9c-0.1-0.2,0-0.5,0.3-0.6
						c0.4-0.1,0.7,0.1,0.6,0.6C33,49.3,32.5,49.2,32.4,48.9z"/>
					<path id="Fill-9_2_" class="st4" d="M32.6,49.9c-0.4,0.2-0.5,0.3-0.7,0.5l-0.1-0.2l-0.7,0.3l1.1,2.7l0.7-0.3l-0.5-1.3
						c-0.2-0.4-0.2-0.7,0.5-1L32.6,49.9z"/>
					<path id="Fill-5_2_" class="st4" d="M29.2,52.8c0.2,0.4,0.6,0.6,1.1,0.4c0.4-0.2,0.6-0.6,0.5-1.1c-0.2-0.4-0.6-0.6-1.1-0.4
						C29.2,51.9,29,52.3,29.2,52.8C29.2,52.7,29.2,52.8,29.2,52.8z M29,54.4l-1.6-4l0.6-0.4l0.7,1.6c0.1-0.3,0.4-0.4,0.7-0.6
						c0.8-0.3,1.7,0,2,0.8c0.3,0.8-0.1,1.7-0.9,2c-0.3,0.1-0.6,0.1-0.9,0.1l0.1,0.2L29,54.4L29,54.4z"/>
					<path id="Fill-1_2_" class="st4" d="M27.5,55l-0.8-2l-0.4,0.2L26,52.5l0.4-0.2l-0.4-0.9l0.7-0.5l0.4,1.1l0.5-0.2l0.3,0.7
						l-0.5,0.2l0.8,2L27.5,55z"/>
					<path id="Fill-3_2_" class="st4" d="M26.2,55.5l-0.6-1.4c-0.2-0.5-0.5-0.5-0.8-0.4s-0.5,0.3-0.3,0.8l0.6,1.4l-0.7,0.3l-1.1-2.7
						l0.7-0.3l0.1,0.2c0.1-0.2,0.2-0.4,0.6-0.5c0.6-0.2,1.3-0.1,1.6,0.7l0.6,1.5L26.2,55.5L26.2,55.5z"/>
					<path id="Fill-11_2_" class="st4" d="M21.8,54.9c0.3-0.2,0.7-0.2,0.9,0l-1.3,0.9C21.4,55.4,21.5,55.1,21.8,54.9z M23.1,55.7
						c0,0.2-0.2,0.4-0.3,0.5c-0.3,0.2-0.6,0.2-0.9,0l1.3-0.9l0.2-0.1l0.4-0.3c0-0.1-0.1-0.2-0.1-0.3c-0.5-0.7-1.4-0.8-2.1-0.4
						c-0.7,0.5-0.9,1.4-0.4,2.1c0.5,0.7,1.4,0.8,2.1,0.4c0.4-0.3,0.6-0.7,0.7-1.2C23.8,55.6,23.1,55.7,23.1,55.7z"/>
					<path id="Fill-2_2_" class="st4" d="M19.7,58.1l-2.2-2.2l0.8-0.3l1.4,1.5l0-2.1l0.8-0.3l0,3.1L19.7,58.1z"/>
					<path id="Fill-13_2_" class="st4" d="M16.4,57c0.3-0.2,0.7-0.2,0.9,0l-1.3,0.9C16,57.5,16.1,57.2,16.4,57z M17.7,57.8
						c0,0.2-0.2,0.4-0.3,0.5c-0.3,0.2-0.7,0.2-0.9,0l1.3-0.9l0.2-0.1l0.4-0.3c0-0.1-0.1-0.2-0.1-0.3c-0.5-0.7-1.4-0.8-2.1-0.4
						c-0.7,0.5-0.9,1.4-0.4,2.1c0.5,0.7,1.4,0.8,2.1,0.4c0.4-0.3,0.6-0.7,0.7-1.2L17.7,57.8L17.7,57.8z"/>
				</g>
			</g>
		</g>
	</g>
</g>
</svg>
