<svg xmlns="http://www.w3.org/2000/svg" viewBox="0 0 88 72.82"><defs><style>.cls-1{fill:#f2fafa;}.cls-2,.cls-5,.cls-6{fill:none;stroke:#1c184e;}.cls-2{stroke-linecap:round;}.cls-2,.cls-6{stroke-linejoin:round;}.cls-3{fill:#fff;}.cls-4{fill:#e9f6f6;}.cls-5{stroke-miterlimit:10;}</style></defs><title>Resurs 75</title><g id="Lager_2" data-name="Lager 2"><g id="Layer_1" data-name="Layer 1"><path class="cls-1" d="M84.5,40A40,40,0,1,0,8.06,56.5H80.94A39.88,39.88,0,0,0,84.5,40"/><line class="cls-2" x1="5" y1="56.5" x2="83" y2="56.5"/><line class="cls-2" x1="0.5" y1="56.5" x2="3" y2="56.5"/><line class="cls-2" x1="85" y1="56.5" x2="87.5" y2="56.5"/><path class="cls-1" d="M68.68,71c0,1-11.35,1.81-25.36,1.81S18,72,18,71,29.32,69.2,43.32,69.2,68.68,70,68.68,71"/><path class="cls-3" d="M67.68,63.56H19a1,1,0,0,0-1,1v2.85H68.68V64.56a1,1,0,0,0-1-1"/><path class="cls-2" d="M67.68,63.56H19a1,1,0,0,0-1,1v2.85H68.68V64.56A1,1,0,0,0,67.68,63.56Z"/><path class="cls-3" d="M68.68,67.41H18A4.65,4.65,0,0,0,22.12,70H64.54a4.62,4.62,0,0,0,4.13-2.55v0"/><path class="cls-2" d="M68.68,67.41H18A4.65,4.65,0,0,0,22.12,70H64.54a4.62,4.62,0,0,0,4.13-2.55Z"/><path class="cls-4" d="M62.83,36.6h-39a2,2,0,0,0-2,2v25h43v-25a2,2,0,0,0-2-2"/><path class="cls-3" d="M24.23,36.6A2.42,2.42,0,0,0,21.81,39V63.56h.25l27-27Z"/><path class="cls-5" d="M62.83,36.6h-39a2,2,0,0,0-2,2v25h43v-25A2,2,0,0,0,62.83,36.6Z"/><path class="cls-3" d="M76.56,48.26l3.61-2.35,1.06-5.37a.61.61,0,0,0-.38-.67.54.54,0,0,0-.22,0,.6.6,0,0,0-.51.3l-4.25,7Z"/><path class="cls-5" d="M76.56,48.26l3.61-2.35,1.06-5.37a.61.61,0,0,0-.38-.67.54.54,0,0,0-.22,0,.6.6,0,0,0-.51.3l-4.25,7Z"/><path class="cls-3" d="M71.58,45.91l5.88,3.83-5.83-9.62a.6.6,0,0,0-.51-.3.54.54,0,0,0-.22,0,.61.61,0,0,0-.38.67Z"/><path class="cls-2" d="M71.58,45.91l5.88,3.83-5.83-9.62a.6.6,0,0,0-.51-.3.54.54,0,0,0-.22,0,.61.61,0,0,0-.38.67Z"/><path class="cls-3" d="M81.76,45.4a.62.62,0,0,0-.4-.15.64.64,0,0,0-.33.1l-8.8,5.74H79.5l2.4-5a.61.61,0,0,0-.14-.72"/><path class="cls-2" d="M81.76,45.4a.62.62,0,0,0-.4-.15.64.64,0,0,0-.33.1l-8.8,5.74H79.5l2.4-5A.61.61,0,0,0,81.76,45.4Z"/><path class="cls-3" d="M75.87,47.13l1.83-3-1.23-5.83a.62.62,0,0,0-.58-.48h0a.59.59,0,0,0-.58.46l-1.4,5.6Z"/><path class="cls-5" d="M75.87,47.13l1.83-3-1.23-5.83a.62.62,0,0,0-.58-.48h0a.59.59,0,0,0-.58.46l-1.4,5.6Z"/><path class="cls-3" d="M79.52,51.09l-8.8-5.74a.67.67,0,0,0-.33-.1.62.62,0,0,0-.4.15.61.61,0,0,0-.14.72l2.4,5Z"/><path class="cls-2" d="M79.52,51.09l-8.8-5.74a.67.67,0,0,0-.33-.1.62.62,0,0,0-.4.15.61.61,0,0,0-.14.72l2.4,5Z"/><path class="cls-3" d="M80.05,56.52H71.6l-.88-4a1.24,1.24,0,0,1,.23-1,1.2,1.2,0,0,1,1-.45h7.85a1.2,1.2,0,0,1,1,.45,1.24,1.24,0,0,1,.23,1Z"/><path class="cls-6" d="M80.05,56.52H71.6l-.88-4a1.24,1.24,0,0,1,.23-1,1.2,1.2,0,0,1,1-.45h7.85a1.2,1.2,0,0,1,1,.45,1.24,1.24,0,0,1,.23,1Z"/><rect class="cls-3" x="71.6" y="56.52" width="8.45" height="2.41"/><rect class="cls-6" x="71.6" y="56.52" width="8.45" height="2.41"/><path class="cls-3" d="M51.11,29.79a1.21,1.21,0,0,0,1-1.94l-7.79-10.1a1.2,1.2,0,0,0-1-.47,1.21,1.21,0,0,0-1,.47l-7.78,10.1a1.17,1.17,0,0,0-.13,1.27,1.2,1.2,0,0,0,1.08.67h3V40.05a2.42,2.42,0,0,0,2.42,2.42h4.83a2.41,2.41,0,0,0,2.41-2.42V29.79Z"/><path class="cls-6" d="M51.11,29.79a1.21,1.21,0,0,0,1-1.94l-7.79-10.1a1.2,1.2,0,0,0-1-.47,1.21,1.21,0,0,0-1,.47l-7.78,10.1a1.17,1.17,0,0,0-.13,1.27,1.2,1.2,0,0,0,1.08.67h3V40.05a2.42,2.42,0,0,0,2.42,2.42h4.83a2.41,2.41,0,0,0,2.41-2.42V29.79Z"/><path class="cls-3" d="M45.94,48.67H40.7a1,1,0,0,1-1-1V46.05a1,1,0,0,1,1-1h5.24a1,1,0,0,1,1,1v1.62a1,1,0,0,1-1,1"/><rect class="cls-5" x="39.7" y="45.05" width="7.25" height="3.62" rx="1" ry="1"/><path class="cls-3" d="M45.34,54.71h-4a1,1,0,0,1-1-1V52.09a1,1,0,0,1,1-1h4a1,1,0,0,1,1,1v1.62a1,1,0,0,1-1,1"/><rect class="cls-5" x="40.3" y="51.09" width="6.04" height="3.62" rx="1" ry="1"/></g></g></svg>