<svg xmlns="http://www.w3.org/2000/svg" viewBox="0 0 88 77.37"><defs><style>.cls-1{fill:#f2fafa;}.cls-2{fill:none;stroke:#1c184e;stroke-linecap:round;stroke-linejoin:round;}.cls-3{fill:#fff;}.cls-4{fill:#1c184e;}.cls-5{fill:#e9f6f6;}</style></defs><title>Resurs 17</title><g id="Lager_2" data-name="Lager 2"><g id="Layer_1" data-name="Layer 1"><path class="cls-1" d="M84,46.37A40,40,0,1,0,7.56,62.87H80.44A39.85,39.85,0,0,0,84,46.37"/><line class="cls-2" x1="5" y1="62.87" x2="83" y2="62.87"/><line class="cls-2" x1="0.5" y1="62.87" x2="3" y2="62.87"/><line class="cls-2" x1="85" y1="62.87" x2="87.5" y2="62.87"/><path class="cls-3" d="M66.46,41.33l-.36-9.78a.85.85,0,0,1-.23,0,6,6,0,0,1-11.74,0,.85.85,0,0,1-.23,0l-.36,9.78a1,1,0,0,0,1,1H65.46a1,1,0,0,0,1-1"/><path class="cls-2" d="M66.46,41.33l-.36-9.78a.85.85,0,0,1-.23,0,6,6,0,0,1-11.74,0,.85.85,0,0,1-.23,0l-.36,9.78a1,1,0,0,0,1,1H65.46A1,1,0,0,0,66.46,41.33Z"/><path class="cls-3" d="M67,30.37a1.23,1.23,0,0,0-1-1.2v-.8a6,6,0,0,0-12,0v.8a1.22,1.22,0,0,0,.13,2.42,6,6,0,0,0,11.74,0A1.23,1.23,0,0,0,67,30.37"/><path class="cls-2" d="M67,30.37a1.23,1.23,0,0,0-1-1.2v-.8a6,6,0,0,0-12,0v.8a1.22,1.22,0,0,0,.13,2.42,6,6,0,0,0,11.74,0A1.23,1.23,0,0,0,67,30.37Z"/><path class="cls-4" d="M57.75,28.37a.75.75,0,1,0,.75.75.76.76,0,0,0-.75-.75"/><path class="cls-4" d="M62.25,28.37a.75.75,0,1,0,.75.75.76.76,0,0,0-.75-.75"/><path class="cls-5" d="M57.5,31.12a.75.75,0,1,1-.75-.75.76.76,0,0,1,.75.75"/><path class="cls-5" d="M64,31.12a.75.75,0,1,1-.75-.75.76.76,0,0,1,.75.75"/><path class="cls-2" d="M58.5,32.92a2.72,2.72,0,0,0,3,0"/><path class="cls-3" d="M62.92,21.37a1,1,0,0,0-.84.59,2.41,2.41,0,0,1,.42,1.21,4.08,4.08,0,0,1-.5,2.14c0,.73,2.19,3,3.45,3.93a.49.49,0,0,0,.78-.36l.35-3.53a3.6,3.6,0,0,0-3.66-4"/><path class="cls-2" d="M62.92,21.37a1,1,0,0,0-.84.59,2.41,2.41,0,0,1,.42,1.21,4.08,4.08,0,0,1-.5,2.14c0,.73,2.19,3,3.45,3.93a.49.49,0,0,0,.78-.36l.35-3.53A3.6,3.6,0,0,0,62.92,21.37Z"/><path class="cls-3" d="M60,20.87a2.49,2.49,0,0,1,2.5,2.3c.23,5.16-8.81,6.73-9.82,4.7-.44-.89-.08-2.24,1.13-2.09a.29.29,0,0,0,.32-.32C54,22.69,56.66,20.87,60,20.87"/><path class="cls-2" d="M60,20.87a2.49,2.49,0,0,1,2.5,2.3c.23,5.16-8.81,6.73-9.82,4.7-.44-.89-.08-2.24,1.13-2.09a.29.29,0,0,0,.32-.32C54,22.69,56.66,20.87,60,20.87Z"/><polygon class="cls-3" points="56 66.87 56.5 75.37 63.5 75.37 64 66.87 56 66.87"/><polygon class="cls-2" points="56 66.87 56.5 75.37 63.5 75.37 64 66.87 56 66.87"/><line class="cls-2" x1="60" y1="66.87" x2="60" y2="75.37"/><path class="cls-1" d="M73,75.87c0,.83-5.82,1.5-13,1.5s-13-.67-13-1.5,5.82-1.5,13-1.5,13,.67,13,1.5"/><path class="cls-3" d="M65.23,75.37a1,1,0,0,0,.9-1.45,3,3,0,0,0-2.63-1.55H63a3,3,0,0,0-3,3Z"/><path class="cls-2" d="M65.23,75.37a1,1,0,0,0,.9-1.45,3,3,0,0,0-2.63-1.55H63a3,3,0,0,0-3,3Z"/><path class="cls-3" d="M60,75.37a3,3,0,0,0-3-3h-.5a3,3,0,0,0-2.63,1.55,1,1,0,0,0,.9,1.45Z"/><path class="cls-2" d="M60,75.37a3,3,0,0,0-3-3h-.5a3,3,0,0,0-2.63,1.55,1,1,0,0,0,.9,1.45Z"/><path class="cls-5" d="M64,66.87a1,1,0,0,0,1-1l.49-9.05h-11L55,65.92a1,1,0,0,0,1,1Z"/><path class="cls-2" d="M64,66.87a1,1,0,0,0,1-1l.49-9.05h-11L55,65.92a1,1,0,0,0,1,1Z"/><path class="cls-5" d="M60.05,38.37a9.43,9.43,0,0,1,9.45,9.5v9.5a.43.43,0,0,1-.45.5H65.5v-1l-1.93,1.54a1,1,0,0,1-1.18.05L60,56.87l-2.39,1.59a1,1,0,0,1-1.18-.05L54.5,56.87V45.13a3,3,0,0,0-2.53-3c-8.84-1.51-7.92-10.79-7.92-10.79h4c0,7.5,6.5,7,6.5,7Z"/><path class="cls-2" d="M60.05,38.37a9.43,9.43,0,0,1,9.45,9.5v9.5a.43.43,0,0,1-.45.5H65.5v-1l-1.93,1.54a1,1,0,0,1-1.18.05L60,56.87l-2.39,1.59a1,1,0,0,1-1.18-.05L54.5,56.87V45.13a3,3,0,0,0-2.53-3c-8.84-1.51-7.92-10.79-7.92-10.79h4c0,7.5,6.5,7,6.5,7Z"/><line class="cls-2" x1="65.5" y1="46.37" x2="65.5" y2="56.87"/><path class="cls-3" d="M69,59.62a1.75,1.75,0,1,1-3.5,0V57.87H69Z"/><path class="cls-2" d="M69,59.62a1.75,1.75,0,1,1-3.5,0V57.87H69Z"/><line class="cls-2" x1="60" y1="42.87" x2="60" y2="56.87"/><path class="cls-3" d="M60.05,38.37H56.5l3.5,4.5L63.42,39a9.46,9.46,0,0,0-3.37-.62"/><path class="cls-2" d="M60.05,38.37H56.5l3.5,4.5L63.42,39A9.46,9.46,0,0,0,60.05,38.37Z"/><path class="cls-5" d="M63.15,43.72l3.07-3.07A9.52,9.52,0,0,0,63.42,39L60.3,42.53l1.5,1.25a1,1,0,0,0,1.35-.06"/><path class="cls-2" d="M63.15,43.72l3.07-3.07A9.52,9.52,0,0,0,63.42,39L60.3,42.53l1.5,1.25A1,1,0,0,0,63.15,43.72Z"/><path class="cls-5" d="M54.5,38.37l2,4.87a1,1,0,0,0,1.48.44l1.72-1.16L56.5,38.37h-2"/><path class="cls-2" d="M54.5,38.37l2,4.87a1,1,0,0,0,1.48.44l1.72-1.16L56.5,38.37h-2Z"/><path class="cls-5" d="M36.5,56.87v17.5a.93.93,0,0,1-1,1H33a1,1,0,0,1-1-1L31.65,63a1.61,1.61,0,0,0-3.21-.07L28.08,74.4a1,1,0,0,1-1,1H24.55a1.08,1.08,0,0,1-1.05-1V56.87Z"/><path class="cls-2" d="M36.5,56.87v17.5a.93.93,0,0,1-1,1H33a1,1,0,0,1-1-1L31.65,63a1.61,1.61,0,0,0-3.21-.07L28.08,74.4a1,1,0,0,1-1,1H24.55a1.08,1.08,0,0,1-1.05-1V56.87Z"/><path class="cls-3" d="M19.5,48.87v8.5a.54.54,0,0,0,.55.5H23.5v-1h13V45.13a3.08,3.08,0,0,1,2.62-3c8.84-1.51,8.42-10.79,8.42-10.79h-4c0,7.5-7,7-7,7H30.05A10.54,10.54,0,0,0,19.5,48.87"/><path class="cls-2" d="M19.5,48.87v8.5a.54.54,0,0,0,.55.5H23.5v-1h13V45.13a3.08,3.08,0,0,1,2.62-3c8.84-1.51,8.42-10.79,8.42-10.79h-4c0,7.5-7,7-7,7H30.05A10.54,10.54,0,0,0,19.5,48.87Z"/><line class="cls-2" x1="23.5" y1="46.37" x2="23.5" y2="56.87"/><path class="cls-3" d="M20,59.62a1.76,1.76,0,0,0,2.32,1.66,1.79,1.79,0,0,0,1.18-1.73V57.87H20Z"/><path class="cls-2" d="M20,59.62a1.76,1.76,0,0,0,2.32,1.66,1.79,1.79,0,0,0,1.18-1.73V57.87H20Z"/><path class="cls-3" d="M30.05,41.37,32,43.31A1,1,0,0,0,33.62,43l1.93-4.62h-2Z"/><path class="cls-2" d="M30.05,41.37,32,43.31A1,1,0,0,0,33.62,43l1.93-4.62h-2Z"/><path class="cls-5" d="M30.05,41.37l-1.86,8.36A2,2,0,0,0,28.31,51l1.28,2.87a.5.5,0,0,0,.91,0L31.78,51a2,2,0,0,0,.12-1.24Z"/><path class="cls-2" d="M30.05,41.37l-1.86,8.36A2,2,0,0,0,28.31,51l1.28,2.87a.5.5,0,0,0,.91,0L31.78,51a2,2,0,0,0,.12-1.24Z"/><path class="cls-3" d="M26.84,38.87a10.62,10.62,0,0,1,3.21-.5h3.5l-3.5,3Z"/><path class="cls-2" d="M26.84,38.87a10.62,10.62,0,0,1,3.21-.5h3.5l-3.5,3Z"/><path class="cls-3" d="M30.05,41.37l-1.8,2.16a1,1,0,0,1-1.48.07L23.7,40.52a10.37,10.37,0,0,1,3.14-1.65l1.52,1.19Z"/><path class="cls-2" d="M30.05,41.37l-1.8,2.16a1,1,0,0,1-1.48.07L23.7,40.52a10.37,10.37,0,0,1,3.14-1.65l1.52,1.19Z"/><path class="cls-3" d="M37.24,27.37a7.2,7.2,0,0,1-14.4,0c0-4.43,2.52-7.8,4.8-7.8,1.83,2.9,9.6-.58,9.6,7.8"/><path class="cls-2" d="M37.24,27.37a7.2,7.2,0,0,1-14.4,0c0-4.43,2.52-7.8,4.8-7.8C29.47,22.47,37.24,19,37.24,27.37Z"/><path class="cls-3" d="M36.05,29.17l-1.21.6L34,26.72a1.2,1.2,0,0,0-1.41-.85,10.78,10.78,0,0,1-5.05,0,1.19,1.19,0,0,0-1.4.85l-.87,3.05-1.19-.6c-1.71,0-1.6,3,.3,3h0a6,6,0,0,0,11.39,0h0c1.89,0,2-3,.3-3"/><path class="cls-2" d="M36.05,29.17l-1.21.6L34,26.72a1.2,1.2,0,0,0-1.41-.85,10.78,10.78,0,0,1-5.05,0,1.19,1.19,0,0,0-1.4.85l-.87,3.05-1.19-.6c-1.71,0-1.6,3,.3,3h0a6,6,0,0,0,11.39,0h0C37.64,32.17,37.76,29.17,36.05,29.17Z"/><path class="cls-4" d="M28.25,28.37a.75.75,0,1,0,.75.75.76.76,0,0,0-.75-.75"/><path class="cls-4" d="M31.75,28.37a.75.75,0,1,0,.75.75.76.76,0,0,0-.75-.75"/><path class="cls-5" d="M27.2,31a.6.6,0,1,1-.6-.6.6.6,0,0,1,.6.6"/><path class="cls-5" d="M34.25,31a.6.6,0,1,1-.6-.6.6.6,0,0,1,.6.6"/><path class="cls-2" d="M28.55,32.92a2.72,2.72,0,0,0,3,0"/><path class="cls-3" d="M48.9,38.3a1,1,0,0,1-1.9.62L35.78,4.71l1.9-.62Z"/><path class="cls-2" d="M48.9,38.3a1,1,0,0,1-1.9.62L35.78,4.71l1.9-.62Z"/><path class="cls-5" d="M50.27,16.8a2,2,0,0,0-2.52-1.28L40.14,18,35.78,4.71l7.6-2.49A2,2,0,0,1,45.91,3.5Z"/><path class="cls-5" d="M45.91,3.5a2,2,0,0,0,2.52,1.27l6.65-2.18a1,1,0,0,1,1.26.64l3.74,11.4a1,1,0,0,1-.64,1.27l-6.65,2.18a2,2,0,0,1-2.52-1.28Z"/><path class="cls-2" d="M50.27,16.8a2,2,0,0,0-2.52-1.28L40.14,18,35.78,4.71l7.6-2.49A2,2,0,0,1,45.91,3.5Z"/><path class="cls-2" d="M45.91,3.5a2,2,0,0,0,2.52,1.27l6.65-2.18a1,1,0,0,1,1.26.64l3.74,11.4a1,1,0,0,1-.64,1.27l-6.65,2.18a2,2,0,0,1-2.52-1.28Z"/><path class="cls-3" d="M38,1.88A2,2,0,1,1,35.48.6,2,2,0,0,1,38,1.88"/><path class="cls-2" d="M38,1.88A2,2,0,1,1,35.48.6,2,2,0,0,1,38,1.88Z"/><path class="cls-3" d="M44.54,27.45a2.31,2.31,0,0,0-1.22,3.24,2.42,2.42,0,0,0,3,1l.55-.21a1.53,1.53,0,0,0,.91-1.94l-.5-1.45a1.54,1.54,0,0,0-2-.93Z"/><path class="cls-2" d="M44.54,27.45a2.31,2.31,0,0,0-1.22,3.24,2.42,2.42,0,0,0,3,1l.55-.21a1.53,1.53,0,0,0,.91-1.94l-.5-1.45a1.54,1.54,0,0,0-2-.93Z"/><path class="cls-3" d="M46,29.47a2.31,2.31,0,0,1,2,2.85A2.41,2.41,0,0,1,45.32,34L44.73,34a1.53,1.53,0,0,1-1.34-1.67l.15-1.53a1.53,1.53,0,0,1,1.7-1.37Z"/><path class="cls-2" d="M46,29.47a2.31,2.31,0,0,1,2,2.85A2.41,2.41,0,0,1,45.32,34L44.73,34a1.53,1.53,0,0,1-1.34-1.67l.15-1.53a1.53,1.53,0,0,1,1.7-1.37Z"/><path class="cls-3" d="M69.09,10.12a6.33,6.33,0,0,1-5.2,3L62.05,9.82a6.36,6.36,0,0,0,5.2-2.95Z"/><path class="cls-2" d="M69.09,10.12a6.33,6.33,0,0,1-5.2,3L62.05,9.82a6.36,6.36,0,0,0,5.2-2.95Z"/><path class="cls-3" d="M48,51.33a6.36,6.36,0,0,1-.73,5.93l-3.71-.45a6.39,6.39,0,0,0,.73-5.94Z"/><path class="cls-2" d="M48,51.33a6.36,6.36,0,0,1-.73,5.93l-3.71-.45a6.39,6.39,0,0,0,.73-5.94Z"/><path class="cls-3" d="M26,16a6.37,6.37,0,0,1-1.26-5.84l3.66-.79a6.33,6.33,0,0,0,1.26,5.85Z"/><path class="cls-2" d="M26,16a6.37,6.37,0,0,1-1.26-5.84l3.66-.79a6.33,6.33,0,0,0,1.26,5.85Z"/><path class="cls-3" d="M80.39,64.87A6.39,6.39,0,0,1,79.13,59l3.66-.78a6.32,6.32,0,0,0,1.26,5.84Z"/><path class="cls-2" d="M80.39,64.87A6.39,6.39,0,0,1,79.13,59l3.66-.78a6.32,6.32,0,0,0,1.26,5.84Z"/><path class="cls-3" d="M10.46,54.37a6.37,6.37,0,0,1,3.59,4.79l-3,2.24a6.37,6.37,0,0,0-3.59-4.79Z"/><path class="cls-2" d="M10.46,54.37a6.37,6.37,0,0,1,3.59,4.79l-3,2.24a6.37,6.37,0,0,0-3.59-4.79Z"/><path class="cls-3" d="M78.14,45.87a6.35,6.35,0,0,0-3.59,4.79l3,2.24a6.35,6.35,0,0,1,3.59-4.79Z"/><path class="cls-2" d="M78.14,45.87a6.35,6.35,0,0,0-3.59,4.79l3,2.24a6.35,6.35,0,0,1,3.59-4.79Z"/><path class="cls-3" d="M16.85,26.09a6.33,6.33,0,0,1-6,.56l-.35-3.72a6.36,6.36,0,0,0,5.95-.56Z"/><path class="cls-2" d="M16.85,26.09a6.33,6.33,0,0,1-6,.56l-.35-3.72a6.36,6.36,0,0,0,5.95-.56Z"/><path class="cls-3" d="M82.85,36.59a6.33,6.33,0,0,1-5.95.56l-.35-3.72a6.36,6.36,0,0,0,6-.56Z"/><path class="cls-2" d="M82.85,36.59a6.33,6.33,0,0,1-5.95.56l-.35-3.72a6.36,6.36,0,0,0,6-.56Z"/><path class="cls-3" d="M80.35,22.8a6.37,6.37,0,0,1-5.67-1.93l1.2-3.54a6.37,6.37,0,0,0,5.67,1.93Z"/><path class="cls-2" d="M80.35,22.8a6.37,6.37,0,0,1-5.67-1.93l1.2-3.54a6.37,6.37,0,0,0,5.67,1.93Z"/><path class="cls-3" d="M7.55,42a6.33,6.33,0,0,1,3.88-4.56l2.84,2.43a6.37,6.37,0,0,0-3.88,4.55Z"/><path class="cls-2" d="M7.55,42a6.33,6.33,0,0,1,3.88-4.56l2.84,2.43a6.37,6.37,0,0,0-3.88,4.55Z"/><path class="cls-1" d="M17.05,75.87c0,.83,5.82,1.5,13,1.5s13-.67,13-1.5-5.82-1.5-13-1.5-13,.67-13,1.5"/><path class="cls-3" d="M23.32,75.37a1,1,0,0,1-.9-1.45,3,3,0,0,1,2.63-1.55h.5a3,3,0,0,1,2.62,1.55,1,1,0,0,1-.89,1.45Z"/><path class="cls-2" d="M23.32,75.37a1,1,0,0,1-.9-1.45,3,3,0,0,1,2.63-1.55h.5a3,3,0,0,1,2.62,1.55,1,1,0,0,1-.89,1.45Z"/><path class="cls-3" d="M32.82,75.37a1,1,0,0,1-.9-1.45,3,3,0,0,1,2.63-1.55h.5a3,3,0,0,1,2.62,1.55,1,1,0,0,1-.89,1.45Z"/><path class="cls-2" d="M32.82,75.37a1,1,0,0,1-.9-1.45,3,3,0,0,1,2.63-1.55h.5a3,3,0,0,1,2.62,1.55,1,1,0,0,1-.89,1.45Z"/></g></g></svg>