<svg xmlns="http://www.w3.org/2000/svg" viewBox="0 0 88.95 72.78"><defs><style>.cls-1{fill:#f2fafa;}.cls-2{fill:none;stroke:#1c184e;stroke-linecap:round;stroke-linejoin:round;}.cls-3{fill:#fff;}.cls-4{fill:#e9f6f6;}.cls-5{fill:#1c184e;}</style></defs><title>Resurs 75</title><g id="Lager_2" data-name="Lager 2"><g id="Layer_1" data-name="Layer 1"><path class="cls-1" d="M84,40A40,40,0,1,0,7.56,56.5H80.44A39.88,39.88,0,0,0,84,40"/><line class="cls-2" x1="5" y1="56.5" x2="83" y2="56.5"/><line class="cls-2" x1="0.5" y1="56.5" x2="3" y2="56.5"/><line class="cls-2" x1="85" y1="56.5" x2="87.5" y2="56.5"/><path class="cls-3" d="M43.93,56.5H34.3V31a1,1,0,0,1,1-1h8.63Z"/><path class="cls-2" d="M43.93,56.5H34.3V31a1,1,0,0,1,1-1h8.63Z"/><path class="cls-3" d="M88.45,41.46a1.81,1.81,0,0,1-1.8,1.8h-15V39.65h15a1.81,1.81,0,0,1,1.8,1.81"/><path class="cls-2" d="M88.45,41.46a1.81,1.81,0,0,1-1.8,1.8h-15V39.65h15A1.81,1.81,0,0,1,88.45,41.46Z"/><polygon class="cls-3" points="79.43 56.5 82.44 56.5 84.84 43.26 81.83 43.26 79.43 56.5"/><polygon class="cls-2" points="79.43 56.5 82.44 56.5 84.84 43.26 81.83 43.26 79.43 56.5"/><path class="cls-3" d="M71.61,56.5H43.93V13a1,1,0,0,1,1-1H70.61a1,1,0,0,1,1,1Z"/><path class="cls-2" d="M71.61,56.5H43.93V13a1,1,0,0,1,1-1H70.61a1,1,0,0,1,1,1Z"/><rect class="cls-3" x="42.72" y="28.22" width="30.08" height="3.01" rx="1" ry="1"/><rect class="cls-2" x="42.72" y="28.22" width="30.08" height="3.01" rx="1" ry="1"/><path class="cls-3" d="M72.81,15H42.72V13a1,1,0,0,1,1-1H71.81a1,1,0,0,1,1,1Z"/><path class="cls-2" d="M72.81,15H42.72V13a1,1,0,0,1,1-1H71.81a1,1,0,0,1,1,1Z"/><rect class="cls-3" x="50.55" y="2.35" width="14.44" height="14.44" rx="2" ry="2"/><rect class="cls-2" x="50.55" y="2.35" width="14.44" height="14.44" rx="2" ry="2"/><path class="cls-4" d="M61.58,7.76h-2v-2a1,1,0,0,0-1-1H57a1,1,0,0,0-1,1v2H54a1,1,0,0,0-1,1v1.61a1,1,0,0,0,1,1h2v2a1,1,0,0,0,1,1h1.61a1,1,0,0,0,1-1v-2h2a1,1,0,0,0,1-1V8.76a1,1,0,0,0-1-1"/><path class="cls-2" d="M61.58,7.76h-2v-2a1,1,0,0,0-1-1H57a1,1,0,0,0-1,1v2H54a1,1,0,0,0-1,1v1.61a1,1,0,0,0,1,1h2v2a1,1,0,0,0,1,1h1.61a1,1,0,0,0,1-1v-2h2a1,1,0,0,0,1-1V8.76A1,1,0,0,0,61.58,7.76Z"/><path class="cls-4" d="M64.38,56.5H51.15V44.26a1,1,0,0,1,1-1H63.38a1,1,0,0,1,1,1Z"/><path class="cls-3" d="M63.67,43.3a1.27,1.27,0,0,0-.29,0H52.15a1,1,0,0,0-1,1V55.83Z"/><path class="cls-2" d="M64.38,56.5H51.15V44.26a1,1,0,0,1,1-1H63.38a1,1,0,0,1,1,1Z"/><line class="cls-2" x1="57.77" y1="43.26" x2="57.77" y2="56.5"/><rect class="cls-4" x="47.54" y="19.8" width="4.81" height="5.41" rx="1" ry="1"/><path class="cls-3" d="M52,20a1,1,0,0,0-.64-.22H48.54a1,1,0,0,0-1,1v3.41a.85.85,0,0,0,0,.23Z"/><rect class="cls-2" x="47.54" y="19.8" width="4.81" height="5.41" rx="1" ry="1"/><rect class="cls-4" x="55.36" y="19.8" width="4.81" height="5.41" rx="1" ry="1"/><path class="cls-3" d="M59.81,20a1,1,0,0,0-.64-.22H56.36a1,1,0,0,0-1,1v3.41a.85.85,0,0,0,0,.23Z"/><rect class="cls-2" x="55.36" y="19.8" width="4.81" height="5.41" rx="1" ry="1"/><rect class="cls-4" x="63.18" y="19.8" width="4.81" height="5.41" rx="1" ry="1"/><path class="cls-3" d="M67.63,20A1,1,0,0,0,67,19.8H64.18a1,1,0,0,0-1,1v3.41a.85.85,0,0,0,0,.23Z"/><rect class="cls-2" x="63.18" y="19.8" width="4.81" height="5.41" rx="1" ry="1"/><rect class="cls-4" x="63.18" y="34.24" width="4.81" height="5.41" rx="1" ry="1"/><path class="cls-3" d="M67.63,34.46a1,1,0,0,0-.63-.22H64.18a1,1,0,0,0-1,1v3.41a.85.85,0,0,0,0,.23Z"/><rect class="cls-2" x="63.18" y="34.24" width="4.81" height="5.41" rx="1" ry="1"/><rect class="cls-4" x="55.36" y="34.24" width="4.81" height="5.41" rx="1" ry="1"/><path class="cls-3" d="M59.81,34.46a1,1,0,0,0-.64-.22H56.36a1,1,0,0,0-1,1v3.41a.85.85,0,0,0,0,.23Z"/><rect class="cls-2" x="55.36" y="34.24" width="4.81" height="5.41" rx="1" ry="1"/><rect class="cls-4" x="47.54" y="34.24" width="4.81" height="5.41" rx="1" ry="1"/><path class="cls-3" d="M52,34.46a1,1,0,0,0-.64-.22H48.54a1,1,0,0,0-1,1v3.41a.85.85,0,0,0,0,.23Z"/><rect class="cls-2" x="47.54" y="34.24" width="4.81" height="5.41" rx="1" ry="1"/><rect class="cls-4" x="36.71" y="34.24" width="4.81" height="5.41" rx="1" ry="1"/><path class="cls-3" d="M41.16,34.46a1,1,0,0,0-.64-.22H37.71a1,1,0,0,0-1,1v3.41a.85.85,0,0,0,0,.23Z"/><rect class="cls-2" x="36.71" y="34.24" width="4.81" height="5.41" rx="1" ry="1"/><rect class="cls-4" x="36.71" y="43.26" width="4.81" height="5.41" rx="1" ry="1"/><path class="cls-3" d="M41.16,43.49a1,1,0,0,0-.64-.23H37.71a1,1,0,0,0-1,1v3.42a.91.91,0,0,0,0,.23Z"/><rect class="cls-2" x="36.71" y="43.26" width="4.81" height="5.41" rx="1" ry="1"/><path class="cls-1" d="M38.39,71.05c0,1-4.89,1.73-10.92,1.73S16.54,72,16.54,71.05s4.89-1.72,10.93-1.72,10.92.77,10.92,1.72"/><path class="cls-3" d="M37.85,37.38a10.35,10.35,0,1,0-20.7,0V38a5.17,5.17,0,0,0,5.18,5.17H37.86c0-6.27,0-.5,0-5.75"/><path class="cls-2" d="M37.85,37.38a10.35,10.35,0,1,0-20.7,0V38a5.17,5.17,0,0,0,5.18,5.17H37.86C37.86,36.86,37.85,42.63,37.85,37.38Z"/><path class="cls-4" d="M37.85,37.38a10.34,10.34,0,0,0-7.48-9.94,2.9,2.9,0,0,1-5.73,0,10.35,10.35,0,0,0-7.49,9.94V38a5.17,5.17,0,0,0,5.18,5.17H37.86c0-6.27,0-.5,0-5.75"/><path class="cls-2" d="M37.85,37.38a10.34,10.34,0,0,0-7.48-9.94,2.9,2.9,0,0,1-5.73,0,10.35,10.35,0,0,0-7.49,9.94V38a5.17,5.17,0,0,0,5.18,5.17H37.86C37.86,36.86,37.85,42.63,37.85,37.38Z"/><path class="cls-3" d="M37.86,39.68h0v-2.3a10.35,10.35,0,0,0-6.6-9.64L27.5,44.28,23.76,27.74a10.35,10.35,0,0,0-6.61,9.64V39a8.09,8.09,0,0,0,3.43,6.63h0L18.45,64.28a1.17,1.17,0,0,0,1.14,1.28H35.41a1.14,1.14,0,0,0,.86-.39,1.12,1.12,0,0,0,.29-.89L34.93,50h2.92c0-5.78,0-8.76,0-10.35"/><path class="cls-2" d="M37.86,39.68h0v-2.3a10.35,10.35,0,0,0-6.6-9.64L27.5,44.28,23.76,27.74a10.35,10.35,0,0,0-6.61,9.64V39a8.09,8.09,0,0,0,3.43,6.63h0L18.45,64.28a1.17,1.17,0,0,0,1.14,1.28H35.41a1.14,1.14,0,0,0,.86-.39,1.12,1.12,0,0,0,.29-.89L34.93,50h2.92C37.85,44.25,37.86,41.27,37.86,39.68Z"/><line class="cls-2" x1="27.5" y1="44.28" x2="27.5" y2="65.56"/><path class="cls-4" d="M27.5,69.35a1.37,1.37,0,0,1-1.37,1.38H23.06A1.38,1.38,0,0,1,21.72,69l1-3.46H27.5Z"/><path class="cls-2" d="M27.5,69.35a1.37,1.37,0,0,1-1.37,1.38H23.06A1.38,1.38,0,0,1,21.72,69l1-3.46H27.5Z"/><path class="cls-3" d="M26.93,66.25a2.07,2.07,0,0,1-4.14,0v-.69h4.14Z"/><path class="cls-2" d="M26.93,66.25a2.07,2.07,0,0,1-4.14,0v-.69h4.14Z"/><path class="cls-4" d="M27.5,69.35a1.38,1.38,0,0,0,1.38,1.38H32A1.38,1.38,0,0,0,33.29,69l-1-3.46H27.5Z"/><path class="cls-2" d="M27.5,69.35a1.38,1.38,0,0,0,1.38,1.38H32A1.38,1.38,0,0,0,33.29,69l-1-3.46H27.5Z"/><path class="cls-3" d="M28.08,66.25a2.07,2.07,0,0,0,4.14,0v-.69H28.08Z"/><path class="cls-2" d="M28.08,66.25a2.07,2.07,0,0,0,4.14,0v-.69H28.08Z"/><path class="cls-3" d="M32.33,33.47l2.08-2.07-.37-2a0,0,0,0,1,0,0,10.55,10.55,0,0,0-2.8-1.62h0L27.51,44.26,33,35.54Z"/><path class="cls-2" d="M32.33,33.47l2.08-2.07-.37-2a0,0,0,0,1,0,0,10.55,10.55,0,0,0-2.8-1.62h0L27.51,44.26,33,35.54Z"/><path class="cls-3" d="M22.67,33.47,20.6,31.4l.36-2v0a10.55,10.55,0,0,1,2.8-1.62h0L27.5,44.26,22,35.54Z"/><path class="cls-2" d="M22.67,33.47,20.6,31.4l.36-2v0a10.55,10.55,0,0,1,2.8-1.62h0L27.5,44.26,22,35.54Z"/><path class="cls-3" d="M28.13,49.83l-6.82-1.42a1,1,0,0,1-.78-1.19L22.66,37a1,1,0,0,1,1.18-.77l6.83,1.42a1,1,0,0,1,.77,1.18l-2.13,10.2a1,1,0,0,1-1.18.78"/><rect class="cls-2" x="19.78" y="38.55" width="12.42" height="8.97" rx="1" ry="1" transform="translate(-21.45 59.69) rotate(-78.22)"/><path class="cls-3" d="M37.85,52a2,2,0,1,1-4,0V50h4Z"/><path class="cls-2" d="M37.85,52a2,2,0,1,1-4,0V50h4Z"/><path class="cls-3" d="M28.94,43.13a2,2,0,1,1,0,4h-2v-4Z"/><path class="cls-2" d="M28.94,43.13a2,2,0,1,1,0,4h-2v-4Z"/><line class="cls-2" x1="33.83" y1="50.03" x2="33.83" y2="37.61"/><path class="cls-3" d="M17.15,37.61V39a8.18,8.18,0,0,0,8.28,8.17h1.5v-4h-1.5A4.24,4.24,0,0,1,21.18,39V37.61"/><path class="cls-2" d="M17.15,37.61V39a8.18,8.18,0,0,0,8.28,8.17h1.5v-4h-1.5A4.24,4.24,0,0,1,21.18,39V37.61"/><path class="cls-3" d="M37.64,15.5a2.12,2.12,0,0,0,.14-.75,2.07,2.07,0,0,0-2.07-2.07h-.12a8.18,8.18,0,0,0-16.17,0H19.3a2.07,2.07,0,0,0-2.07,2.07,2.12,2.12,0,0,0,.14.75A2.76,2.76,0,0,0,17.92,21a2.58,2.58,0,0,0,.4,0,2.76,2.76,0,1,0,5.06,2,6.52,6.52,0,0,0,8.25,0,2.76,2.76,0,1,0,5.06-2,2.58,2.58,0,0,0,.4,0,2.76,2.76,0,0,0,.55-5.46"/><path class="cls-2" d="M37.64,15.5a2.12,2.12,0,0,0,.14-.75,2.07,2.07,0,0,0-2.07-2.07h-.12a8.18,8.18,0,0,0-16.17,0H19.3a2.07,2.07,0,0,0-2.07,2.07,2.12,2.12,0,0,0,.14.75A2.76,2.76,0,0,0,17.92,21a2.58,2.58,0,0,0,.4,0,2.76,2.76,0,1,0,5.06,2,6.52,6.52,0,0,0,8.25,0,2.76,2.76,0,1,0,5.06-2,2.58,2.58,0,0,0,.4,0,2.76,2.76,0,0,0,.55-5.46Z"/><path class="cls-3" d="M34.41,15.53a6.7,6.7,0,0,0-.29-1.86,6.9,6.9,0,0,1-9.53-1.81,4.89,4.89,0,0,1-4,3.67v.92a1.41,1.41,0,0,0,.15,2.79,6.9,6.9,0,0,0,13.51,0,1.41,1.41,0,0,0,.15-2.79Z"/><path class="cls-2" d="M34.41,15.53a6.7,6.7,0,0,0-.29-1.86,6.9,6.9,0,0,1-9.53-1.81,4.89,4.89,0,0,1-4,3.67v.92a1.41,1.41,0,0,0,.15,2.79,6.9,6.9,0,0,0,13.51,0,1.41,1.41,0,0,0,.15-2.79Z"/><path class="cls-4" d="M24.63,18.7a.87.87,0,1,1-.86-.87.87.87,0,0,1,.86.87"/><path class="cls-4" d="M32.1,18.7a.86.86,0,1,1-.86-.87.86.86,0,0,1,.86.87"/><path class="cls-2" d="M29.23,20.71a2.9,2.9,0,0,1-3.45,0"/><path class="cls-5" d="M24.92,15.53a.87.87,0,1,0,.86.86.87.87,0,0,0-.86-.86"/><path class="cls-5" d="M30.09,15.53a.87.87,0,1,0,.87.86.87.87,0,0,0-.87-.86"/></g></g></svg>