<?xml version="1.0" encoding="utf-8"?>
<!-- Generator: Adobe Illustrator 22.0.0, SVG Export Plug-In . SVG Version: 6.00 Build 0)  -->
<svg version="1.1" id="Layer_1" xmlns="http://www.w3.org/2000/svg" xmlns:xlink="http://www.w3.org/1999/xlink" x="0px" y="0px"
	 viewBox="0 0 88 63.2" style="enable-background:new 0 0 88 63.2;" xml:space="preserve">
<style type="text/css">
	.st0{fill:#F2FAFA;}
	.st1{fill:none;stroke:#1C184E;stroke-linecap:round;stroke-linejoin:round;}
	.st2{fill:#FFFFFF;stroke:#1C184E;stroke-linejoin:round;}
	.st3{fill:#E9F6F6;}
</style>
<title>Resurs 18</title>
<g id="Lager_2">
	<g id="Scene">
		<path class="st0" d="M84.5,40c0-22.1-17.9-40-40-40s-40,17.9-40,40c0,5.7,1.2,11.3,3.6,16.5h72.9C83.3,51.3,84.5,45.7,84.5,40z"/>
		<line class="st1" x1="5" y1="56.5" x2="83" y2="56.5"/>
		<line class="st1" x1="0.5" y1="56.5" x2="3" y2="56.5"/>
		<line class="st1" x1="85" y1="56.5" x2="87.5" y2="56.5"/>
		<g>
			<path class="st2" d="M64.9,40.2c0,2.2-1.7,3.9-3.9,3.9H47.8l-8.5,7.6c-0.6,0.5-1.5,0.5-2-0.1C37.1,51.4,37,51,37,50.7v-6.6h-8.8
				c-2.1,0-3.9-1.7-3.9-3.9V14.8c0-2.2,1.8-3.9,3.9-3.9H61c2.2,0,3.9,1.7,3.9,3.9V40.2z"/>
			<path class="st3" d="M44.7,38.6c0.3,0.2,0.7,0.2,0.9,0c9.6-6.6,11.5-10,11.4-14.5l0,0C57,22,56,20.1,54.2,18.8l0,0
				c-4.4-3.3-7.7,1.4-9.1,2.9c-0.9-1.1-4.5-6.3-9.1-2.9l0,0c-1.7,1.2-2.8,3.2-2.8,5.3l0,0C33.2,28.6,35.1,32,44.7,38.6z"/>
			<path class="st1" d="M44.7,38.6c0.3,0.2,0.7,0.2,0.9,0c9.6-6.6,11.5-10,11.4-14.5l0,0C57,22,56,20.1,54.2,18.8l0,0
				c-4.4-3.3-7.7,1.4-9.1,2.9c-0.9-1.1-4.5-6.3-9.1-2.9l0,0c-1.7,1.2-2.8,3.2-2.8,5.3l0,0C33.2,28.6,35.1,32,44.7,38.6z"/>
		</g>
	</g>
</g>
</svg>
