<svg xmlns="http://www.w3.org/2000/svg" viewBox="0 0 80 80"><defs><style>.cls-1{fill:#f2fafa;}.cls-2{fill:#e9f6f6;}.cls-3{fill:#fff;}.cls-4,.cls-5,.cls-6{fill:none;stroke:#1c184e;}.cls-4{stroke-linecap:round;}.cls-4,.cls-6{stroke-linejoin:round;}.cls-5{stroke-miterlimit:10;}</style></defs><title>Resurs 28</title><g id="Lager_2" data-name="Lager 2"><g id="Layer_1" data-name="Layer 1"><path class="cls-1" d="M80,40A40,40,0,1,1,40,0,40,40,0,0,1,80,40"/><path class="cls-2" d="M54.2,71.25c0,.82-6.72,1.5-15,1.5s-15-.68-15-1.5,6.72-1.5,15-1.5,15,.67,15,1.5"/><path class="cls-3" d="M46.57,23.2a7.37,7.37,0,1,0-12.81,5,7.75,7.75,0,0,1,2,5.23h6.8a7.75,7.75,0,0,1,2-5.23,7.32,7.32,0,0,0,1.93-5"/><path class="cls-2" d="M42.6,35.67a3.4,3.4,0,1,1-6.8,0Z"/><path class="cls-4" d="M42.6,35.67a3.4,3.4,0,1,1-6.8,0Z"/><rect class="cls-2" x="35.8" y="33.4" width="6.8" height="2.27"/><rect class="cls-4" x="35.8" y="33.4" width="6.8" height="2.27"/><path class="cls-4" d="M46.57,23.2a7.37,7.37,0,1,0-12.81,5,7.75,7.75,0,0,1,2,5.23h6.8a7.75,7.75,0,0,1,2-5.23A7.32,7.32,0,0,0,46.57,23.2Z"/><path class="cls-2" d="M51.11,23.7a1.14,1.14,0,1,1,0-2.27h2.27a1.14,1.14,0,0,1,0,2.27Z"/><path class="cls-5" d="M51.11,23.7a1.14,1.14,0,1,1,0-2.27h2.27a1.14,1.14,0,0,1,0,2.27Z"/><path class="cls-2" d="M48.42,15a1.13,1.13,0,0,1-1.6,0,1.15,1.15,0,0,1,0-1.61l1.6-1.6a1.13,1.13,0,0,1,1.6,0,1.12,1.12,0,0,1,0,1.6Z"/><path class="cls-5" d="M48.42,15a1.13,1.13,0,0,1-1.6,0,1.15,1.15,0,0,1,0-1.61l1.6-1.6a1.13,1.13,0,0,1,1.6,0,1.12,1.12,0,0,1,0,1.6Z"/><path class="cls-2" d="M27.29,23.7a1.14,1.14,0,1,0,0-2.27H25a1.14,1.14,0,1,0,0,2.27Z"/><path class="cls-5" d="M27.29,23.7a1.14,1.14,0,1,0,0-2.27H25a1.14,1.14,0,1,0,0,2.27Z"/><path class="cls-2" d="M30,15a1.13,1.13,0,1,0,1.6-1.61L30,11.74a1.15,1.15,0,0,0-1.61,0,1.13,1.13,0,0,0,0,1.6Z"/><path class="cls-5" d="M30,15a1.13,1.13,0,1,0,1.6-1.61L30,11.74a1.15,1.15,0,0,0-1.61,0,1.13,1.13,0,0,0,0,1.6Z"/><path class="cls-2" d="M40.33,10.66a1.13,1.13,0,1,1-2.26,0V8.39a1.13,1.13,0,1,1,2.26,0Z"/><path class="cls-5" d="M40.33,10.66a1.13,1.13,0,1,1-2.26,0V8.39a1.13,1.13,0,1,1,2.26,0Z"/><path class="cls-2" d="M18.38,42.52A19.6,19.6,0,0,1,21.54,31a1.6,1.6,0,0,1,2.67,1.76,16.65,16.65,0,0,0-2.64,9.46,1.6,1.6,0,0,1-3.19.33"/><path class="cls-5" d="M18.38,42.52A19.6,19.6,0,0,1,21.54,31a1.6,1.6,0,0,1,2.67,1.76,16.65,16.65,0,0,0-2.64,9.46,1.6,1.6,0,0,1-3.19.33Z"/><path class="cls-3" d="M31.22,55a5.89,5.89,0,0,1,.14-3.14c2.12-6.36-.11-10.84-1.25-14a1.6,1.6,0,0,0-2.05-1,1.62,1.62,0,0,0-1,2c3.93,12.45-7,7.33-7.09-3.12,0-1.31,0-5.81,0-6.16a1.6,1.6,0,0,0-3.2,0c0,.36,0,4.82,0,6.09C16.63,43.71,22,49.05,22,55Z"/><path class="cls-2" d="M32.82,58.15v4a.8.8,0,0,1-.8.8H21.22a.8.8,0,0,1-.8-.8v-4a.8.8,0,0,1,.8-.8H32a.8.8,0,0,1,.8.8"/><rect class="cls-6" x="20.42" y="57.35" width="12.4" height="5.6" rx="0.8" ry="0.8"/><path class="cls-3" d="M32,57.35v-1.6a.8.8,0,0,0-.8-.8H22a.8.8,0,0,0-.8.8v1.6Z"/><path class="cls-4" d="M32,57.35v-1.6a.8.8,0,0,0-.8-.8H22a.8.8,0,0,0-.8.8v1.6Z"/><path class="cls-4" d="M31.22,55a5.89,5.89,0,0,1,.14-3.14c2.12-6.36-.11-10.84-1.25-14a1.6,1.6,0,0,0-2.05-1,1.62,1.62,0,0,0-1,2c3.93,12.45-7,7.33-7.09-3.12,0-1.31,0-5.81,0-6.16a1.6,1.6,0,0,0-3.2,0c0,.36,0,4.82,0,6.09C16.63,43.71,22,49.05,22,55Z"/><path class="cls-2" d="M60,42.52A19.6,19.6,0,0,0,56.86,31a1.6,1.6,0,0,0-2.67,1.76,16.65,16.65,0,0,1,2.64,9.46,1.6,1.6,0,0,0,3.19.33"/><path class="cls-5" d="M60,42.52A19.6,19.6,0,0,0,56.86,31a1.6,1.6,0,0,0-2.67,1.76,16.65,16.65,0,0,1,2.64,9.46,1.6,1.6,0,0,0,3.19.33Z"/><path class="cls-3" d="M47.18,55A5.89,5.89,0,0,0,47,51.81c-2.12-6.36.11-10.84,1.25-14a1.6,1.6,0,0,1,2.05-1,1.62,1.62,0,0,1,1,2c-3.93,12.45,7,7.33,7.09-3.12,0-1.31,0-5.81,0-6.16a1.6,1.6,0,0,1,3.2,0c0,.36,0,4.82,0,6.09.18,8-5.16,13.31-5.21,19.21Z"/><path class="cls-2" d="M45.58,58.15v4a.8.8,0,0,0,.8.8h10.8a.8.8,0,0,0,.8-.8v-4a.8.8,0,0,0-.8-.8H46.38a.8.8,0,0,0-.8.8"/><rect class="cls-6" x="45.58" y="57.35" width="12.4" height="5.6" rx="0.8" ry="0.8"/><path class="cls-3" d="M46.38,57.35v-1.6a.8.8,0,0,1,.8-.8h9.2a.8.8,0,0,1,.8.8v1.6Z"/><path class="cls-4" d="M46.38,57.35v-1.6a.8.8,0,0,1,.8-.8h9.2a.8.8,0,0,1,.8.8v1.6Z"/><path class="cls-4" d="M47.18,55A5.89,5.89,0,0,0,47,51.81c-2.12-6.36.11-10.84,1.25-14a1.6,1.6,0,0,1,2.05-1,1.62,1.62,0,0,1,1,2c-3.93,12.45,7,7.33,7.09-3.12,0-1.31,0-5.81,0-6.16a1.6,1.6,0,0,1,3.2,0c0,.36,0,4.82,0,6.09.18,8-5.16,13.31-5.21,19.21Z"/></g></g></svg>