<svg xmlns="http://www.w3.org/2000/svg" xmlns:xlink="http://www.w3.org/1999/xlink" viewBox="0 0 88 67.5"><defs><style>.cls-1,.cls-3{fill:none;}.cls-2{fill:#f2fafa;}.cls-3{stroke:#1c184e;stroke-linecap:round;stroke-linejoin:round;}.cls-4{fill:#fff;}.cls-5{fill:#e9f6f6;}.cls-6{clip-path:url(#clip-path);}</style><clipPath id="clip-path"><path class="cls-1" d="M4,40A40,40,0,1,0,44,0,40,40,0,0,0,4,40"/></clipPath></defs><title>Resurs 38</title><g id="Lager_2" data-name="Lager 2"><g id="Layer_1" data-name="Layer 1"><path class="cls-2" d="M84,40A40,40,0,1,0,14.53,67H73.47A39.71,39.71,0,0,0,84,40"/><line class="cls-3" x1="5" y1="67" x2="83" y2="67"/><line class="cls-3" x1="0.5" y1="67" x2="3" y2="67"/><line class="cls-3" x1="85" y1="67" x2="87.5" y2="67"/><rect class="cls-4" x="53" y="56" width="5.5" height="11"/><rect class="cls-3" x="53" y="56" width="5.5" height="11"/><path class="cls-4" d="M47.5,37.87V34.45h-7v3.42A15.48,15.48,0,0,0,28.5,53v3h6V67H53V56h6.5V53a15.48,15.48,0,0,0-12-15.08"/><path class="cls-3" d="M47.5,37.87V34.45h-7v3.42A15.48,15.48,0,0,0,28.5,53v3h6V67H53V56h6.5V53A15.48,15.48,0,0,0,47.5,37.87Z"/><rect class="cls-4" x="29.5" y="59" width="5" height="8"/><rect class="cls-3" x="29.5" y="59" width="5" height="8"/><path class="cls-5" d="M44,44.87V67H34.5V56h-6V53c0-.23,0-.46,0-.68A15.47,15.47,0,0,1,37.33,39l4.17,2.44Z"/><path class="cls-3" d="M44,44.87V67H34.5V56h-6V53c0-.23,0-.46,0-.68A15.47,15.47,0,0,1,37.33,39l4.17,2.44Z"/><path class="cls-5" d="M59.5,52.92V56H53V67H44V44.87l2-3.45L50.66,39a15.46,15.46,0,0,1,8.84,14"/><path class="cls-3" d="M59.5,52.92V56H53V67H44V44.87l2-3.45L50.66,39A15.46,15.46,0,0,1,59.5,52.92Z"/><path class="cls-3" d="M53,56V53.6a8.77,8.77,0,0,1,1-4.06"/><path class="cls-3" d="M34.5,56V53.62a8.79,8.79,0,0,0-1-4.08"/><path class="cls-5" d="M34.5,59h-6a.5.5,0,0,1-.5-.5v-2a.5.5,0,0,1,.5-.5h6a.5.5,0,0,1,.5.5v2a.5.5,0,0,1-.5.5"/><rect class="cls-3" x="28" y="56" width="7" height="3" rx="0.5" ry="0.5"/><path class="cls-5" d="M41.5,41.42,40,44.55c-.88,1.77-4-1.07-5.61-3A1,1,0,0,1,34.75,40l2.58-1Z"/><path class="cls-3" d="M41.5,41.42,40,44.55c-.88,1.77-4-1.07-5.61-3A1,1,0,0,1,34.75,40l2.58-1Z"/><path class="cls-5" d="M46,41.42l2,4,.77-.38A13.55,13.55,0,0,0,54,40.45L50.7,39Z"/><path class="cls-3" d="M46,41.42l2,4,.77-.38A13.55,13.55,0,0,0,54,40.45L50.7,39Z"/><rect class="cls-4" x="34.5" y="62" width="18.5" height="3"/><rect class="cls-3" x="34.5" y="62" width="18.5" height="3"/><path class="cls-4" d="M47.5,36l4.43,2.49a7,7,0,0,1,2.62,9.65,12.39,12.39,0,0,0-1.32,9.26l.27,1.1-1.82-1.18a12.78,12.78,0,0,1-5.21-14.6l1-3.22Z"/><path class="cls-4" d="M54,24v-2.5a10,10,0,0,0-20,0V24a2,2,0,0,0,0,4h.12a10,10,0,0,0,19.76,0H54a2,2,0,0,0,0-4"/><path class="cls-3" d="M54,24v-2.5a10,10,0,0,0-20,0V24a2,2,0,0,0,0,4h.12a10,10,0,0,0,19.76,0H54a2,2,0,0,0,0-4Z"/><path class="cls-5" d="M39.5,28.2A1.25,1.25,0,1,1,38.25,27,1.25,1.25,0,0,1,39.5,28.2"/><path class="cls-5" d="M48.5,28.2A1.25,1.25,0,1,0,49.75,27,1.25,1.25,0,0,0,48.5,28.2"/><path class="cls-3" d="M41,30.74a4.36,4.36,0,0,0,6,0"/><path class="cls-3" d="M49.5,25a1.63,1.63,0,0,0-3,0"/><path class="cls-3" d="M41.49,25a1.63,1.63,0,0,0-3,0"/><path class="cls-3" d="M47.5,36l4.43,2.49a7,7,0,0,1,2.62,9.65,12.39,12.39,0,0,0-1.32,9.26l.27,1.1-1.82-1.18a12.78,12.78,0,0,1-5.21-14.6l1-3.22Z"/><path class="cls-4" d="M41.5,10.45A11.35,11.35,0,0,0,32,22v4a2,2,0,0,1,2-2c0-6,7-8.5,8-8.5h2.5v-5Z"/><path class="cls-3" d="M41.5,10.45A11.35,11.35,0,0,0,32,22v4a2,2,0,0,1,2-2c0-6,7-8.5,8-8.5h2.5v-5Z"/><path class="cls-4" d="M43,16.2A4.07,4.07,0,0,1,41.5,13h0C41.5,5,57,11.13,57,18.42a6.44,6.44,0,0,1-2.33,5L54,24c0-4-8.71-5.93-11-7.75"/><path class="cls-3" d="M43,16.2A4.07,4.07,0,0,1,41.5,13h0C41.5,5,57,11.13,57,18.42a6.44,6.44,0,0,1-2.33,5L54,24C54,20,45.29,18,43,16.2Z"/><path class="cls-5" d="M59.5,59H53a.5.5,0,0,1-.5-.5v-2A.5.5,0,0,1,53,56h6.5a.5.5,0,0,1,.5.5v2a.5.5,0,0,1-.5.5"/><rect class="cls-3" x="52.5" y="56" width="7.5" height="3" rx="0.5" ry="0.5"/><g class="cls-6"><path class="cls-4" d="M32.5,59.5A15.5,15.5,0,0,0,16.25,44C7.91,44.41,1.5,51.59,1.5,59.94V62h6v5h19V62h5a1,1,0,0,0,1-1Z"/><line class="cls-3" x1="7.5" y1="65" x2="26.5" y2="65"/><line class="cls-3" x1="1.5" y1="62" x2="31.5" y2="62"/><line class="cls-3" x1="1.53" y1="59" x2="32.5" y2="59"/><line class="cls-3" x1="1.99" y1="56" x2="32.1" y2="56"/><line class="cls-3" x1="3.06" y1="53" x2="31.08" y2="53"/><line class="cls-3" x1="4.9" y1="50" x2="29.25" y2="50"/><line class="cls-3" x1="7.96" y1="47" x2="26.16" y2="47"/><path class="cls-3" d="M32.5,59.5A15.5,15.5,0,0,0,16.25,44C7.91,44.41,1.5,51.59,1.5,59.94V62h6v5h19V62h5a1,1,0,0,0,1-1Z"/><line class="cls-3" x1="7.5" y1="58" x2="7.5" y2="67"/><line class="cls-3" x1="26.5" y1="58" x2="26.5" y2="62"/><path class="cls-4" d="M13.5,44.5a3.5,3.5,0,0,0,7,0V41h-7Z"/><path class="cls-3" d="M17,48a3.5,3.5,0,0,1-3.5-3.5V41h7v3.5A3.5,3.5,0,0,1,17,48Z"/><rect class="cls-4" x="2.5" y="62" width="5" height="5"/><rect class="cls-3" x="2.5" y="62" width="5" height="5"/><rect class="cls-4" x="26.5" y="62" width="5" height="5"/><rect class="cls-3" x="26.5" y="62" width="5" height="5"/><path class="cls-5" d="M7.5,66v1h5C16,64.16,24.85,53.5,27.42,48.39a1,1,0,0,0-.24-1.21,16.27,16.27,0,0,0-2.6-1.76,1,1,0,0,0-1.45.56C21.8,50.38,17.3,58.24,7.5,66"/><path class="cls-3" d="M7.5,66v1h5C16,64.16,24.85,53.5,27.42,48.39a1,1,0,0,0-.24-1.21,16.27,16.27,0,0,0-2.6-1.76,1,1,0,0,0-1.45.56C21.8,50.38,17.3,58.24,7.5,66Z"/><path class="cls-4" d="M86.5,59.5a15.5,15.5,0,0,0-31,0V67h31Z"/><path class="cls-3" d="M86.5,59.5a15.5,15.5,0,0,0-31,0V67h31Z"/><path class="cls-4" d="M67.5,47.5a3.5,3.5,0,0,0,7,0v-9h-7Z"/><path class="cls-3" d="M67.5,47.5a3.5,3.5,0,0,0,7,0v-9h-7Z"/><path class="cls-4" d="M67.5,43.5,71,51l-4.54,1.65A1,1,0,0,1,65.17,52L63,45.5Z"/><path class="cls-3" d="M67.5,43.5,71,51l-4.54,1.65A1,1,0,0,1,65.17,52L63,45.5Z"/><path class="cls-4" d="M74.5,43.5,71,51l4.54,1.65A1,1,0,0,0,76.83,52L79,45.5Z"/><path class="cls-3" d="M74.5,43.5,71,51l4.54,1.65A1,1,0,0,0,76.83,52L79,45.5Z"/><line class="cls-4" x1="71" y1="51" x2="71" y2="67"/><line class="cls-3" x1="71" y1="51" x2="71" y2="67"/><path class="cls-5" d="M67.5,64.5V67h-12V59.5a15.48,15.48,0,0,1,9.75-14.39Z"/><path class="cls-3" d="M67.5,64.5V67h-12V59.5a15.48,15.48,0,0,1,9.75-14.39Z"/><path class="cls-5" d="M86.5,59.5V67h-12V64.5l2.25-19.39A15.48,15.48,0,0,1,86.5,59.5"/><path class="cls-3" d="M86.5,59.5V67h-12V64.5l2.25-19.39A15.48,15.48,0,0,1,86.5,59.5Z"/><path class="cls-5" d="M67.5,43.5l-1.13.5a1.48,1.48,0,0,0-.84,1.74c.28,1.08.64,2.67,1,4.78a91.76,91.76,0,0,1,1,14S65,53.5,63,52a8,8,0,0,1-3-6.5c0-2.43,3.14-4.49,7.5-5.21Z"/><path class="cls-3" d="M67.5,43.5l-1.13.5a1.48,1.48,0,0,0-.84,1.74c.28,1.08.64,2.67,1,4.78a91.76,91.76,0,0,1,1,14S65,53.5,63,52a8,8,0,0,1-3-6.5c0-2.43,3.14-4.49,7.5-5.21Z"/><path class="cls-5" d="M74.5,43.5l1.13.5a1.48,1.48,0,0,1,.84,1.74c-.28,1.08-.64,2.67-1,4.78a91.76,91.76,0,0,0-1,14S77,53.5,79,52a8,8,0,0,0,3-6.5c0-2.43-3.14-4.49-7.5-5.21Z"/><path class="cls-3" d="M74.5,43.5l1.13.5a1.48,1.48,0,0,1,.84,1.74c-.28,1.08-.64,2.67-1,4.78a91.76,91.76,0,0,0-1,14S77,53.5,79,52a8,8,0,0,0,3-6.5c0-2.43-3.14-4.49-7.5-5.21Z"/><line class="cls-3" x1="61.5" y1="58.5" x2="61.5" y2="67"/><line class="cls-3" x1="80.5" y1="58.5" x2="80.5" y2="67"/></g><path class="cls-4" d="M81.26,30.37V28A10.23,10.23,0,0,0,60.8,28v2.4A1.81,1.81,0,0,0,59,32.18v.6a1.81,1.81,0,0,0,1.8,1.81l.17,0a10.22,10.22,0,0,0,20.13,0l.16,0a1.81,1.81,0,0,0,1.81-1.81v-.6a1.81,1.81,0,0,0-1.81-1.81"/><path class="cls-3" d="M81.26,30.37V28A10.23,10.23,0,0,0,60.8,28v2.4A1.81,1.81,0,0,0,59,32.18v.6a1.81,1.81,0,0,0,1.8,1.81l.17,0a10.22,10.22,0,0,0,20.13,0l.16,0a1.81,1.81,0,0,0,1.81-1.81v-.6A1.81,1.81,0,0,0,81.26,30.37Z"/><path class="cls-5" d="M78.25,34.59a1.2,1.2,0,1,1-1.2-1.21,1.2,1.2,0,0,1,1.2,1.21"/><path class="cls-5" d="M66.22,34.59A1.21,1.21,0,1,1,65,33.38a1.2,1.2,0,0,1,1.2,1.21"/><path class="cls-3" d="M76.51,31.38a1.63,1.63,0,0,0-3,0"/><path class="cls-3" d="M68.5,31.38a1.63,1.63,0,0,0-3,0"/><path class="cls-3" d="M68,37a4.38,4.38,0,0,0,6,0"/><path class="cls-4" d="M69.83,15.91c-7.22,0-10.23,5.27-10.33,10.22v4.22c3.11,0,3.11-3.61,3.11-3.61s7.22,1.2,12-2.41c0,0,3,6,7.86,6V26.13c0-6.05-1.31-8.42-7.25-8.42,0,0-.61-1.8-5.42-1.8"/><path class="cls-3" d="M69.83,15.91c-7.22,0-10.23,5.27-10.33,10.22v4.22c3.11,0,3.11-3.61,3.11-3.61s7.22,1.2,12-2.41c0,0,3,6,7.86,6V26.13c0-6.05-1.31-8.42-7.25-8.42C75.25,17.71,74.64,15.91,69.83,15.91Z"/><path class="cls-3" d="M67.68,34H64.41A2.47,2.47,0,0,1,62,31.55v-2a1,1,0,0,1,1-1h6.08a1.2,1.2,0,0,1,1.19,1.34l-.21,1.94A2.49,2.49,0,0,1,67.68,34Z"/><path class="cls-3" d="M74.39,34h3.26A2.38,2.38,0,0,0,80,31.55v-2a.92.92,0,0,0-.94-1H73a1.21,1.21,0,0,0-1.2,1.34L72,31.82A2.47,2.47,0,0,0,74.39,34Z"/><line class="cls-3" x1="70.23" y1="30.35" x2="71.84" y2="30.35"/><polygon class="cls-4" points="5.5 31.5 4 31 5.5 29 4 28.5 5.5 26.5 7 26.5 7 31.5 5.5 31.5"/><polygon class="cls-3" points="5.5 31.5 4 31 5.5 29 4 28.5 5.5 26.5 7 26.5 7 31.5 5.5 31.5"/><polygon class="cls-4" points="28.5 31.5 30 31 28.5 29 30 28.5 28.5 26.5 27 26.5 27 31.5 28.5 31.5"/><polygon class="cls-3" points="28.5 31.5 30 31 28.5 29 30 28.5 28.5 26.5 27 26.5 27 31.5 28.5 31.5"/><path class="cls-4" d="M27,30.5V28A10,10,0,0,0,7,28v2.5a2,2,0,0,0,0,4h.12a10,10,0,0,0,19.76,0H27a2,2,0,0,0,0-4"/><path class="cls-3" d="M27,30.5V28A10,10,0,0,0,7,28v2.5a2,2,0,0,0,0,4h.12a10,10,0,0,0,19.76,0H27a2,2,0,0,0,0-4Z"/><path class="cls-5" d="M12.5,34.75a1.25,1.25,0,1,1-1.25-1.25,1.25,1.25,0,0,1,1.25,1.25"/><path class="cls-5" d="M21.5,34.75a1.25,1.25,0,1,0,1.25-1.25,1.25,1.25,0,0,0-1.25,1.25"/><path class="cls-3" d="M14,37.29a4.38,4.38,0,0,0,6,0"/><path class="cls-3" d="M22.5,31.5a1.63,1.63,0,0,0-3,0"/><path class="cls-3" d="M14.49,31.5a1.63,1.63,0,0,0-3,0"/><path class="cls-5" d="M28.5,23.42A8.42,8.42,0,0,0,20.08,15H13.92A8.42,8.42,0,0,0,5.5,23.42V26.5h23Z"/><path class="cls-3" d="M28.5,23.42A8.42,8.42,0,0,0,20.08,15H13.92A8.42,8.42,0,0,0,5.5,23.42V26.5h23Z"/><path class="cls-4" d="M17,21h0a2.5,2.5,0,0,0-2.5,2.5.5.5,0,0,0,.5.5h4.5v-.5A2.5,2.5,0,0,0,17,21"/><path class="cls-3" d="M17,21h0a2.5,2.5,0,0,0-2.5,2.5.5.5,0,0,0,.5.5h4.5v-.5A2.5,2.5,0,0,0,17,21Z"/><path class="cls-3" d="M19.5,24h.25a1.25,1.25,0,0,1,0,2.5H19.5"/><path class="cls-5" d="M18.8,41.4A1,1,0,0,0,18,41H16a1,1,0,0,0-.8.4l-.78,1a.49.49,0,0,0-.08.45.48.48,0,0,0,.32.33l.84.28L16.6,45a.5.5,0,0,0,.8,0l1.1-1.47.84-.28a.5.5,0,0,0,.32-.33.49.49,0,0,0-.08-.45Z"/><path class="cls-3" d="M18.8,41.4A1,1,0,0,0,18,41H16a1,1,0,0,0-.8.4l-.78,1a.49.49,0,0,0-.08.45.48.48,0,0,0,.32.33l.84.28L16.6,45a.5.5,0,0,0,.8,0l1.1-1.47.84-.28a.5.5,0,0,0,.32-.33.49.49,0,0,0-.08-.45Z"/></g></g></svg>