<?xml version="1.0" encoding="utf-8"?>
<!-- Generator: Adobe Illustrator 22.0.0, SVG Export Plug-In . SVG Version: 6.00 Build 0)  -->
<svg version="1.1" id="Layer_1" xmlns="http://www.w3.org/2000/svg" xmlns:xlink="http://www.w3.org/1999/xlink" x="0px" y="0px"
	 viewBox="0 0 88 78.5" style="enable-background:new 0 0 88 78.5;" xml:space="preserve">
<style type="text/css">
	.st0{fill:#F2FAFA;}
	.st1{fill:none;stroke:#1C184E;stroke-linecap:round;stroke-linejoin:round;}
	.st2{fill:#FFFFFF;}
	.st3{fill:#E9F6F6;}
	.st4{fill:#1C184E;}
	.st5{fill:none;stroke:#1C184E;stroke-linejoin:round;}
</style>
<title>Resurs 46</title>
<g id="Lager_2">
	<g id="Layer_1_1_">
		<path class="st0" d="M84,40C84,17.9,66.1,0,44,0S4,17.9,4,40c0,5.7,1.2,11.3,3.6,16.5h72.9C82.8,51.3,84,45.7,84,40"/>
		<line class="st1" x1="5" y1="56.5" x2="83" y2="56.5"/>
		<line class="st1" x1="0.5" y1="56.5" x2="3" y2="56.5"/>
		<line class="st1" x1="85" y1="56.5" x2="87.5" y2="56.5"/>
		<path class="st2" d="M78,41H39V21.5c0-1.1,0.9-2,2-2h35c1.1,0,2,0.9,2,2V41z"/>
		<path class="st1" d="M78,41H39V21.5c0-1.1,0.9-2,2-2h35c1.1,0,2,0.9,2,2V41z"/>
		<path class="st3" d="M80.3,42.2c0,0.7-0.5,1.2-1.2,1.2H38.2c-0.7,0-1.2-0.6-1.2-1.2s0.6-1.2,1.2-1.2h40.9
			C79.8,41,80.3,41.6,80.3,42.2"/>
		<path class="st1" d="M80.3,42.2c0,0.7-0.5,1.2-1.2,1.2H38.2c-0.7,0-1.2-0.6-1.2-1.2s0.6-1.2,1.2-1.2h40.9
			C79.8,41,80.3,41.6,80.3,42.2z"/>
		<path class="st2" d="M72.5,46h-25c-0.6,0-1,0.4-1,1v1c0,0.6,0.4,1,1,1h25c0.6,0,1-0.4,1-1v-1C73.5,46.4,73.1,46,72.5,46"/>
		<path class="st1" d="M47.5,46h25c0.6,0,1,0.4,1,1v1c0,0.6-0.4,1-1,1h-25c-0.6,0-1-0.4-1-1v-1C46.5,46.4,46.9,46,47.5,46z"/>
		<rect x="47.5" y="49" class="st2" width="25" height="7.5"/>
		<rect x="47.5" y="49" class="st1" width="25" height="7.5"/>
		<rect x="70" y="38" class="st2" width="2.5" height="8"/>
		<rect x="70" y="38" class="st1" width="2.5" height="8"/>
		<rect x="67.5" y="38" class="st2" width="2.5" height="8"/>
		<rect x="67.5" y="38" class="st1" width="2.5" height="8"/>
		<rect x="61" y="40.4" transform="matrix(0.3987 -0.9171 0.9171 0.3987 0.8705 84.5482)" class="st3" width="7.8" height="2.4"/>
		<rect x="61" y="40.4" transform="matrix(0.3987 -0.9171 0.9171 0.3987 0.8705 84.5482)" class="st1" width="7.8" height="2.4"/>
		<path class="st2" d="M35.3,29c-2.1-1.6-3.4-4.1-3.5-6.7v-2.1c0.2-4.9-3.7-9-8.6-9.2s-9,3.7-9.2,8.6c0,0.2,0,0.4,0,0.6v2.1
			c-0.1,2.6-1.3,5.1-3.5,6.7c-2.4,1.9-2.8,5.4-0.9,7.8c1,1.3,2.6,2.1,4.3,2.1h17.7c3.1,0,5.5-2.5,5.5-5.5C37.3,31.6,36.6,30,35.3,29
			"/>
		<path class="st1" d="M35.3,29c-2.1-1.6-3.4-4.1-3.5-6.7v-2.1c0.2-4.9-3.7-9-8.6-9.2s-9,3.7-9.2,8.6c0,0.2,0,0.4,0,0.6v2.1
			c-0.1,2.6-1.3,5.1-3.5,6.7c-2.4,1.9-2.8,5.4-0.9,7.8c1,1.3,2.6,2.1,4.3,2.1h17.7c3.1,0,5.5-2.5,5.5-5.5C37.3,31.6,36.6,30,35.3,29
			z"/>
		<path class="st2" d="M29.9,21.9v-1.7c-3,0-5.6-1.7-6.9-4.4c-1.2,2.7-3.9,4.4-6.9,4.4v1.7c-0.8,0.1-1.3,0.9-1.1,1.7
			c0.1,0.6,0.6,1.1,1.3,1.1c0.8,3.7,4.4,6.1,8.2,5.3c2.7-0.6,4.8-2.7,5.3-5.3c0.8-0.1,1.4-0.7,1.3-1.5C31,22.6,30.5,22,29.9,21.9"/>
		<path class="st1" d="M29.9,21.9v-1.7c-3,0-5.6-1.7-6.9-4.4c-1.2,2.7-3.9,4.4-6.9,4.4v1.7c-0.8,0.1-1.3,0.9-1.1,1.7
			c0.1,0.6,0.6,1.1,1.3,1.1c0.8,3.7,4.4,6.1,8.2,5.3c2.7-0.6,4.8-2.7,5.3-5.3c0.8-0.1,1.4-0.7,1.3-1.5C31,22.6,30.5,22,29.9,21.9
			L29.9,21.9z"/>
		<path class="st3" d="M20.1,24.2c0,0.5-0.4,0.9-0.9,0.9c-0.5,0-0.9-0.4-0.9-0.9c0-0.5,0.4-0.9,0.9-0.9S20.1,23.7,20.1,24.2
			C20.1,24.2,20.1,24.2,20.1,24.2"/>
		<path class="st3" d="M27.6,24.2c0,0.5-0.4,0.9-0.9,0.9c-0.5,0-0.9-0.4-0.9-0.9c0-0.5,0.4-0.9,0.9-0.9c0,0,0,0,0,0
			C27.2,23.3,27.6,23.7,27.6,24.2"/>
		<path class="st1" d="M24.7,26.2c-0.5,0.3-1.1,0.5-1.7,0.6c-0.6,0-1.2-0.2-1.7-0.6"/>
		<path class="st4" d="M20.4,21c-0.5,0-0.9,0.4-0.9,0.9c0,0.5,0.4,0.9,0.9,0.9c0.5,0,0.9-0.4,0.9-0.9c0,0,0,0,0,0
			C21.3,21.4,20.9,21,20.4,21C20.4,21,20.4,21,20.4,21"/>
		<path class="st4" d="M25.6,21c-0.5,0-0.9,0.4-0.9,0.9c0,0.5,0.4,0.9,0.9,0.9c0.5,0,0.9-0.4,0.9-0.9c0,0,0,0,0,0
			C26.4,21.4,26.1,21,25.6,21"/>
		<path class="st2" d="M38.8,48L38.8,48L38,49c-0.9,1.1-2.6,1.3-3.7,0.4c-0.6-0.5-1-1.3-1-2v-4.5c0-5.7-4.6-10.3-10.4-10.3
			s-10.4,4.6-10.4,10.3v13.8h4v-3.4h12.6v-5.9c-0.1,3.7,2.9,6.7,6.5,6.8c0,0,0.1,0,0.1,0c2,0,3.9-0.9,5.2-2.5l0.9-1.1L38.8,48z"/>
		<path class="st1" d="M38.8,48L38.8,48L38,49c-0.9,1.1-2.6,1.3-3.7,0.4c-0.6-0.5-1-1.3-1-2v-4.5c0-5.7-4.6-10.3-10.4-10.3
			s-10.4,4.6-10.4,10.3v13.8h4v-3.4h12.6v-5.9c-0.1,3.7,2.9,6.7,6.5,6.8c0,0,0.1,0,0.1,0c2,0,3.9-0.9,5.2-2.5l0.9-1.1L38.8,48z"/>
		<path class="st0" d="M34.5,76.8c0,1-5.1,1.7-11.5,1.7s-11.5-0.8-11.5-1.7S16.6,75,23,75S34.5,75.8,34.5,76.8"/>
		<path class="st3" d="M23,75.4c0,0.8-0.6,1.4-1.4,1.4h-3.1c-0.8,0-1.4-0.6-1.4-1.4c0-0.1,0-0.2,0-0.3l1.2-4H23V75.4z"/>
		<path class="st5" d="M23,75.4c0,0.8-0.6,1.4-1.4,1.4h-3.1c-0.8,0-1.4-0.6-1.4-1.4c0-0.1,0-0.2,0-0.3l1.2-4H23V75.4z"/>
		<path class="st2" d="M16.7,58.7c0,1.1-0.9,2-2,2s-2-0.9-2-2v-2h4V58.7z"/>
		<path class="st1" d="M16.7,58.7c0,1.1-0.9,2-2,2s-2-0.9-2-2v-2h4V58.7z"/>
		<path class="st2" d="M20.7,73.7c-1.3,0-2.3-0.8-2.3-2.7H23C23,72.9,22,73.7,20.7,73.7"/>
		<path class="st1" d="M20.7,73.7c-1.3,0-2.3-0.8-2.3-2.7H23C23,72.9,22,73.7,20.7,73.7z"/>
		<path class="st3" d="M23,75.4c0,0.8,0.6,1.4,1.4,1.4c0,0,0,0,0,0h3.1c0.8,0,1.4-0.6,1.4-1.4c0-0.1,0-0.2,0-0.3l-1.2-4H23V75.4z"/>
		<path class="st5" d="M23,75.4c0,0.8,0.6,1.4,1.4,1.4c0,0,0,0,0,0h3.1c0.8,0,1.4-0.6,1.4-1.4c0-0.1,0-0.2,0-0.3l-1.2-4H23V75.4z"/>
		<path class="st2" d="M25.3,73.7c1.3,0,2.3-0.8,2.3-2.7H23C23,72.9,24,73.7,25.3,73.7"/>
		<path class="st1" d="M25.3,73.7c1.3,0,2.3-0.8,2.3-2.7H23C23,72.9,24,73.7,25.3,73.7z"/>
		<line class="st1" x1="23" y1="36.6" x2="23" y2="53.2"/>
		<path class="st1" d="M16.7,55.5v-8.1c0-2.1-1.4-2.8-1.4-5.2"/>
		<path class="st1" d="M29.3,52.6v-5.2c0-2.1,1.4-2.8,1.4-5.1"/>
		<path class="st2" d="M43.2,49.1l-1.2,1.5L38.8,48l1.2-1.5c0.7-0.9,2-1.1,2.9-0.3C43.8,46.9,44,48.2,43.2,49.1"/>
		<path class="st1" d="M43.2,49.1l-1.2,1.5L38.8,48l1.2-1.5c0.7-0.9,2-1.1,2.9-0.3C43.8,46.9,44,48.2,43.2,49.1L43.2,49.1z"/>
		<line class="st1" x1="41.8" y1="48.2" x2="52.9" y2="36.2"/>
		<polygon class="st3" points="16.7,53.2 18.4,71 27.6,71 29.3,53.2 		"/>
		<polygon class="st5" points="16.7,53.2 18.4,71 27.6,71 29.3,53.2 		"/>
		<line class="st1" x1="23" y1="71" x2="23" y2="57.9"/>
		<path class="st2" d="M23,32.5c-1.3,0-2.5,0.2-3.7,0.7c1.4,4.6,6,4.7,7.4,0C25.5,32.7,24.3,32.5,23,32.5"/>
		<path class="st1" d="M23,32.5c-1.3,0-2.5,0.2-3.7,0.7c1.4,4.6,6,4.7,7.4,0C25.5,32.7,24.3,32.5,23,32.5z"/>
	</g>
</g>
<path class="st4" d="M61.8,66.5c-0.1,0.1-0.1,0.1-0.1,0.2c-0.3,0.5-0.7,0.9-1.3,1.3c-0.7,0.4-1.5,0.6-2.3,0.4
	c-0.4-0.1-0.8-0.3-1.2-0.5c-0.1,0-0.1,0-0.2,0c-0.3,0.2-0.7,0.4-1,0.6c-0.9,0.4-1.8,0.5-2.8-0.2c-0.5-0.4-0.5-0.5-0.8-0.3
	c-0.4,0.4-0.9,0.6-1.4,0.8c-0.6,0.2-1.3,0.4-2,0.4c-0.8,0.1-1.6-0.1-2.2-0.7c-0.4-0.5-0.6-1.2-0.3-1.8c0.3-0.7,0.6-1.4,1-2.1
	c0.2-0.4,0.4-0.8,0.6-1.2c0-0.2,0.1-0.4-0.1-0.5c-0.2-0.1-0.4-0.1-0.5,0.1c-0.2,0.2-0.3,0.4-0.4,0.6c-0.4,0.7-0.7,1.4-1.1,2.1
	c-0.3,0.5-0.5,1.1-0.8,1.6c-0.3,0.5-0.7,0.7-1.3,0.5c-0.2-0.1-0.3-0.2-0.3-0.4c0-0.3,0.1-0.5,0.2-0.8c0.2-0.6,0.4-1.1,0.7-1.7
	c0.1-0.3,0.2-0.6,0.3-0.9c0.1-0.2,0.1-0.4,0-0.6c-0.1-0.3-0.4-0.4-0.8-0.1c-0.3,0.7-0.6,1.5-0.9,2.2c-0.3,0.8-0.7,1.7-1,2.5
	c-0.1,0.3-0.3,0.6-0.6,0.7c-0.2,0.1-0.3,0.1-0.5,0.1c-0.5,0-1-0.2-1.3-0.6C39,67.8,39,67.4,39.1,67c0.1-0.4,0.2-0.8,0.3-1.2
	c0.1-0.5,0.3-1,0.5-1.5c0.1-0.2,0.1-0.5,0.2-0.7c0.2-0.7,0.4-1.4,0.8-2.1c0.3-0.4,0.7-0.7,1.1-0.8c0.5-0.2,0.9,0,1.3,0.2
	c0.2,0.1,0.3,0.2,0.5,0.2c0.2,0.1,0.4,0,0.6-0.1c0.2-0.1,0.3-0.2,0.4-0.4c0.3-0.3,1.1-0.4,1.5,0c0.2,0.2,0.4,0.3,0.5,0.5
	c0.6-0.5,1.3-0.5,1.9-0.3c0.3,0.1,0.5,0.4,0.6,0.7c0.2,0.5,0.1,0.9-0.1,1.4c-0.3,0.8-0.7,1.6-1,2.4c-0.2,0.5-0.3,1-0.5,1.5
	c-0.1,0.2-0.1,0.4,0,0.6c0.1,0.3,0.4,0.4,0.6,0.4c0.4,0.1,0.9,0,1.3-0.1c0.4-0.1,0.7-0.2,1.1-0.3c0.2-0.1,0.3-0.2,0.5-0.2
	c0.2-0.1,0.1-0.2,0-0.3c-0.2-0.2-0.3-0.5-0.4-0.7c-0.3-0.6-0.5-1.2-0.5-1.8c0.1-0.6,0.3-1.1,0.8-1.4c0.8-0.4,1.4-0.3,2,0.3
	c0.5,0.6,0.7,1.3,0.4,2c-0.1,0.4-0.3,0.8-0.4,1.2c0,0.1,0,0.2,0.1,0.2c0.3,0.3,0.7,0.5,1.1,0.7c0.2,0.1,0.3,0.1,0.5,0.1
	c0.4,0.1,0.7,0,1-0.2c0.1-0.1,0.1-0.2,0-0.3c-0.7-0.9-0.9-2-0.7-3.1c0.1-0.4,0.3-0.8,0.7-0.9c0.3-0.1,0.6-0.1,0.9,0
	c0.5,0.1,0.9,0.2,1.2,0.7c0.3,0.5,0.4,1,0.3,1.6c-0.1,0.4-0.3,0.8-0.6,1.1c-0.1,0.1-0.1,0.3,0,0.4c0.2,0.1,0.4,0.3,0.6,0.4
	c0.5,0.2,1,0.2,1.5,0c0.5-0.2,0.9-0.5,1.2-1.1c0.3-0.6,0.3-1.3,0.3-2c0-0.5,0-1.1,0-1.6c0-0.2,0-0.2-0.2-0.2c-0.5,0.1-1,0.2-1.4,0.3
	c-0.2,0-0.3,0-0.5,0.1c-0.3,0.1-0.6-0.1-0.6-0.5c0-0.4-0.1-0.8-0.1-1.2c0,0,0,0,0-0.1c0-0.5,0.1-0.7,0.6-0.7c0.7,0,1.4,0,2,0.1
	c0-0.3,0-0.7,0.1-1c0-0.3,0.1-0.4,0.4-0.4c0.2,0,0.4,0,0.6,0.1c0.3,0.1,0.4,0.2,0.4,0.5c0,0.2,0,0.4,0,0.7c0,0.2,0,0.2,0.2,0.3
	c0.5,0.1,1,0.1,1.5,0.2c0.2,0,0.4,0.1,0.4,0.3c0.1,0.3,0,0.5-0.2,0.6c-0.4,0.1-0.8,0.2-1.2,0.3c-0.1,0-0.3,0-0.4,0.1
	c-0.2,0-0.3,0.1-0.3,0.3c0,0.9,0,1.8,0,2.6c0,0.6,0.1,1.3,0.6,1.8c0.8,0,1.4-0.2,2-0.7c0.2-0.2,0.4-0.4,0.4-0.8
	c0-0.6,0.1-1.2,0.1-1.8c0-0.2,0-0.4,0.1-0.5c0-0.1,0.1-0.2,0.2-0.2c0.5,0,0.9,0,1.4,0c0.3,0,0.5,0.3,0.5,0.6c0,0.8-0.2,1.6-0.2,2.4
	c-0.4,0.8,0.2,1.2,0.7,1.2c0.3,0,0.6-0.1,0.7-0.5c0.3-0.7,0.3-1.4,0.4-2.1c0-0.3,0.1-0.5,0.1-0.8c0-0.3,0.2-0.5,0.4-0.5
	c0.2,0,0.5,0,0.6,0.2c0.1,0.2,0,0.4,0,0.5c-0.1,0.7-0.2,1.3-0.2,2c0,0.4,0.2,0.7,0.6,0.8c0.2,0.1,0.4,0.1,0.6,0.1
	c0.4,0,0.6-0.2,0.7-0.6c0.1-0.3,0.1-0.7,0.1-1c0-0.4,0-0.8,0.1-1.2c0.1-0.6,0.5-1.1,1.2-1.3c0.4-0.1,0.9-0.1,1.3-0.1
	c0.7,0.1,1.3,0.5,1.6,1.3c0.2,0.6,0.1,1.1-0.1,1.7c-0.2,0.6-0.6,1.1-1.2,1.5c-0.1,0-0.1,0.1-0.1,0.2c0.1,0,0.1,0.1,0.2,0.1
	c0.7,0,1.3-0.2,1.9-0.5c0.1-0.1,0.3-0.1,0.4-0.2c0.1-0.1,0.2,0,0.2,0.1c-0.1,0.2-0.1,0.4-0.2,0.5c-0.5,0.6-1.2,0.9-1.9,1
	c-0.5,0-1-0.1-1.5,0c0,0,0,0,0,0c-0.3-0.1-0.4-0.1-0.5,0.1c-0.2,0.8-0.3,1.7-0.4,2.5c-0.1,0.5-0.2,1.1-0.3,1.6
	c-0.1,0.3-0.3,0.5-0.6,0.5c-0.2,0-0.3,0-0.4-0.2c-0.1-0.1-0.1-0.3-0.1-0.4c-0.1-0.7,0-1.5,0.1-2.2c0-0.4,0.1-0.7,0.1-1.1
	c0-0.3,0.1-0.5,0.1-0.8c0-0.2,0-0.3-0.2-0.3c-0.4-0.1-0.8-0.2-1.2-0.3c-0.3-0.1-0.5,0-0.7,0.2c-0.3,0.3-0.5,0.5-0.9,0.6
	c-0.4,0.2-0.8,0.1-1.2,0.1c-0.6-0.1-1.1-0.4-1.4-0.9c-0.1-0.2-0.2-0.3-0.3-0.5c0-0.1-0.1-0.1-0.2-0.1c-0.4,0.2-0.8,0.4-1.2,0.6
	c-0.5,0.2-0.9,0.3-1.4,0.1c-0.5-0.1-0.8-0.4-1.1-0.8C62,66.7,61.9,66.6,61.8,66.5z M75.4,64.6c0-0.2,0-0.5-0.6-0.6
	c-0.2,0.1-0.4,0.3-0.5,0.5c-0.3,0.5-0.5,1-0.6,1.6c-0.1,0.3-0.1,0.5,0,0.8c0.6-0.3,1-0.8,1.4-1.3C75.2,65.2,75.4,64.9,75.4,64.6z
	 M57.6,64.8c0-0.3-0.1-0.5-0.2-0.7c-0.1-0.1-0.2-0.1-0.4-0.1c-0.2,0.1-0.3,0.2-0.3,0.4c0,0.4,0.2,0.8,0.4,1.2c0.1,0.2,0.2,0.2,0.3,0
	C57.6,65.4,57.6,65.1,57.6,64.8z M53.2,64.8c0-0.2-0.1-0.3-0.1-0.5c-0.1-0.2-0.3-0.3-0.5-0.2c-0.2,0.1-0.3,0.2-0.3,0.4
	c0,0.2,0.1,0.5,0.1,0.7c0,0.2,0.1,0.3,0.2,0.5c0.1,0.2,0.2,0.2,0.3,0C53,65.4,53.1,65.1,53.2,64.8z"/>
<g>
	<path class="st4" d="M49.2,31.7v-2.6l9.2-4v2.7L52,30.4l6.4,2.6v2.7L49.2,31.7z"/>
	<path class="st4" d="M64.9,25.9c0,0.3-0.1,1-0.1,1.3c0,1.5,0.6,2,2.1,2h0.5v2.2h-0.5c-1.5,0-2.1,0.5-2.1,2c0,0.3,0.1,1,0.1,1.3
		c0,1.9-1,3.1-4.4,3.8L60,36.5c2-0.6,2.3-1.1,2.3-2.3c0-0.4-0.1-1-0.1-1.4c0-1.4,0.7-2.1,2-2.5c-1.3-0.4-2-1.2-2-2.5
		c0-0.4,0.1-1,0.1-1.4c0-1.2-0.3-1.7-2.3-2.3l0.5-1.9C63.9,22.7,64.9,24,64.9,25.9z"/>
</g>
</svg>
