<?xml version="1.0" encoding="utf-8"?>
<!-- Generator: Adobe Illustrator 22.0.0, SVG Export Plug-In . SVG Version: 6.00 Build 0)  -->
<svg version="1.1" id="Layer_1" xmlns="http://www.w3.org/2000/svg" xmlns:xlink="http://www.w3.org/1999/xlink" x="0px" y="0px"
	 viewBox="0 0 88 78.5" style="enable-background:new 0 0 88 78.5;" xml:space="preserve">
<style type="text/css">
	.st0{fill:#F2FAFA;}
	.st1{fill:none;stroke:#1C184E;stroke-linecap:round;stroke-linejoin:round;}
	.st2{fill:#FFFFFF;}
	.st3{fill:#E9F6F6;}
	.st4{fill:#1C184E;}
	.st5{fill:none;stroke:#1C184E;stroke-linejoin:round;}
</style>
<title>Resurs 46</title>
<g id="Lager_2">
	<g id="Layer_1_1_">
		<path class="st0" d="M84,40C84,17.9,66.1,0,44,0S4,17.9,4,40c0,5.7,1.2,11.3,3.6,16.5h72.9C82.8,51.3,84,45.7,84,40"/>
		<line class="st1" x1="5" y1="56.5" x2="83" y2="56.5"/>
		<line class="st1" x1="0.5" y1="56.5" x2="3" y2="56.5"/>
		<line class="st1" x1="85" y1="56.5" x2="87.5" y2="56.5"/>
		<path class="st2" d="M78,41H39V21.5c0-1.1,0.9-2,2-2h35c1.1,0,2,0.9,2,2V41z"/>
		<path class="st1" d="M78,41H39V21.5c0-1.1,0.9-2,2-2h35c1.1,0,2,0.9,2,2V41z"/>
		<path class="st3" d="M80.3,42.2c0,0.7-0.5,1.2-1.2,1.2H38.2c-0.7,0-1.2-0.6-1.2-1.2s0.6-1.2,1.2-1.2h40.9
			C79.8,41,80.3,41.6,80.3,42.2"/>
		<path class="st1" d="M80.3,42.2c0,0.7-0.5,1.2-1.2,1.2H38.2c-0.7,0-1.2-0.6-1.2-1.2s0.6-1.2,1.2-1.2h40.9
			C79.8,41,80.3,41.6,80.3,42.2z"/>
		<path class="st2" d="M72.5,46h-25c-0.6,0-1,0.4-1,1v1c0,0.6,0.4,1,1,1h25c0.6,0,1-0.4,1-1v-1C73.5,46.4,73.1,46,72.5,46"/>
		<path class="st1" d="M47.5,46h25c0.6,0,1,0.4,1,1v1c0,0.6-0.4,1-1,1h-25c-0.6,0-1-0.4-1-1v-1C46.5,46.4,46.9,46,47.5,46z"/>
		<rect x="47.5" y="49" class="st2" width="25" height="7.5"/>
		<rect x="47.5" y="49" class="st1" width="25" height="7.5"/>
		<rect x="70" y="38" class="st2" width="2.5" height="8"/>
		<rect x="70" y="38" class="st1" width="2.5" height="8"/>
		<rect x="67.5" y="38" class="st2" width="2.5" height="8"/>
		<rect x="67.5" y="38" class="st1" width="2.5" height="8"/>
		<rect x="61" y="40.4" transform="matrix(0.3987 -0.9171 0.9171 0.3987 0.8705 84.5482)" class="st3" width="7.8" height="2.4"/>
		<rect x="61" y="40.4" transform="matrix(0.3987 -0.9171 0.9171 0.3987 0.8705 84.5482)" class="st1" width="7.8" height="2.4"/>
		<g>
			<path class="st2" d="M29,27.4c0,1.9-1.5,3.4-3.5,3.4s-3.4-1.5-3.4-3.5s1.5-3.4,3.4-3.4S29,25.5,29,27.4L29,27.4"/>
			<path class="st1" d="M29,27.4c0,1.9-1.5,3.4-3.5,3.4s-3.4-1.5-3.4-3.5s1.5-3.4,3.4-3.4S29,25.5,29,27.4L29,27.4z"/>
			<path class="st2" d="M27.9,23.3c0-0.7-0.5-1.3-1.1-1.4V21c0-3.8-3.1-6.9-6.9-6.9c-3.8,0-6.9,3.1-6.9,6.9v0.9
				c-0.8,0.1-1.3,0.9-1.1,1.7c0.1,0.6,0.6,1.1,1.3,1.1c0.8,3.7,4.4,6.1,8.2,5.3c2.7-0.6,4.8-2.7,5.3-5.3
				C27.3,24.6,27.8,24,27.9,23.3"/>
			<path class="st1" d="M27.9,23.3c0-0.7-0.5-1.3-1.1-1.4V21c0-3.8-3.1-6.9-6.9-6.9c-3.8,0-6.9,3.1-6.9,6.9v0.9
				c-0.8,0.1-1.3,0.9-1.1,1.7c0.1,0.6,0.6,1.1,1.3,1.1c0.8,3.7,4.4,6.1,8.2,5.3c2.7-0.6,4.8-2.7,5.3-5.3
				C27.3,24.6,27.8,24,27.9,23.3z"/>
			<path class="st3" d="M16.9,24.2c0,0.5-0.4,0.9-0.9,0.9s-0.9-0.4-0.9-0.9c0-0.5,0.4-0.9,0.9-0.9c0,0,0,0,0,0
				C16.5,23.3,16.9,23.7,16.9,24.2"/>
			<path class="st3" d="M24.4,24.2c0,0.5-0.4,0.9-0.9,0.9c-0.5,0-0.9-0.4-0.9-0.9c0-0.5,0.4-0.9,0.9-0.9S24.4,23.7,24.4,24.2
				C24.4,24.2,24.4,24.2,24.4,24.2"/>
			<path class="st1" d="M21.5,26.2c-0.5,0.3-1.1,0.5-1.7,0.6c-0.6,0-1.2-0.2-1.7-0.6"/>
			<path class="st4" d="M17.2,21c-0.5,0-0.9,0.4-0.9,0.9s0.4,0.9,0.9,0.9s0.9-0.4,0.9-0.9c0,0,0,0,0,0C18.1,21.4,17.7,21,17.2,21"/>
			<path class="st4" d="M22.4,21c-0.5,0-0.9,0.4-0.9,0.9c0,0.5,0.4,0.9,0.9,0.9c0.5,0,0.9-0.4,0.9-0.9c0,0,0,0,0,0
				C23.2,21.4,22.9,21,22.4,21C22.4,21,22.4,21,22.4,21"/>
			<path class="st2" d="M27.9,22.4c0,0-6.3-5.9-10.6-6.1c-1.1,3.9-5.5,6.1-5.5,6.1v-3.5c0-4.2,3.9-7.7,8.1-7.7s8,3.5,8,7.7
				L27.9,22.4z"/>
			<path class="st1" d="M27.9,22.4c0,0-6.3-5.9-10.6-6.1c-1.1,3.9-5.5,6.1-5.5,6.1v-3.5c0-4.2,3.9-7.7,8.1-7.7s8,3.5,8,7.7
				L27.9,22.4z"/>
			<path class="st2" d="M35.6,48L35.6,48l-0.8,1c-0.9,1.1-2.6,1.3-3.7,0.4c-0.6-0.5-1-1.2-1-2v-4.5c0-5.7-4.6-10.3-10.4-10.3
				S9.5,37.1,9.5,42.8v13.8h4v-3.4h12.7v-5.9c-0.1,3.7,2.9,6.7,6.5,6.8c0,0,0.1,0,0.1,0c2,0,4-0.9,5.2-2.5l0.9-1.1L35.6,48z"/>
			<path class="st1" d="M35.6,48L35.6,48l-0.8,1c-0.9,1.1-2.6,1.3-3.7,0.4c-0.6-0.5-1-1.2-1-2v-4.5c0-5.7-4.6-10.3-10.4-10.3
				S9.5,37.1,9.5,42.8v13.8h4v-3.4h12.7v-5.9c-0.1,3.7,2.9,6.7,6.5,6.8c0,0,0.1,0,0.1,0c2,0,4-0.9,5.2-2.5l0.9-1.1L35.6,48z"/>
			<path class="st2" d="M16,33.2l3.8,10.2l3.8-10.2C21.2,32.3,18.4,32.3,16,33.2"/>
			<path class="st1" d="M16,33.2l3.8,10.2l3.8-10.2C21.2,32.3,18.4,32.3,16,33.2z"/>
			<path class="st0" d="M31.3,76.8c0,1-5.1,1.7-11.5,1.7S8.3,77.7,8.3,76.8S13.4,75,19.8,75S31.3,75.8,31.3,76.8"/>
			<path class="st3" d="M19.8,75.4c0,0.8-0.6,1.4-1.4,1.4c0,0,0,0,0,0h-3.1c-0.8,0-1.4-0.6-1.4-1.4c0-0.1,0-0.2,0-0.3l1.2-4h4.6
				L19.8,75.4z"/>
			<path class="st5" d="M19.8,75.4c0,0.8-0.6,1.4-1.4,1.4c0,0,0,0,0,0h-3.1c-0.8,0-1.4-0.6-1.4-1.4c0-0.1,0-0.2,0-0.3l1.2-4h4.6
				L19.8,75.4z"/>
			<path class="st2" d="M13.5,58.7c0,1.1-0.9,2-2,2s-2-0.9-2-2v-2h4V58.7z"/>
			<path class="st1" d="M13.5,58.7c0,1.1-0.9,2-2,2s-2-0.9-2-2v-2h4V58.7z"/>
			<path class="st2" d="M17.5,73.7c-1.3,0-2.3-0.8-2.3-2.7h4.6C19.8,72.9,18.8,73.7,17.5,73.7"/>
			<path class="st1" d="M17.5,73.7c-1.3,0-2.3-0.8-2.3-2.7h4.6C19.8,72.9,18.8,73.7,17.5,73.7z"/>
			<path class="st3" d="M19.8,75.4c0,0.8,0.6,1.4,1.4,1.4h3.1c0.8,0,1.4-0.6,1.4-1.4c0-0.1,0-0.2,0-0.3l-1.2-4h-4.6V75.4z"/>
			<path class="st5" d="M19.8,75.4c0,0.8,0.6,1.4,1.4,1.4h3.1c0.8,0,1.4-0.6,1.4-1.4c0-0.1,0-0.2,0-0.3l-1.2-4h-4.6V75.4z"/>
			<path class="st2" d="M22.1,73.7c1.3,0,2.3-0.8,2.3-2.7h-4.6C19.8,72.9,20.8,73.7,22.1,73.7"/>
			<path class="st1" d="M22.1,73.7c1.3,0,2.3-0.8,2.3-2.7h-4.6C19.8,72.9,20.8,73.7,22.1,73.7z"/>
			<path class="st1" d="M13.5,55.5v-8.1c0-2.1-1.4-2.8-1.4-5.1"/>
			<path class="st1" d="M26.1,52.6v-5.2c0-2.1,1.4-2.8,1.4-5.1"/>
			<path class="st1" d="M40.1,49.1l-1.2,1.5L35.6,48l1.2-1.5c0.7-0.9,2-1.1,2.9-0.3C40.6,46.9,40.8,48.2,40.1,49.1L40.1,49.1
				L40.1,49.1z"/>
			<line class="st1" x1="38.7" y1="48.2" x2="49.7" y2="36.2"/>
			<polygon class="st3" points="13.5,53.2 15.2,71 24.4,71 26.1,53.2 			"/>
			<polygon class="st5" points="13.5,53.2 15.2,71 24.4,71 26.1,53.2 			"/>
			<line class="st1" x1="19.8" y1="71" x2="19.8" y2="57.9"/>
			<path class="st2" d="M19.8,32.5c-0.9,0-1.8,0.1-2.7,0.4c0.7,1.2,1.8,2.5,2.7,2.5s2-1.3,2.7-2.5C21.6,32.6,20.7,32.5,19.8,32.5"/>
			<path class="st1" d="M19.8,32.5c-0.9,0-1.8,0.1-2.7,0.4c0.7,1.2,1.8,2.5,2.7,2.5s2-1.3,2.7-2.5C21.6,32.6,20.7,32.5,19.8,32.5z"
				/>
			<path class="st2" d="M19.8,43.4L16,33.2c-1.3,0.5-2.6,1.3-3.6,2.4l-0.2,1.3h3l-0.6,3L19.8,43.4z"/>
			<path class="st5" d="M19.8,43.4L16,33.2c-1.3,0.5-2.6,1.3-3.6,2.4l-0.2,1.3h3l-0.6,3L19.8,43.4z"/>
			<path class="st2" d="M23.6,33.2l-3.8,10.2l5.2-3.5l-0.6-3h3l-0.2-1.3C26.1,34.6,24.9,33.8,23.6,33.2"/>
			<path class="st5" d="M23.6,33.2l-3.8,10.2l5.2-3.5l-0.6-3h3l-0.2-1.3C26.1,34.6,24.9,33.8,23.6,33.2z"/>
			<line class="st1" x1="19.8" y1="43.4" x2="19.8" y2="53.2"/>
		</g>
	</g>
</g>
<path class="st4" d="M61.8,66.5c-0.1,0.1-0.1,0.1-0.1,0.2c-0.3,0.5-0.7,0.9-1.3,1.3c-0.7,0.4-1.5,0.6-2.3,0.4
	c-0.4-0.1-0.8-0.3-1.2-0.5c-0.1,0-0.1,0-0.2,0c-0.3,0.2-0.7,0.4-1,0.6c-0.9,0.4-1.8,0.5-2.8-0.2c-0.5-0.4-0.5-0.5-0.8-0.3
	c-0.4,0.4-0.9,0.6-1.4,0.8c-0.6,0.2-1.3,0.4-2,0.4c-0.8,0.1-1.6-0.1-2.2-0.7c-0.4-0.5-0.6-1.2-0.3-1.8c0.3-0.7,0.6-1.4,1-2.1
	c0.2-0.4,0.4-0.8,0.6-1.2c0-0.2,0.1-0.4-0.1-0.5c-0.2-0.1-0.4-0.1-0.5,0.1c-0.2,0.2-0.3,0.4-0.4,0.6c-0.4,0.7-0.7,1.4-1.1,2.1
	c-0.3,0.5-0.5,1.1-0.8,1.6c-0.3,0.5-0.7,0.7-1.3,0.5c-0.2-0.1-0.3-0.2-0.3-0.4c0-0.3,0.1-0.5,0.2-0.8c0.2-0.6,0.4-1.1,0.7-1.7
	c0.1-0.3,0.2-0.6,0.3-0.9c0.1-0.2,0.1-0.4,0-0.6c-0.1-0.3-0.4-0.4-0.8-0.1c-0.3,0.7-0.6,1.5-0.9,2.2c-0.3,0.8-0.7,1.7-1,2.5
	c-0.1,0.3-0.3,0.6-0.6,0.7c-0.2,0.1-0.3,0.1-0.5,0.1c-0.5,0-1-0.2-1.3-0.6C39,67.8,39,67.4,39.1,67c0.1-0.4,0.2-0.8,0.3-1.2
	c0.1-0.5,0.3-1,0.5-1.5c0.1-0.2,0.1-0.5,0.2-0.7c0.2-0.7,0.4-1.4,0.8-2.1c0.3-0.4,0.7-0.7,1.1-0.8c0.5-0.2,0.9,0,1.3,0.2
	c0.2,0.1,0.3,0.2,0.5,0.2c0.2,0.1,0.4,0,0.6-0.1c0.2-0.1,0.3-0.2,0.4-0.4c0.3-0.3,1.1-0.4,1.5,0c0.2,0.2,0.4,0.3,0.5,0.5
	c0.6-0.5,1.3-0.5,1.9-0.3c0.3,0.1,0.5,0.4,0.6,0.7c0.2,0.5,0.1,0.9-0.1,1.4c-0.3,0.8-0.7,1.6-1,2.4c-0.2,0.5-0.3,1-0.5,1.5
	c-0.1,0.2-0.1,0.4,0,0.6c0.1,0.3,0.4,0.4,0.6,0.4c0.4,0.1,0.9,0,1.3-0.1c0.4-0.1,0.7-0.2,1.1-0.3c0.2-0.1,0.3-0.2,0.5-0.2
	c0.2-0.1,0.1-0.2,0-0.3c-0.2-0.2-0.3-0.5-0.4-0.7c-0.3-0.6-0.5-1.2-0.5-1.8c0.1-0.6,0.3-1.1,0.8-1.4c0.8-0.4,1.4-0.3,2,0.3
	c0.5,0.6,0.7,1.3,0.4,2c-0.1,0.4-0.3,0.8-0.4,1.2c0,0.1,0,0.2,0.1,0.2c0.3,0.3,0.7,0.5,1.1,0.7c0.2,0.1,0.3,0.1,0.5,0.1
	c0.4,0.1,0.7,0,1-0.2c0.1-0.1,0.1-0.2,0-0.3c-0.7-0.9-0.9-2-0.7-3.1c0.1-0.4,0.3-0.8,0.7-0.9c0.3-0.1,0.6-0.1,0.9,0
	c0.5,0.1,0.9,0.2,1.2,0.7c0.3,0.5,0.4,1,0.3,1.6c-0.1,0.4-0.3,0.8-0.6,1.1c-0.1,0.1-0.1,0.3,0,0.4c0.2,0.1,0.4,0.3,0.6,0.4
	c0.5,0.2,1,0.2,1.5,0c0.5-0.2,0.9-0.5,1.2-1.1c0.3-0.6,0.3-1.3,0.3-2c0-0.5,0-1.1,0-1.6c0-0.2,0-0.2-0.2-0.2c-0.5,0.1-1,0.2-1.4,0.3
	c-0.2,0-0.3,0-0.5,0.1c-0.3,0.1-0.6-0.1-0.6-0.5c0-0.4-0.1-0.8-0.1-1.2c0,0,0,0,0-0.1c0-0.5,0.1-0.7,0.6-0.7c0.7,0,1.4,0,2,0.1
	c0-0.3,0-0.7,0.1-1c0-0.3,0.1-0.4,0.4-0.4c0.2,0,0.4,0,0.6,0.1c0.3,0.1,0.4,0.2,0.4,0.5c0,0.2,0,0.4,0,0.7c0,0.2,0,0.2,0.2,0.3
	c0.5,0.1,1,0.1,1.5,0.2c0.2,0,0.4,0.1,0.4,0.3c0.1,0.3,0,0.5-0.2,0.6c-0.4,0.1-0.8,0.2-1.2,0.3c-0.1,0-0.3,0-0.4,0.1
	c-0.2,0-0.3,0.1-0.3,0.3c0,0.9,0,1.8,0,2.6c0,0.6,0.1,1.3,0.6,1.8c0.8,0,1.4-0.2,2-0.7c0.2-0.2,0.4-0.4,0.4-0.8
	c0-0.6,0.1-1.2,0.1-1.8c0-0.2,0-0.4,0.1-0.5c0-0.1,0.1-0.2,0.2-0.2c0.5,0,0.9,0,1.4,0c0.3,0,0.5,0.3,0.5,0.6c0,0.8-0.2,1.6-0.2,2.4
	c-0.4,0.8,0.2,1.2,0.7,1.2c0.3,0,0.6-0.1,0.7-0.5c0.3-0.7,0.3-1.4,0.4-2.1c0-0.3,0.1-0.5,0.1-0.8c0-0.3,0.2-0.5,0.4-0.5
	c0.2,0,0.5,0,0.6,0.2c0.1,0.2,0,0.4,0,0.5c-0.1,0.7-0.2,1.3-0.2,2c0,0.4,0.2,0.7,0.6,0.8c0.2,0.1,0.4,0.1,0.6,0.1
	c0.4,0,0.6-0.2,0.7-0.6c0.1-0.3,0.1-0.7,0.1-1c0-0.4,0-0.8,0.1-1.2c0.1-0.6,0.5-1.1,1.2-1.3c0.4-0.1,0.9-0.1,1.3-0.1
	c0.7,0.1,1.3,0.5,1.6,1.3c0.2,0.6,0.1,1.1-0.1,1.7c-0.2,0.6-0.6,1.1-1.2,1.5c-0.1,0-0.1,0.1-0.1,0.2c0.1,0,0.1,0.1,0.2,0.1
	c0.7,0,1.3-0.2,1.9-0.5c0.1-0.1,0.3-0.1,0.4-0.2c0.1-0.1,0.2,0,0.2,0.1c-0.1,0.2-0.1,0.4-0.2,0.5c-0.5,0.6-1.2,0.9-1.9,1
	c-0.5,0-1-0.1-1.5,0c0,0,0,0,0,0c-0.3-0.1-0.4-0.1-0.5,0.1c-0.2,0.8-0.3,1.7-0.4,2.5c-0.1,0.5-0.2,1.1-0.3,1.6
	c-0.1,0.3-0.3,0.5-0.6,0.5c-0.2,0-0.3,0-0.4-0.2c-0.1-0.1-0.1-0.3-0.1-0.4c-0.1-0.7,0-1.5,0.1-2.2c0-0.4,0.1-0.7,0.1-1.1
	c0-0.3,0.1-0.5,0.1-0.8c0-0.2,0-0.3-0.2-0.3c-0.4-0.1-0.8-0.2-1.2-0.3c-0.3-0.1-0.5,0-0.7,0.2c-0.3,0.3-0.5,0.5-0.9,0.6
	c-0.4,0.2-0.8,0.1-1.2,0.1c-0.6-0.1-1.1-0.4-1.4-0.9c-0.1-0.2-0.2-0.3-0.3-0.5c0-0.1-0.1-0.1-0.2-0.1c-0.4,0.2-0.8,0.4-1.2,0.6
	c-0.5,0.2-0.9,0.3-1.4,0.1c-0.5-0.1-0.8-0.4-1.1-0.8C62,66.7,61.9,66.6,61.8,66.5z M75.4,64.6c0-0.2,0-0.5-0.6-0.6
	c-0.2,0.1-0.4,0.3-0.5,0.5c-0.3,0.5-0.5,1-0.6,1.6c-0.1,0.3-0.1,0.5,0,0.8c0.6-0.3,1-0.8,1.4-1.3C75.2,65.2,75.4,64.9,75.4,64.6z
	 M57.6,64.8c0-0.3-0.1-0.5-0.2-0.7c-0.1-0.1-0.2-0.1-0.4-0.1c-0.2,0.1-0.3,0.2-0.3,0.4c0,0.4,0.2,0.8,0.4,1.2c0.1,0.2,0.2,0.2,0.3,0
	C57.6,65.4,57.6,65.1,57.6,64.8z M53.2,64.8c0-0.2-0.1-0.3-0.1-0.5c-0.1-0.2-0.3-0.3-0.5-0.2c-0.2,0.1-0.3,0.2-0.3,0.4
	c0,0.2,0.1,0.5,0.1,0.7c0,0.2,0.1,0.3,0.2,0.5c0.1,0.2,0.2,0.2,0.3,0C53,65.4,53.1,65.1,53.2,64.8z"/>
<g>
	<path class="st4" d="M49.2,31.7v-2.6l9.2-4v2.7L52,30.4l6.4,2.6v2.7L49.2,31.7z"/>
	<path class="st4" d="M64.9,25.9c0,0.3-0.1,1-0.1,1.3c0,1.5,0.6,2,2.1,2h0.5v2.2h-0.5c-1.5,0-2.1,0.5-2.1,2c0,0.3,0.1,1,0.1,1.3
		c0,1.9-1,3.1-4.4,3.8L60,36.5c2-0.6,2.3-1.1,2.3-2.3c0-0.4-0.1-1-0.1-1.4c0-1.4,0.7-2.1,2-2.5c-1.3-0.4-2-1.2-2-2.5
		c0-0.4,0.1-1,0.1-1.4c0-1.2-0.3-1.7-2.3-2.3l0.5-1.9C63.9,22.7,64.9,24,64.9,25.9z"/>
</g>
</svg>
