<?xml version="1.0" encoding="utf-8"?>
<!-- Generator: Adobe Illustrator 22.0.0, SVG Export Plug-In . SVG Version: 6.00 Build 0)  -->
<svg version="1.1" id="Layer_1" xmlns="http://www.w3.org/2000/svg" xmlns:xlink="http://www.w3.org/1999/xlink" x="0px" y="0px"
	 viewBox="0 0 88 78.5" style="enable-background:new 0 0 88 78.5;" xml:space="preserve">
<style type="text/css">
	.st0{fill:#F2FAFA;}
	.st1{fill:none;stroke:#1C184E;stroke-linecap:round;stroke-linejoin:round;}
	.st2{fill:#FFFFFF;}
	.st3{fill:#E9F6F6;}
	.st4{fill:#1C184E;}
</style>
<title>Resurs 46</title>
<g id="Lager_2">
	<g id="Layer_1_1_">
		<path class="st0" d="M84,40C84,17.9,66.1,0,44,0S4,17.9,4,40c0,5.7,1.2,11.3,3.6,16.5h72.9C82.8,51.3,84,45.7,84,40"/>
		<line class="st1" x1="5" y1="56.5" x2="83" y2="56.5"/>
		<line class="st1" x1="0.5" y1="56.5" x2="3" y2="56.5"/>
		<line class="st1" x1="85" y1="56.5" x2="87.5" y2="56.5"/>
		<path class="st2" d="M78,41H39V21.5c0-1.1,0.9-2,2-2h35c1.1,0,2,0.9,2,2V41z"/>
		<path class="st1" d="M78,41H39V21.5c0-1.1,0.9-2,2-2h35c1.1,0,2,0.9,2,2V41z"/>
		<path class="st3" d="M80.3,42.2c0,0.7-0.5,1.2-1.2,1.2H38.2c-0.7,0-1.2-0.6-1.2-1.2s0.6-1.2,1.2-1.2h40.9
			C79.8,41,80.3,41.6,80.3,42.2"/>
		<path class="st1" d="M80.3,42.2c0,0.7-0.5,1.2-1.2,1.2H38.2c-0.7,0-1.2-0.6-1.2-1.2s0.6-1.2,1.2-1.2h40.9
			C79.8,41,80.3,41.6,80.3,42.2z"/>
		<path class="st2" d="M72.5,46h-25c-0.6,0-1,0.4-1,1v1c0,0.6,0.4,1,1,1h25c0.6,0,1-0.4,1-1v-1C73.5,46.4,73.1,46,72.5,46"/>
		<path class="st1" d="M47.5,46h25c0.6,0,1,0.4,1,1v1c0,0.6-0.4,1-1,1h-25c-0.6,0-1-0.4-1-1v-1C46.5,46.4,46.9,46,47.5,46z"/>
		<rect x="47.5" y="49" class="st2" width="25" height="7.5"/>
		<rect x="47.5" y="49" class="st1" width="25" height="7.5"/>
		<rect x="70" y="38" class="st2" width="2.5" height="8"/>
		<rect x="70" y="38" class="st1" width="2.5" height="8"/>
		<rect x="67.5" y="38" class="st2" width="2.5" height="8"/>
		<rect x="67.5" y="38" class="st1" width="2.5" height="8"/>
		<rect x="61" y="40.4" transform="matrix(0.3987 -0.9171 0.9171 0.3987 0.8705 84.5482)" class="st3" width="7.8" height="2.4"/>
		<rect x="61" y="40.4" transform="matrix(0.3987 -0.9171 0.9171 0.3987 0.8705 84.5482)" class="st1" width="7.8" height="2.4"/>
		<g>
			<path class="st3" d="M13,55.4v20.7h5.5l0.6-14.5c0-0.8,0.6-1.4,1.3-1.5c0.7,0.1,1.3,0.6,1.3,1.4l0.6,14.6h5.5V55.4H13z"/>
			<path class="st1" d="M13,55.5v20.6h5.6l0.6-14.5c0-0.7,0.6-1.3,1.3-1.4c0.7,0.1,1.3,0.6,1.3,1.4l0.6,14.5H28V55.5H13z"/>
			<path class="st2" d="M36.5,50.7L36.5,50.7c-0.5,0.4-1.1,0.6-1.7,0.5c-1.5,0-2.8-1.2-2.9-2.8v-2.8c0-6.5-5.1-11.8-11.5-12
				C14.1,33.9,9,39.2,9,45.7v9.8h19v-7c0,3.8,3.1,6.9,6.9,6.9c0,0,0,0,0,0c1.7,0.1,3.4-0.6,4.6-1.8L36.5,50.7z"/>
			<path class="st1" d="M36.5,50.7L36.5,50.7c-0.5,0.4-1.1,0.6-1.7,0.5c-1.5,0-2.8-1.2-2.9-2.8v-2.8c0-6.5-5.1-11.8-11.5-12
				C14.1,33.9,9,39.2,9,45.7v9.8h19v-7c0,3.8,3.1,6.9,6.9,6.9c0,0,0,0,0,0c1.7,0.1,3.4-0.6,4.6-1.8L36.5,50.7z"/>
			<polygon class="st3" points="20.5,47.4 22.3,42.6 20.5,34.2 18.7,42.6 			"/>
			<polygon class="st1" points="20.5,47.4 22.3,42.6 20.5,34.2 18.7,42.6 			"/>
			<path class="st2" d="M20.5,33.6c-2.1,0-4.1,0.6-5.9,1.8l1.8,2.3c0.4,0.5,1.1,0.5,1.6,0.1c0,0,0.1-0.1,0.1-0.1l2.3-1.8l2.3,1.8
				c0.4,0.5,1.1,0.6,1.6,0.2c0.1,0,0.1-0.1,0.2-0.2l1.8-2.3C24.6,34.3,22.5,33.7,20.5,33.6"/>
			<path class="st1" d="M20.5,33.6c-2.1,0-4.1,0.6-5.9,1.8l1.8,2.3c0.4,0.5,1.1,0.5,1.6,0.1c0,0,0.1-0.1,0.1-0.1l2.3-1.8l2.3,1.8
				c0.4,0.5,1.1,0.6,1.6,0.2c0.1,0,0.1-0.1,0.2-0.2l1.8-2.3C24.6,34.3,22.6,33.7,20.5,33.6z"/>
			<path class="st2" d="M23.4,34.1c-0.9-0.3-1.9-0.4-2.9-0.4c-1,0-1.9,0.2-2.9,0.4c0.1,1,1.3,1.9,2.9,1.9S23.3,35.1,23.4,34.1"/>
			<path class="st1" d="M23.4,34.1c-0.9-0.3-1.9-0.4-2.9-0.4c-1,0-1.9,0.2-2.9,0.4c0.1,1,1.3,1.9,2.9,1.9S23.3,35.1,23.4,34.1z"/>
			<path class="st1" d="M41,47.9c-1-0.6-2.3-0.3-2.8,0.7c0,0,0,0,0,0c-0.4,0.8-0.9,1.5-1.6,2.1l3,2.9c0.9-0.8,1.7-1.7,2.2-2.8
				C42.3,49.8,42,48.5,41,47.9C41,47.9,41,47.9,41,47.9z"/>
			<path class="st2" d="M36.5,50.7L36.5,50.7c-0.5,0.4-1.1,0.6-1.7,0.5c-1.5,0-2.8-1.2-2.9-2.8v-2.8c0-4.6-2.6-8.9-6.8-10.9
				l-4.7,12.7l-4.7-12.7C11.6,36.8,9,41.1,9,45.7v9.8h19v-7c0,3.8,3.1,6.9,6.9,6.9c0,0,0,0,0,0c1.7,0.1,3.4-0.6,4.6-1.8L36.5,50.7z"
				/>
			<path class="st1" d="M36.5,50.7L36.5,50.7c-0.5,0.4-1.1,0.6-1.7,0.5c-1.5,0-2.8-1.2-2.9-2.8v-2.8c0-4.6-2.6-8.9-6.8-10.9
				l-4.7,12.7l-4.7-12.7C11.6,36.8,9,41.1,9,45.7v9.8h19v-7c0,3.8,3.1,6.9,6.9,6.9c0,0,0,0,0,0c1.7,0.1,3.4-0.6,4.6-1.8L36.5,50.7z"
				/>
			<line class="st1" x1="28" y1="48.5" x2="28" y2="42.2"/>
			<line class="st1" x1="13" y1="55.4" x2="13" y2="42.2"/>
			<line class="st1" x1="39.5" y1="50.3" x2="49" y2="37"/>
			<path class="st0" d="M32,77.3c0,1-5.1,1.7-11.5,1.7S9,78.3,9,77.3s5.1-1.7,11.5-1.7S32,76.4,32,77.3"/>
			<path class="st2" d="M12.3,75c-0.3,0.5-0.2,1.2,0.3,1.6c0.2,0.1,0.4,0.2,0.7,0.2H18c0.4,0,0.8-0.2,1-0.6c0.2-0.4,0.2-0.8,0-1.1
				C17.8,72.7,13.7,72.8,12.3,75"/>
			<path class="st1" d="M12.3,75c-0.3,0.5-0.2,1.2,0.3,1.6c0.2,0.1,0.4,0.2,0.7,0.2H18c0.4,0,0.8-0.2,1-0.6c0.2-0.4,0.2-0.8,0-1.1
				C17.7,72.7,13.7,72.8,12.3,75z"/>
			<path class="st2" d="M28.7,75c0.3,0.5,0.2,1.2-0.3,1.6c-0.2,0.1-0.4,0.2-0.7,0.2H23c-0.4,0-0.8-0.2-1-0.6c-0.2-0.4-0.2-0.8,0-1.1
				C23.3,72.7,27.3,72.8,28.7,75"/>
			<path class="st1" d="M28.7,75c0.3,0.5,0.2,1.2-0.3,1.6c-0.2,0.1-0.4,0.2-0.7,0.2H23c-0.4,0-0.8-0.2-1-0.6c-0.2-0.4-0.2-0.8,0-1.1
				C23.3,72.7,27.3,72.8,28.7,75z"/>
			<path class="st2" d="M9,55.5v2.6c0,1.1,0.9,2,2,2s2-0.9,2-2c0,0,0,0,0,0v-2.6H9z"/>
			<path class="st1" d="M9,55.5v2.6c0,1.1,0.9,2,2,2s2-0.9,2-2c0,0,0,0,0,0v-2.6H9z"/>
			<path class="st2" d="M28.5,24.4c0-0.7-0.5-1.3-1.1-1.4v-0.9c0-3.8-3.1-6.9-6.9-6.9c-3.8,0-6.9,3.1-6.9,6.9c0,0,0,0,0,0v0.9
				c-0.8,0.1-1.3,0.8-1.2,1.6c0.1,0.7,0.7,1.1,1.3,1.2c0.8,3.7,4.4,6.1,8.2,5.3c2.7-0.6,4.8-2.7,5.3-5.3
				C28,25.8,28.5,25.2,28.5,24.4"/>
			<path class="st1" d="M28.5,24.4c0-0.7-0.5-1.3-1.1-1.4v-0.9c0-3.8-3.1-6.9-6.9-6.9c-3.8,0-6.9,3.1-6.9,6.9c0,0,0,0,0,0v0.9
				c-0.8,0.1-1.3,0.8-1.2,1.6c0.1,0.7,0.7,1.1,1.3,1.2c0.8,3.7,4.4,6.1,8.2,5.3c2.7-0.6,4.8-2.7,5.3-5.3
				C28,25.8,28.5,25.2,28.5,24.4z"/>
			<path class="st3" d="M17.6,25.3c0,0.5-0.4,0.9-0.9,0.9s-0.9-0.4-0.9-0.9c0-0.5,0.4-0.9,0.9-0.9c0,0,0,0,0,0
				C17.2,24.4,17.6,24.8,17.6,25.3"/>
			<path class="st3" d="M25.1,25.3c0,0.5-0.4,0.9-0.9,0.9c-0.5,0-0.9-0.4-0.9-0.9c0-0.5,0.4-0.9,0.9-0.9S25.1,24.8,25.1,25.3
				C25.1,25.3,25.1,25.3,25.1,25.3"/>
			<path class="st1" d="M22.2,27.3c-0.5,0.4-1.1,0.6-1.7,0.6c-0.6,0-1.2-0.2-1.7-0.6"/>
			<path class="st4" d="M17.9,22.1c-0.5,0-0.9,0.4-0.8,0.9c0,0.5,0.4,0.9,0.9,0.8c0.5,0,0.8-0.4,0.8-0.9
				C18.8,22.5,18.4,22.1,17.9,22.1C17.9,22.1,17.9,22.1,17.9,22.1"/>
			<path class="st4" d="M23.1,22.1c-0.5,0-0.9,0.4-0.9,0.9c0,0.5,0.4,0.9,0.9,0.9c0.5,0,0.9-0.4,0.9-0.9
				C24,22.5,23.6,22.2,23.1,22.1C23.1,22.1,23.1,22.1,23.1,22.1"/>
			<path class="st2" d="M31.3,20.6c0.3-0.5,0.1-1.1-0.4-1.4c0,0,0,0-0.1,0l-2.4-1.1l0.6,0.1c0.6,0.1,1.1-0.3,1.1-0.9
				c0.1-0.6-0.3-1.1-0.9-1.1l-2.5-0.3l1.2-0.7c0.5-0.3,0.7-0.9,0.4-1.3c0,0,0,0,0-0.1c-0.3-0.5-0.9-0.7-1.3-0.4c0,0,0,0-0.1,0
				l-2.7,1.5l0.9-1c0.4-0.4,0.4-1.1,0-1.5c-0.4-0.4-1.1-0.4-1.5,0l-2,1.8v-2c-0.1-0.6-0.7-1.1-1.3-1c-0.5,0.1-0.9,0.5-1,1v2
				l-1.9-1.8c-0.4-0.4-1-0.5-1.5-0.1s-0.5,1-0.1,1.5l0,0l0.9,1l-2.7-1.5c-0.5-0.3-1.1-0.1-1.4,0.4c-0.3,0.5-0.1,1.1,0.4,1.4l1.2,0.7
				l-2.5,0.3c-0.6,0.1-0.9,0.6-0.9,1.1c0.1,0.6,0.6,0.9,1.1,0.9h0.6l-2.4,1.1c-0.5,0.2-0.7,0.8-0.5,1.3c0.2,0.5,0.8,0.7,1.3,0.5
				l-0.9,0.7c-0.4,0.4-0.5,1-0.1,1.5s1,0.5,1.5,0.1l2.1-1.2v1c0,0,1.2-0.3,1.5-2.2c0.1-0.7,0.8-1.3,1.6-1.1c0,0,0,0,0,0
				c1.2,0.2,2.5,0.4,3.8,0.3c1.3,0,2.5-0.1,3.8-0.3c0.7-0.1,1.5,0.3,1.6,1.1c0,0,0,0,0,0c0.3,1.9,1.5,2.2,1.5,2.2v-1l2.1,1.2
				c0.4,0.4,1.1,0.3,1.5-0.1c0.4-0.4,0.3-1.1-0.1-1.5L30,21.1C30.5,21.3,31.1,21.1,31.3,20.6C31.3,20.6,31.3,20.6,31.3,20.6"/>
			<path class="st1" d="M31.3,20.6c0.3-0.5,0.1-1.1-0.4-1.4c0,0,0,0-0.1,0l-2.4-1.1l0.6,0.1c0.6,0.1,1.1-0.3,1.1-0.9
				c0.1-0.6-0.3-1.1-0.9-1.1l-2.5-0.3l1.2-0.7c0.5-0.3,0.7-0.9,0.4-1.3c0,0,0,0,0-0.1c-0.3-0.5-0.9-0.7-1.3-0.4c0,0,0,0-0.1,0
				l-2.7,1.5l0.9-1c0.4-0.4,0.4-1.1,0-1.5c-0.4-0.4-1.1-0.4-1.5,0l-2,1.8v-2c-0.1-0.6-0.7-1.1-1.3-1c-0.5,0.1-0.9,0.5-1,1v2
				l-1.9-1.8c-0.4-0.4-1-0.5-1.5-0.1s-0.5,1-0.1,1.5l0,0l0.9,1l-2.7-1.5c-0.5-0.3-1.1-0.1-1.4,0.4c-0.3,0.5-0.1,1.1,0.4,1.4l1.2,0.7
				l-2.5,0.3c-0.6,0.1-0.9,0.6-0.9,1.1c0.1,0.6,0.6,0.9,1.1,0.9h0.6l-2.4,1.1c-0.5,0.2-0.7,0.8-0.5,1.3c0.2,0.5,0.8,0.7,1.3,0.5
				l-0.9,0.7c-0.4,0.4-0.5,1-0.1,1.5s1,0.5,1.5,0.1l2.1-1.2v1c0,0,1.2-0.3,1.5-2.2c0.1-0.7,0.8-1.3,1.6-1.1c0,0,0,0,0,0
				c1.2,0.2,2.5,0.4,3.8,0.3c1.3,0,2.5-0.1,3.8-0.3c0.7-0.1,1.5,0.3,1.6,1.1c0,0,0,0,0,0c0.3,1.9,1.5,2.2,1.5,2.2v-1l2.1,1.2
				c0.4,0.4,1.1,0.3,1.5-0.1c0.4-0.4,0.3-1.1-0.1-1.5L30,21.1C30.5,21.3,31.1,21.1,31.3,20.6C31.3,20.6,31.3,20.6,31.3,20.6z"/>
			<line class="st1" x1="20.5" y1="47.4" x2="20.5" y2="55.4"/>
		</g>
	</g>
</g>
<path class="st4" d="M61.8,66.5c-0.1,0.1-0.1,0.1-0.1,0.2c-0.3,0.5-0.7,0.9-1.3,1.3c-0.7,0.4-1.5,0.6-2.3,0.4
	c-0.4-0.1-0.8-0.3-1.2-0.5c-0.1,0-0.1,0-0.2,0c-0.3,0.2-0.7,0.4-1,0.6c-0.9,0.4-1.8,0.5-2.8-0.2c-0.5-0.4-0.5-0.5-0.8-0.3
	c-0.4,0.4-0.9,0.6-1.4,0.8c-0.6,0.2-1.3,0.4-2,0.4c-0.8,0.1-1.6-0.1-2.2-0.7c-0.4-0.5-0.6-1.2-0.3-1.8c0.3-0.7,0.6-1.4,1-2.1
	c0.2-0.4,0.4-0.8,0.6-1.2c0-0.2,0.1-0.4-0.1-0.5c-0.2-0.1-0.4-0.1-0.5,0.1c-0.2,0.2-0.3,0.4-0.4,0.6c-0.4,0.7-0.7,1.4-1.1,2.1
	c-0.3,0.5-0.5,1.1-0.8,1.6c-0.3,0.5-0.7,0.7-1.3,0.5c-0.2-0.1-0.3-0.2-0.3-0.4c0-0.3,0.1-0.5,0.2-0.8c0.2-0.6,0.4-1.1,0.7-1.7
	c0.1-0.3,0.2-0.6,0.3-0.9c0.1-0.2,0.1-0.4,0-0.6c-0.1-0.3-0.4-0.4-0.8-0.1c-0.3,0.7-0.6,1.5-0.9,2.2c-0.3,0.8-0.7,1.7-1,2.5
	c-0.1,0.3-0.3,0.6-0.6,0.7c-0.2,0.1-0.3,0.1-0.5,0.1c-0.5,0-1-0.2-1.3-0.6C39,67.8,39,67.4,39.1,67c0.1-0.4,0.2-0.8,0.3-1.2
	c0.1-0.5,0.3-1,0.5-1.5c0.1-0.2,0.1-0.5,0.2-0.7c0.2-0.7,0.4-1.4,0.8-2.1c0.3-0.4,0.7-0.7,1.1-0.8c0.5-0.2,0.9,0,1.3,0.2
	c0.2,0.1,0.3,0.2,0.5,0.2c0.2,0.1,0.4,0,0.6-0.1c0.2-0.1,0.3-0.2,0.4-0.4c0.3-0.3,1.1-0.4,1.5,0c0.2,0.2,0.4,0.3,0.5,0.5
	c0.6-0.5,1.3-0.5,1.9-0.3c0.3,0.1,0.5,0.4,0.6,0.7c0.2,0.5,0.1,0.9-0.1,1.4c-0.3,0.8-0.7,1.6-1,2.4c-0.2,0.5-0.3,1-0.5,1.5
	c-0.1,0.2-0.1,0.4,0,0.6c0.1,0.3,0.4,0.4,0.6,0.4c0.4,0.1,0.9,0,1.3-0.1c0.4-0.1,0.7-0.2,1.1-0.3c0.2-0.1,0.3-0.2,0.5-0.2
	c0.2-0.1,0.1-0.2,0-0.3c-0.2-0.2-0.3-0.5-0.4-0.7c-0.3-0.6-0.5-1.2-0.5-1.8c0.1-0.6,0.3-1.1,0.8-1.4c0.8-0.4,1.4-0.3,2,0.3
	c0.5,0.6,0.7,1.3,0.4,2c-0.1,0.4-0.3,0.8-0.4,1.2c0,0.1,0,0.2,0.1,0.2c0.3,0.3,0.7,0.5,1.1,0.7c0.2,0.1,0.3,0.1,0.5,0.1
	c0.4,0.1,0.7,0,1-0.2c0.1-0.1,0.1-0.2,0-0.3c-0.7-0.9-0.9-2-0.7-3.1c0.1-0.4,0.3-0.8,0.7-0.9c0.3-0.1,0.6-0.1,0.9,0
	c0.5,0.1,0.9,0.2,1.2,0.7c0.3,0.5,0.4,1,0.3,1.6c-0.1,0.4-0.3,0.8-0.6,1.1c-0.1,0.1-0.1,0.3,0,0.4c0.2,0.1,0.4,0.3,0.6,0.4
	c0.5,0.2,1,0.2,1.5,0c0.5-0.2,0.9-0.5,1.2-1.1c0.3-0.6,0.3-1.3,0.3-2c0-0.5,0-1.1,0-1.6c0-0.2,0-0.2-0.2-0.2c-0.5,0.1-1,0.2-1.4,0.3
	c-0.2,0-0.3,0-0.5,0.1c-0.3,0.1-0.6-0.1-0.6-0.5c0-0.4-0.1-0.8-0.1-1.2c0,0,0,0,0-0.1c0-0.5,0.1-0.7,0.6-0.7c0.7,0,1.4,0,2,0.1
	c0-0.3,0-0.7,0.1-1c0-0.3,0.1-0.4,0.4-0.4c0.2,0,0.4,0,0.6,0.1c0.3,0.1,0.4,0.2,0.4,0.5c0,0.2,0,0.4,0,0.7c0,0.2,0,0.2,0.2,0.3
	c0.5,0.1,1,0.1,1.5,0.2c0.2,0,0.4,0.1,0.4,0.3c0.1,0.3,0,0.5-0.2,0.6c-0.4,0.1-0.8,0.2-1.2,0.3c-0.1,0-0.3,0-0.4,0.1
	c-0.2,0-0.3,0.1-0.3,0.3c0,0.9,0,1.8,0,2.6c0,0.6,0.1,1.3,0.6,1.8c0.8,0,1.4-0.2,2-0.7c0.2-0.2,0.4-0.4,0.4-0.8
	c0-0.6,0.1-1.2,0.1-1.8c0-0.2,0-0.4,0.1-0.5c0-0.1,0.1-0.2,0.2-0.2c0.5,0,0.9,0,1.4,0c0.3,0,0.5,0.3,0.5,0.6c0,0.8-0.2,1.6-0.2,2.4
	c-0.4,0.8,0.2,1.2,0.7,1.2c0.3,0,0.6-0.1,0.7-0.5c0.3-0.7,0.3-1.4,0.4-2.1c0-0.3,0.1-0.5,0.1-0.8c0-0.3,0.2-0.5,0.4-0.5
	c0.2,0,0.5,0,0.6,0.2c0.1,0.2,0,0.4,0,0.5c-0.1,0.7-0.2,1.3-0.2,2c0,0.4,0.2,0.7,0.6,0.8c0.2,0.1,0.4,0.1,0.6,0.1
	c0.4,0,0.6-0.2,0.7-0.6c0.1-0.3,0.1-0.7,0.1-1c0-0.4,0-0.8,0.1-1.2c0.1-0.6,0.5-1.1,1.2-1.3c0.4-0.1,0.9-0.1,1.3-0.1
	c0.7,0.1,1.3,0.5,1.6,1.3c0.2,0.6,0.1,1.1-0.1,1.7c-0.2,0.6-0.6,1.1-1.2,1.5c-0.1,0-0.1,0.1-0.1,0.2c0.1,0,0.1,0.1,0.2,0.1
	c0.7,0,1.3-0.2,1.9-0.5c0.1-0.1,0.3-0.1,0.4-0.2c0.1-0.1,0.2,0,0.2,0.1c-0.1,0.2-0.1,0.4-0.2,0.5c-0.5,0.6-1.2,0.9-1.9,1
	c-0.5,0-1-0.1-1.5,0c0,0,0,0,0,0c-0.3-0.1-0.4-0.1-0.5,0.1c-0.2,0.8-0.3,1.7-0.4,2.5c-0.1,0.5-0.2,1.1-0.3,1.6
	c-0.1,0.3-0.3,0.5-0.6,0.5c-0.2,0-0.3,0-0.4-0.2c-0.1-0.1-0.1-0.3-0.1-0.4c-0.1-0.7,0-1.5,0.1-2.2c0-0.4,0.1-0.7,0.1-1.1
	c0-0.3,0.1-0.5,0.1-0.8c0-0.2,0-0.3-0.2-0.3c-0.4-0.1-0.8-0.2-1.2-0.3c-0.3-0.1-0.5,0-0.7,0.2c-0.3,0.3-0.5,0.5-0.9,0.6
	c-0.4,0.2-0.8,0.1-1.2,0.1c-0.6-0.1-1.1-0.4-1.4-0.9c-0.1-0.2-0.2-0.3-0.3-0.5c0-0.1-0.1-0.1-0.2-0.1c-0.4,0.2-0.8,0.4-1.2,0.6
	c-0.5,0.2-0.9,0.3-1.4,0.1c-0.5-0.1-0.8-0.4-1.1-0.8C62,66.7,61.9,66.6,61.8,66.5z M75.4,64.6c0-0.2,0-0.5-0.6-0.6
	c-0.2,0.1-0.4,0.3-0.5,0.5c-0.3,0.5-0.5,1-0.6,1.6c-0.1,0.3-0.1,0.5,0,0.8c0.6-0.3,1-0.8,1.4-1.3C75.2,65.2,75.4,64.9,75.4,64.6z
	 M57.6,64.8c0-0.3-0.1-0.5-0.2-0.7c-0.1-0.1-0.2-0.1-0.4-0.1c-0.2,0.1-0.3,0.2-0.3,0.4c0,0.4,0.2,0.8,0.4,1.2c0.1,0.2,0.2,0.2,0.3,0
	C57.6,65.4,57.6,65.1,57.6,64.8z M53.2,64.8c0-0.2-0.1-0.3-0.1-0.5c-0.1-0.2-0.3-0.3-0.5-0.2c-0.2,0.1-0.3,0.2-0.3,0.4
	c0,0.2,0.1,0.5,0.1,0.7c0,0.2,0.1,0.3,0.2,0.5c0.1,0.2,0.2,0.2,0.3,0C53,65.4,53.1,65.1,53.2,64.8z"/>
<g>
	<path class="st4" d="M49.2,31.7v-2.6l9.2-4v2.7L52,30.4l6.4,2.6v2.7L49.2,31.7z"/>
	<path class="st4" d="M64.9,25.9c0,0.3-0.1,1-0.1,1.3c0,1.5,0.6,2,2.1,2h0.5v2.2h-0.5c-1.5,0-2.1,0.5-2.1,2c0,0.3,0.1,1,0.1,1.3
		c0,1.9-1,3.1-4.4,3.8L60,36.5c2-0.6,2.3-1.1,2.3-2.3c0-0.4-0.1-1-0.1-1.4c0-1.4,0.7-2.1,2-2.5c-1.3-0.4-2-1.2-2-2.5
		c0-0.4,0.1-1,0.1-1.4c0-1.2-0.3-1.7-2.3-2.3l0.5-1.9C63.9,22.7,64.9,24,64.9,25.9z"/>
</g>
</svg>
