<svg xmlns="http://www.w3.org/2000/svg" viewBox="0 0 80 80"><defs><style>.cls-1{fill:#f2fafa;}.cls-2{fill:#e9f6f6;}.cls-3{fill:#fff;}.cls-4,.cls-5,.cls-6{fill:none;stroke:#1c184e;}.cls-4,.cls-5{stroke-linejoin:round;}.cls-5{stroke-linecap:round;}.cls-6{stroke-miterlimit:10;}</style></defs><title>Resurs 59</title><g id="Lager_2" data-name="Lager 2"><g id="Layer_1" data-name="Layer 1"><path class="cls-1" d="M80,40A40,40,0,1,1,40,0,40,40,0,0,1,80,40"/><path class="cls-2" d="M51.11,72.19c0,1-6.18,1.73-13.8,1.73s-13.8-.77-13.8-1.73,6.18-1.72,13.8-1.72,13.8.77,13.8,1.72"/><path class="cls-3" d="M53.18,26.19a2.77,2.77,0,0,0-2.76-2.76H48.86a13.12,13.12,0,0,0-23.1,0H24.2a2.77,2.77,0,0,0-2.76,2.76V62.07a2.76,2.76,0,0,0,2.76,2.76H50.42a2.76,2.76,0,0,0,2.76-2.76Zm-11-2.76H32.48a1.38,1.38,0,1,1,0-2.76h9.66a1.38,1.38,0,1,1,0,2.76"/><rect class="cls-2" x="25.58" y="27.57" width="23.46" height="33.12" rx="1.15" ry="1.15"/><rect class="cls-4" x="25.58" y="27.57" width="23.46" height="33.12" rx="1.15" ry="1.15"/><path class="cls-4" d="M53.18,26.19a2.77,2.77,0,0,0-2.76-2.76H48.86a13.12,13.12,0,0,0-23.1,0H24.2a2.77,2.77,0,0,0-2.76,2.76V62.07a2.76,2.76,0,0,0,2.76,2.76H50.42a2.76,2.76,0,0,0,2.76-2.76Zm-11-2.76H32.48a1.38,1.38,0,1,1,0-2.76h9.66a1.38,1.38,0,1,1,0,2.76Z"/><line class="cls-5" x1="31.1" y1="49.65" x2="43.52" y2="49.65"/><line class="cls-5" x1="33.86" y1="52.41" x2="40.76" y2="52.41"/><path class="cls-4" d="M36.62,20.67h0V19.29a11,11,0,0,1,22.08,0V44.82a4.83,4.83,0,0,0,9.66,0V20.67a8.28,8.28,0,0,0-8.28-8.27H49a8.28,8.28,0,0,0-7.59,5"/><path class="cls-3" d="M48,60.69H26.58a1,1,0,0,1-1-1V55.86H49v3.83a1,1,0,0,1-1,1"/><path class="cls-5" d="M48,60.69H26.58a1,1,0,0,1-1-1V55.86H49v3.83A1,1,0,0,1,48,60.69Z"/><path class="cls-3" d="M34.55,35.16a2.76,2.76,0,1,0,5.52,0V33.79a2.76,2.76,0,0,0-5.52,0Z"/><path class="cls-6" d="M34.55,35.16a2.76,2.76,0,1,0,5.52,0V33.79a2.76,2.76,0,0,0-5.52,0Z"/><path class="cls-6" d="M39.58,32.18a4.6,4.6,0,0,1-5,1.26"/><path class="cls-3" d="M31.1,46.78v-.35a6.21,6.21,0,0,1,12.42,0v.35Z"/><path class="cls-4" d="M31.1,46.78v-.35a6.21,6.21,0,0,1,12.42,0v.35Z"/></g></g></svg>