<svg xmlns="http://www.w3.org/2000/svg" viewBox="0 0 88 57"><defs><style>.cls-1{fill:#f2fafa;}.cls-2{fill:none;stroke:#1c184e;stroke-linecap:round;stroke-linejoin:round;}.cls-3{fill:#fff;}.cls-4{fill:#e9f6f6;}</style></defs><title>Resurs 40</title><g id="Lager_2" data-name="Lager 2"><g id="Layer_1" data-name="Layer 1"><path class="cls-1" d="M84,40A40,40,0,1,0,7.56,56.5H80.44A39.88,39.88,0,0,0,84,40"/><line class="cls-2" x1="5" y1="56.5" x2="83" y2="56.5"/><line class="cls-2" x1="0.5" y1="56.5" x2="3" y2="56.5"/><line class="cls-2" x1="85" y1="56.5" x2="87.5" y2="56.5"/><path class="cls-3" d="M64.6,44.5a6.9,6.9,0,0,0-5.77,3.12,3.22,3.22,0,0,0-2-.72,3.3,3.3,0,0,0-3.3,3.3c0,.43.21.3-.6.3a4.19,4.19,0,0,0-4.06,3.18c-1-1.2-3.14-2.18-3.14-8H43.3c0,5.78-2.18,6.78-3.14,8A4.19,4.19,0,0,0,36.1,50.5c-.81,0-.6.13-.6-.3a3.3,3.3,0,0,0-3.3-3.3,3.22,3.22,0,0,0-2,.72A6.9,6.9,0,1,0,19.76,56.5H69.24a6.9,6.9,0,0,0-4.64-12"/><path class="cls-2" d="M64.6,44.5a6.9,6.9,0,0,0-5.77,3.12,3.22,3.22,0,0,0-2-.72,3.3,3.3,0,0,0-3.3,3.3c0,.43.21.3-.6.3a4.19,4.19,0,0,0-4.06,3.18c-1-1.2-3.14-2.18-3.14-8H43.3c0,5.78-2.18,6.78-3.14,8A4.19,4.19,0,0,0,36.1,50.5c-.81,0-.6.13-.6-.3a3.3,3.3,0,0,0-3.3-3.3,3.22,3.22,0,0,0-2,.72A6.9,6.9,0,1,0,19.76,56.5H69.24a6.9,6.9,0,0,0-4.64-12Z"/><path class="cls-4" d="M49.3,28.3c1.74,11,5.16,9.7,5.39,14.49a.5.5,0,0,1-.5.51H49.3Z"/><path class="cls-2" d="M49.3,28.3c1.74,11,5.16,9.7,5.39,14.49a.5.5,0,0,1-.5.51H49.3Z"/><path class="cls-4" d="M39.7,28.3c-1.74,11-5.16,9.7-5.39,14.49a.5.5,0,0,0,.5.51H39.7Z"/><path class="cls-2" d="M39.7,28.3c-1.74,11-5.16,9.7-5.39,14.49a.5.5,0,0,0,.5.51H39.7Z"/><rect class="cls-4" x="39.7" y="40.9" width="9.6" height="2.4"/><rect class="cls-2" x="39.7" y="40.9" width="9.6" height="2.4"/><path class="cls-4" d="M45.7,46.9H43.3a2.39,2.39,0,0,1-2.4-2.4V43.3h7.2v1.2a2.39,2.39,0,0,1-2.4,2.4"/><path class="cls-2" d="M45.7,46.9H43.3a2.39,2.39,0,0,1-2.4-2.4V43.3h7.2v1.2A2.39,2.39,0,0,1,45.7,46.9Z"/><path class="cls-2" d="M32.3,52.9a4.21,4.21,0,0,1,3.8-2.4"/><path class="cls-2" d="M28.9,50.2a3.3,3.3,0,0,1,3.3-3.3"/><path class="cls-2" d="M56.7,52.9a4.21,4.21,0,0,0-3.8-2.4"/><path class="cls-2" d="M60.1,50.2a3.3,3.3,0,0,0-3.3-3.3"/><path class="cls-3" d="M54.1,24.1a9.6,9.6,0,1,0-19.2,0,9.43,9.43,0,0,0,1.54,5.2A22.33,22.33,0,0,1,39.7,40.9h9.6a22.21,22.21,0,0,1,3.26-11.6,9.43,9.43,0,0,0,1.54-5.2"/><path class="cls-2" d="M54.1,24.1a9.6,9.6,0,1,0-19.2,0,9.43,9.43,0,0,0,1.54,5.2A22.33,22.33,0,0,1,39.7,40.9h9.6a22.21,22.21,0,0,1,3.26-11.6A9.43,9.43,0,0,0,54.1,24.1Z"/><line class="cls-2" x1="48.7" y1="22.3" x2="46.3" y2="40.9"/><line class="cls-2" x1="42.7" y1="40.9" x2="40.3" y2="22.3"/><path class="cls-2" d="M40.92,27.08l1.43-1.92a.51.51,0,0,1,.76-.05l1,1a.5.5,0,0,0,.7,0l1-1a.49.49,0,0,1,.75.05l1.44,1.92"/></g></g></svg>