<svg xmlns="http://www.w3.org/2000/svg" xmlns:xlink="http://www.w3.org/1999/xlink" viewBox="0 0 94.16 82"><defs><style>.cls-1,.cls-5,.cls-7{fill:none;}.cls-2{fill:#f2fafa;}.cls-3{clip-path:url(#clip-path);}.cls-4{fill:#fff;}.cls-5,.cls-7{stroke:#1c184e;stroke-linejoin:round;}.cls-5{stroke-linecap:round;}.cls-6{fill:#e9f6f6;}.cls-8{fill:#1c184e;}</style><clipPath id="clip-path"><path class="cls-1" d="M0,40A40,40,0,1,0,40,0,40,40,0,0,0,0,40"/></clipPath></defs><title>Resurs 65</title><g id="Lager_2" data-name="Lager 2"><g id="Layer_1" data-name="Layer 1"><path class="cls-2" d="M80,40A40,40,0,1,1,40,0,40,40,0,0,1,80,40"/><g class="cls-3"><path class="cls-4" d="M64,73a15.5,15.5,0,0,0-31,0v2.5h6v5H58v-5h6Z"/><line class="cls-5" x1="39" y1="78.5" x2="58" y2="78.5"/><line class="cls-5" x1="33" y1="75.5" x2="64" y2="75.5"/><line class="cls-5" x1="33" y1="72.5" x2="64" y2="72.5"/><line class="cls-5" x1="33.4" y1="69.5" x2="63.6" y2="69.5"/><line class="cls-5" x1="34.42" y1="66.5" x2="62.58" y2="66.5"/><line class="cls-5" x1="36.25" y1="63.5" x2="60.75" y2="63.5"/><line class="cls-5" x1="39.34" y1="60.5" x2="57.66" y2="60.5"/><path class="cls-5" d="M64,73a15.5,15.5,0,0,0-31,0v2.5h6v5H58v-5h6Z"/><line class="cls-5" x1="39" y1="71.5" x2="39" y2="75.5"/><line class="cls-5" x1="58" y1="71.5" x2="58" y2="75.5"/><path class="cls-4" d="M45,58a3.5,3.5,0,0,0,7,0V54.5H45Z"/><path class="cls-5" d="M45,58V54.5h7V58a3.5,3.5,0,0,1-7,0Z"/><path class="cls-6" d="M39,79.5v1h5C47.54,77.66,56.35,67,58.92,61.89a1,1,0,0,0-.24-1.21,16.27,16.27,0,0,0-2.6-1.76,1,1,0,0,0-1.45.56C53.3,63.89,48.8,71.74,39,79.5"/><path class="cls-5" d="M39,79.5v1h5C47.54,77.66,56.35,67,58.92,61.89a1,1,0,0,0-.24-1.21,16.27,16.27,0,0,0-2.6-1.76,1,1,0,0,0-1.45.56C53.3,63.89,48.8,71.74,39,79.5Z"/><path class="cls-4" d="M58.5,44V41.5a10,10,0,0,0-20,0V44a2,2,0,0,0,0,4h.12a10,10,0,0,0,19.76,0h.12a2,2,0,0,0,0-4"/><path class="cls-5" d="M58.5,44V41.5a10,10,0,0,0-20,0V44a2,2,0,0,0,0,4h.12a10,10,0,0,0,19.76,0h.12a2,2,0,0,0,0-4Z"/><path class="cls-6" d="M44,48.25A1.25,1.25,0,1,1,42.75,47,1.25,1.25,0,0,1,44,48.25"/><path class="cls-6" d="M53,48.25A1.25,1.25,0,1,0,54.25,47,1.25,1.25,0,0,0,53,48.25"/><path class="cls-5" d="M45.5,50.79a4.38,4.38,0,0,0,6,0"/><line class="cls-5" x1="51.5" y1="56.04" x2="51.5" y2="54"/><line class="cls-5" x1="45.5" y1="56.04" x2="45.5" y2="54"/><line class="cls-5" x1="53" y1="55.43" x2="53" y2="53.5"/><line class="cls-5" x1="44" y1="55.43" x2="44" y2="53.5"/><line class="cls-5" x1="54.5" y1="54.5" x2="54.5" y2="52.5"/><line class="cls-5" x1="42.5" y1="54.5" x2="42.5" y2="52.5"/><line class="cls-5" x1="56" y1="53.1" x2="56" y2="51.5"/><line class="cls-5" x1="41" y1="53.1" x2="41" y2="51.5"/><line class="cls-5" x1="47.5" y1="43.5" x2="49.5" y2="43.5"/><line class="cls-5" x1="56.5" y1="44" x2="58.5" y2="44"/><line class="cls-5" x1="38.5" y1="44" x2="40.5" y2="44"/><path class="cls-4" d="M36,75.5a2,2,0,0,1-2-2V68l.89-.45A2,2,0,0,0,36,65.76V65.5a2,2,0,0,0-2-2V58a1.5,1.5,0,0,0-3,0v5.5H28v2.79c0,1,.5,1.21.5,1.21a1.7,1.7,0,0,1,.5,1.21v7.57a5.16,5.16,0,0,0,4.5,5.2,5,5,0,0,0,5.5-5v-1Z"/><path class="cls-5" d="M36,75.5a2,2,0,0,1-2-2V68l.89-.45A2,2,0,0,0,36,65.76V65.5a2,2,0,0,0-2-2V58a1.5,1.5,0,0,0-3,0v5.5H28v2.79c0,1,.5,1.21.5,1.21a1.7,1.7,0,0,1,.5,1.21v7.57a5.16,5.16,0,0,0,4.5,5.2,5,5,0,0,0,5.5-5v-1Z"/><path class="cls-4" d="M29.85,67.69l2.58-.64a1.9,1.9,0,0,0,1.24-2.37l-.24-1a1.9,1.9,0,0,0-2.21-1.51l-2.58.64a1.89,1.89,0,0,0-1.23,2.37l.24,1a1.89,1.89,0,0,0,2.2,1.51"/><path class="cls-4" d="M29.85,67.69l2.58-.64a1.9,1.9,0,0,0,1.24-2.37l-.24-1a1.9,1.9,0,0,0-2.21-1.51l-2.58.64a1.89,1.89,0,0,0-1.23,2.37l.24,1a1.89,1.89,0,0,0,2.2,1.51"/><path class="cls-5" d="M29.85,67.69l2.58-.64a1.9,1.9,0,0,0,1.24-2.37l-.24-1a1.9,1.9,0,0,0-2.21-1.51l-2.58.64a1.89,1.89,0,0,0-1.23,2.37l.24,1A1.89,1.89,0,0,0,29.85,67.69Z"/><path class="cls-6" d="M45.5,47h-4a1,1,0,0,1-1-1V43a.5.5,0,0,1,.5-.5h6a.5.5,0,0,1,.5.5v2a2,2,0,0,1-2,2"/><path class="cls-4" d="M46.07,42.5,41.57,47H41.5a1,1,0,0,1-1-1V43a.5.5,0,0,1,.5-.5Z"/><path class="cls-6" d="M56.5,43v3a1,1,0,0,1-1,1h-4a1.92,1.92,0,0,1-.72-.14A2,2,0,0,1,49.5,45V43a.5.5,0,0,1,.5-.5h6a.5.5,0,0,1,.5.5"/><path class="cls-4" d="M55.14,42.5l-4.36,4.36A2,2,0,0,1,49.5,45V43a.5.5,0,0,1,.5-.5Z"/><path class="cls-5" d="M45.5,47h-4a1,1,0,0,1-1-1V43a.5.5,0,0,1,.5-.5h6a.5.5,0,0,1,.5.5v2A2,2,0,0,1,45.5,47Z"/><path class="cls-5" d="M51.5,47h4a1,1,0,0,0,1-1V43a.5.5,0,0,0-.5-.5H50a.5.5,0,0,0-.5.5v2A2,2,0,0,0,51.5,47Z"/><path class="cls-5" d="M45.51,45a1.63,1.63,0,0,0-3,0"/><path class="cls-5" d="M54.5,45a1.63,1.63,0,0,0-3,0"/></g><path class="cls-4" d="M10,16.17A2.17,2.17,0,0,1,12.19,14H36a2.17,2.17,0,0,1,2.17,2.17V33A2.17,2.17,0,0,1,36,35.14H28.45v2.4a1.25,1.25,0,0,1-2.14.88L23,35.14H12.19A2.17,2.17,0,0,1,10,33Z"/><path class="cls-7" d="M10,16.17A2.17,2.17,0,0,1,12.19,14H36a2.17,2.17,0,0,1,2.17,2.17V33A2.17,2.17,0,0,1,36,35.14H28.45v2.4a1.25,1.25,0,0,1-2.14.88L23,35.14H12.19A2.17,2.17,0,0,1,10,33Z"/><path class="cls-4" d="M57.5,31H56V28a6.1,6.1,0,0,1-3.5,1.5c-1.84,0-4.78-.59-8,1a8.06,8.06,0,0,0-4,5h0a10.11,10.11,0,0,1,3-2.64C43.65,34.05,46.05,35,49,35c2.51,0,4.62-.69,5.28-1.63a10.18,10.18,0,0,1,3.19,3.73.29.29,0,0,0,0-.1,22.38,22.38,0,0,0-.5-3.5Z"/><path class="cls-5" d="M57.48,37.1A25.83,25.83,0,0,0,57,33.5l.5-2.5H56V28a6.1,6.1,0,0,1-3.5,1.5c-1.84,0-4.78-.59-8,1a8.06,8.06,0,0,0-4,5,10.05,10.05,0,0,1,2.14-2.08,1,1,0,0,1,1.25.16C44.7,34.41,46.68,35,49,35a8.63,8.63,0,0,0,4.83-1.18.91.91,0,0,1,1.12.07A10,10,0,0,1,57.48,37.1Z"/><path class="cls-4" d="M93.66,8.52A3.52,3.52,0,0,0,90.14,5H57A3.53,3.53,0,0,0,53.5,8.52V27.75A3.53,3.53,0,0,0,57,31.27h7.92v5.27a1.46,1.46,0,0,0,2.49,1l6.3-6.3H90.14a3.52,3.52,0,0,0,3.52-3.52Z"/><path class="cls-7" d="M93.66,8.52A3.52,3.52,0,0,0,90.14,5H57A3.53,3.53,0,0,0,53.5,8.52V27.75A3.53,3.53,0,0,0,57,31.27h7.92v5.27a1.46,1.46,0,0,0,2.49,1l6.3-6.3H90.14a3.52,3.52,0,0,0,3.52-3.52Z"/><path class="cls-8" d="M62.38,11.7a.36.36,0,0,1,.26.36c0,.29-.17.44-.34.44a.83.83,0,0,1-.35-.1l-2.78-1.28a.44.44,0,0,1,0-.8L62,9.05a.76.76,0,0,1,.35-.11c.17,0,.34.15.34.44a.36.36,0,0,1-.26.36l-2.34,1Z"/><path class="cls-8" d="M65.31,9.86c-.19,0-.58-.3-.91-.3s-.35.08-.35.28c0,.47,1.76.4,1.76,1.56,0,.67-.57,1.18-1.44,1.18-.57,0-1.41-.32-1.41-.78a.48.48,0,0,1,.43-.45c.4,0,.57.35,1,.35.31,0,.4-.1.4-.29,0-.46-1.76-.39-1.76-1.55a1.23,1.23,0,0,1,1.37-1.19c.5,0,1.27.24,1.27.74a.44.44,0,0,1-.41.45"/><path class="cls-8" d="M68.69,9.8c-.25,0-.48-.2-.8-.2-.58,0-.85.51-.85,1a.93.93,0,0,0,.85,1,5.49,5.49,0,0,0,.75-.22.45.45,0,0,1,.44.45c0,.52-.87.69-1.24.69A1.83,1.83,0,0,1,66,10.64a1.89,1.89,0,0,1,1.81-2c.4,0,1.24.15,1.24.64,0,.21-.15.49-.39.49"/><path class="cls-8" d="M69.42,9.22a.49.49,0,0,1,.52-.5c.27,0,.49.09.49.42h0a.8.8,0,0,1,.71-.42.49.49,0,0,1,.49.54c0,.33-.3.35-.61.49s-.61.27-.61.67V12a.51.51,0,1,1-1,0Z"/><path class="cls-8" d="M74.73,7.75a.59.59,0,0,1-.57.59.6.6,0,0,1-.57-.59.57.57,0,0,1,1.14,0M73.65,9.28a.51.51,0,1,1,1,0V12a.51.51,0,1,1-1,0Z"/><path class="cls-8" d="M75.23,9.28a.51.51,0,0,1,.5-.56.48.48,0,0,1,.51.42,1.12,1.12,0,0,1,1-.47,1.8,1.8,0,0,1,1.64,2,1.79,1.79,0,0,1-1.67,1.9,1.4,1.4,0,0,1-.93-.35v1.24a.51.51,0,1,1-1,0ZM77,11.66c.52,0,.78-.55.78-1s-.26-1-.78-1-.8.51-.8,1,.24,1.06.8,1.06"/><path class="cls-8" d="M79.51,9.64h-.22a.4.4,0,0,1-.44-.44.43.43,0,0,1,.44-.44h.22V8.15A.52.52,0,0,1,80,7.59a.51.51,0,0,1,.51.56v.61h.29a.44.44,0,1,1,0,.88h-.29V12a.51.51,0,0,1-.51.56.51.51,0,0,1-.51-.56Z"/><path class="cls-8" d="M83.91,10.72l-2.35-1a.36.36,0,0,1-.25-.36c0-.29.16-.44.34-.44a.79.79,0,0,1,.35.11l2.78,1.27a.44.44,0,0,1,0,.8L82,12.4a.87.87,0,0,1-.35.1c-.18,0-.34-.15-.34-.44a.36.36,0,0,1,.25-.36Z"/><path class="cls-8" d="M58.72,16.68a.68.68,0,0,1-.06-.29.49.49,0,0,1,.52-.5.47.47,0,0,1,.45.36l.65,2h0l.65-2a.47.47,0,0,1,.45-.36.49.49,0,0,1,.53.5.68.68,0,0,1-.06.29l-1,2.62a.5.5,0,0,1-.54.42c-.35,0-.45-.16-.55-.42Z"/><path class="cls-8" d="M65.66,19.06c0,.26,0,.66-.48.66-.3,0-.42-.16-.49-.43a1.2,1.2,0,0,1-1,.47,1.77,1.77,0,0,1-1.67-2,1.81,1.81,0,0,1,1.67-2,1.14,1.14,0,0,1,1,.47.48.48,0,0,1,.49-.42c.48,0,.48.39.48.66Zm-1.79-.22c.53,0,.78-.54.78-1s-.24-1-.78-1-.8.55-.8,1,.25,1,.8,1"/><path class="cls-8" d="M66.23,16.4a.5.5,0,0,1,.52-.51c.27,0,.49.1.49.43h0a.81.81,0,0,1,.71-.43.5.5,0,0,1,.49.55c0,.33-.3.35-.6.49s-.62.27-.62.67v1.56a.51.51,0,1,1-1,0Z"/><path class="cls-8" d="M71.54,14.93a.58.58,0,0,1-.57.59.6.6,0,0,1-.57-.59.57.57,0,0,1,1.14,0m-1.08,1.53a.51.51,0,1,1,1,0v2.7a.51.51,0,1,1-1,0Z"/><path class="cls-8" d="M77.19,16.69a.42.42,0,0,1,0,.84H74.3a.42.42,0,0,1,0-.84Zm0,1.57a.43.43,0,0,1,0,.85H74.3a.43.43,0,0,1,0-.85Z"/><path class="cls-8" d="M80.82,15.64H80.4a.45.45,0,0,1-.48-.48.48.48,0,0,1,.48-.49h1a.46.46,0,0,1,.47.5v4a.53.53,0,1,1-1.05,0Z"/><path class="cls-8" d="M82.51,17.17c0-1.14.44-2.58,1.86-2.58s1.87,1.44,1.87,2.58-.45,2.59-1.87,2.59-1.86-1.44-1.86-2.59m2.63,0c0-.53,0-1.63-.77-1.63s-.76,1.1-.76,1.63,0,1.64.76,1.64.77-1.14.77-1.64"/><path class="cls-8" d="M87.89,19.05a.63.63,0,0,1-.1.28l-.59,1.05a.47.47,0,0,1-.88-.22.71.71,0,0,1,.09-.28L87,18.82a.53.53,0,0,1,.41-.24.49.49,0,0,1,.49.47m-.55-2.64a.55.55,0,0,1,.55.55.55.55,0,0,1-.55.55.55.55,0,0,1-.55-.55.54.54,0,0,1,.55-.55"/><path class="cls-8" d="M62.38,26.06a.36.36,0,0,1,.26.35c0,.3-.17.45-.34.45a.83.83,0,0,1-.35-.1l-2.78-1.28a.4.4,0,0,1-.26-.4.39.39,0,0,1,.26-.4L62,23.4a.69.69,0,0,1,.35-.1c.17,0,.34.15.34.44a.36.36,0,0,1-.26.36l-2.34,1Z"/><path class="cls-8" d="M64.88,22a.42.42,0,0,1,.81.13.86.86,0,0,1-.06.2l-1.87,4.33a.38.38,0,0,1-.4.26.4.4,0,0,1-.42-.39.63.63,0,0,1,.07-.19Z"/><path class="cls-8" d="M68.17,24.21c-.19,0-.58-.29-.91-.29s-.34.08-.34.28c0,.47,1.76.4,1.76,1.55,0,.68-.57,1.19-1.45,1.19-.56,0-1.41-.32-1.41-.78a.49.49,0,0,1,.44-.45c.39,0,.57.35,1,.35.31,0,.4-.1.4-.29,0-.47-1.76-.4-1.76-1.56A1.23,1.23,0,0,1,67.32,23c.5,0,1.27.23,1.27.73a.44.44,0,0,1-.42.45"/><path class="cls-8" d="M71.56,24.16c-.26,0-.48-.2-.8-.2a.92.92,0,0,0-.86,1,.94.94,0,0,0,.86,1,5.69,5.69,0,0,0,.75-.21.44.44,0,0,1,.43.45c0,.52-.87.69-1.23.69a1.85,1.85,0,0,1-1.82-2,1.89,1.89,0,0,1,1.82-2c.4,0,1.23.15,1.23.64,0,.21-.14.49-.38.49"/><path class="cls-8" d="M72.29,23.58a.5.5,0,0,1,.52-.51c.26,0,.49.1.49.43h0a.8.8,0,0,1,.71-.43.49.49,0,0,1,.49.54c0,.34-.3.36-.6.5s-.61.27-.61.67v1.56a.51.51,0,1,1-1,0Z"/><path class="cls-8" d="M75.71,22.11a.58.58,0,0,1-.57.58.57.57,0,1,1,.57-.58m-1.08,1.53a.51.51,0,1,1,1,0v2.7a.51.51,0,1,1-1,0Z"/><path class="cls-8" d="M76.21,23.64a.52.52,0,0,1,.5-.57.49.49,0,0,1,.51.42,1.14,1.14,0,0,1,1-.46,1.79,1.79,0,0,1,1.63,2,1.79,1.79,0,0,1-1.66,1.91,1.46,1.46,0,0,1-.93-.35v1.24a.51.51,0,1,1-1,0ZM78,26c.53,0,.79-.55.79-1s-.26-1-.79-1-.79.51-.79,1S77.46,26,78,26"/><path class="cls-8" d="M80.49,24h-.22a.41.41,0,0,1-.45-.44.43.43,0,0,1,.45-.44h.22v-.61a.51.51,0,1,1,1,0v.61h.28c.26,0,.49.11.49.44s-.23.44-.49.44h-.28v2.34a.51.51,0,1,1-1,0Z"/><path class="cls-8" d="M84.88,25.08l-2.34-1a.35.35,0,0,1-.25-.36c0-.29.16-.44.34-.44a.87.87,0,0,1,.35.1l2.78,1.28a.39.39,0,0,1,.26.4.4.4,0,0,1-.26.4L83,26.76a.87.87,0,0,1-.35.1c-.18,0-.34-.15-.34-.45a.35.35,0,0,1,.25-.35Z"/><path class="cls-6" d="M29.53,24.51a5.48,5.48,0,0,0-.29-1.68l.82-.49A1,1,0,0,0,30.41,21l-.21-.34a1,1,0,0,0-.62-.46,1,1,0,0,0-.75.11l-.82.49a5.4,5.4,0,0,0-2.69-1.52v-.95a1,1,0,0,0-1-1h-.41a1,1,0,0,0-1,1v.95a5.32,5.32,0,0,0-2.69,1.52l-.82-.49a1.06,1.06,0,0,0-.76-.11,1,1,0,0,0-.61.46l-.21.34a1,1,0,0,0,.34,1.38l.83.49a5.48,5.48,0,0,0-.29,1.68A5.42,5.42,0,0,0,19,26.18l-.83.5a1,1,0,0,0-.34,1.37l.21.35a1,1,0,0,0,.61.46,1,1,0,0,0,.76-.12l.82-.49a5.34,5.34,0,0,0,2.69,1.53v.95a1,1,0,0,0,1,1h.41a1,1,0,0,0,1-1v-.95A5.42,5.42,0,0,0,28,28.25l.82.49a1,1,0,0,0,.75.12,1,1,0,0,0,.62-.46l.21-.35a1,1,0,0,0-.35-1.37l-.82-.5a5.42,5.42,0,0,0,.29-1.67m-5.42,2.4a2.41,2.41,0,1,1,2.41-2.4,2.39,2.39,0,0,1-2.41,2.4"/><path class="cls-7" d="M29.53,24.51a5.48,5.48,0,0,0-.29-1.68l.82-.49A1,1,0,0,0,30.41,21l-.21-.34a1,1,0,0,0-.62-.46,1,1,0,0,0-.75.11l-.82.49a5.4,5.4,0,0,0-2.69-1.52v-.95a1,1,0,0,0-1-1h-.41a1,1,0,0,0-1,1v.95a5.32,5.32,0,0,0-2.69,1.52l-.82-.49a1.06,1.06,0,0,0-.76-.11,1,1,0,0,0-.61.46l-.21.34a1,1,0,0,0,.34,1.38l.83.49a5.48,5.48,0,0,0-.29,1.68A5.42,5.42,0,0,0,19,26.18l-.83.5a1,1,0,0,0-.34,1.37l.21.35a1,1,0,0,0,.61.46,1,1,0,0,0,.76-.12l.82-.49a5.34,5.34,0,0,0,2.69,1.53v.95a1,1,0,0,0,1,1h.41a1,1,0,0,0,1-1v-.95A5.42,5.42,0,0,0,28,28.25l.82.49a1,1,0,0,0,.75.12,1,1,0,0,0,.62-.46l.21-.35a1,1,0,0,0-.35-1.37l-.82-.5A5.42,5.42,0,0,0,29.53,24.51Zm-5.42,2.4a2.41,2.41,0,1,1,2.41-2.4A2.39,2.39,0,0,1,24.11,26.91Z"/></g></g></svg>