<svg xmlns="http://www.w3.org/2000/svg" xmlns:xlink="http://www.w3.org/1999/xlink" viewBox="0 0 80 81.39"><defs><style>.cls-1,.cls-5,.cls-7{fill:none;}.cls-2{fill:#f2fafa;}.cls-3{clip-path:url(#clip-path);}.cls-4,.cls-6,.cls-8,.cls-9{fill:#fff;}.cls-5,.cls-6,.cls-7,.cls-8,.cls-9{stroke:#1c184e;}.cls-5,.cls-6,.cls-8{stroke-miterlimit:10;}.cls-7,.cls-8,.cls-9{stroke-linecap:round;}.cls-7,.cls-9{stroke-linejoin:round;}.cls-10{fill:#e9f6f6;}</style><clipPath id="clip-path"><circle class="cls-1" cx="40" cy="40" r="40"/></clipPath></defs><title>Resurs 9</title><g id="Lager_2" data-name="Lager 2"><g id="Scene"><circle class="cls-2" cx="40" cy="40" r="40"/><g class="cls-3"><path class="cls-4" d="M47.76,37.14a2.76,2.76,0,0,0-5.52,0v1.38a2.76,2.76,0,1,0-5.51,0v1.37a2.76,2.76,0,0,0-5.52,0v3.84c0,7.11,2.76,8.35,2.76,12.41V80.89l15.86-.12V61.66a4.17,4.17,0,0,1,1.64-3.33l1.8-1.43.63-13.17L47.64,42Z"/><path class="cls-5" d="M47.76,37.14a2.76,2.76,0,0,0-5.52,0v1.38a2.76,2.76,0,1,0-5.51,0v1.37a2.76,2.76,0,0,0-5.52,0v3.84c0,7.11,2.76,8.35,2.76,12.41V80.89l15.86-.12V61.66a4.17,4.17,0,0,1,1.64-3.33l1.8-1.43.63-13.17L47.64,42Z"/><path class="cls-6" d="M50,42.54a2.74,2.74,0,0,1-2.32-3.13l3.12-21.14a2.76,2.76,0,0,1,5.46.8L53.16,40.22A2.76,2.76,0,0,1,50,42.54Z"/><line class="cls-7" x1="42.24" y1="38.52" x2="42.24" y2="39.89"/><path class="cls-6" d="M45,43.22a2.77,2.77,0,0,1-2.76-2.76V33.22a2.76,2.76,0,0,1,5.52,0v7.24A2.77,2.77,0,0,1,45,43.22Z"/><line class="cls-7" x1="47.76" y1="32.7" x2="47.76" y2="34.08"/><path class="cls-8" d="M31.23,40.49l-2.66-15.1a2.76,2.76,0,1,1,5.43-1l3,16.85"/><path class="cls-6" d="M39.49,43.56a2.75,2.75,0,0,1-2.76-2.76V32.87a2.76,2.76,0,0,1,5.51,0V40.8A2.75,2.75,0,0,1,39.49,43.56Z"/><path class="cls-9" d="M49.83,61.66a4.17,4.17,0,0,1,1.64-3.33l3.82-2.94A9.14,9.14,0,0,0,59,48.28V43.62a4.14,4.14,0,0,0-4.14-4.14H49A2.75,2.75,0,1,0,49,45h4.62a9.39,9.39,0,0,0-9.33,9.09v2.07"/><path class="cls-7" d="M49.83,61.66a4.17,4.17,0,0,1,1.64-3.33l3.82-2.94A9.14,9.14,0,0,0,59,48.28V43.62a4.14,4.14,0,0,0-4.14-4.14H49A2.75,2.75,0,1,0,49,45h4.62a9.39,9.39,0,0,0-9.33,9.09v2.07"/><line class="cls-7" x1="53.64" y1="44.98" x2="55.08" y2="44.98"/><path class="cls-9" d="M52.14,68.5a.68.68,0,0,1-1,0L50,67.19a.69.69,0,0,1,0-.91L51.1,65a.7.7,0,0,1,1,0l1.15,1.31a.69.69,0,0,1,0,.91Z"/><path class="cls-9" d="M32.6,68.5a.69.69,0,0,1-.52.24.67.67,0,0,1-.51-.24l-1.16-1.31a.71.71,0,0,1,0-.91L31.57,65a.66.66,0,0,1,.51-.23.68.68,0,0,1,.52.23l1.15,1.31a.69.69,0,0,1,0,.91Z"/><rect class="cls-10" x="32.54" y="62.69" width="18.61" height="8.27" rx="1" ry="1"/><rect class="cls-7" x="32.54" y="62.69" width="18.61" height="8.27" rx="1" ry="1"/><path class="cls-9" d="M37.28,68.5a.67.67,0,0,1-1,0L35.1,67.19a.69.69,0,0,1,0-.91L36.25,65a.69.69,0,0,1,1,0l1.15,1.31a.69.69,0,0,1,0,.91Z"/><path class="cls-9" d="M45.7,68.5a.68.68,0,0,1-1,0l-1.15-1.31a.69.69,0,0,1,0-.91L44.66,65a.7.7,0,0,1,1,0l1.15,1.31a.69.69,0,0,1,0,.91Z"/></g></g></g></svg>