<svg xmlns="http://www.w3.org/2000/svg" viewBox="0 0 88 68.5"><defs><style>.cls-1{fill:#f2fafa;}.cls-2,.cls-5{fill:none;stroke:#1c184e;stroke-linejoin:round;}.cls-2{stroke-linecap:round;}.cls-3{fill:#e9f6f6;}.cls-4{fill:#fff;}.cls-6{fill:#1c184e;}</style></defs><title>Resurs 23</title><g id="Lager_2" data-name="Lager 2"><g id="Layer_1" data-name="Layer 1"><path class="cls-1" d="M84,40A40,40,0,1,0,7.56,56.5H80.44A39.88,39.88,0,0,0,84,40"/><line class="cls-2" x1="5" y1="56.5" x2="83" y2="56.5"/><line class="cls-2" x1="0.5" y1="56.5" x2="3" y2="56.5"/><line class="cls-2" x1="85" y1="56.5" x2="87.5" y2="56.5"/><path class="cls-1" d="M70,66.75c0,1-8.51,1.75-19,1.75s-19-.78-19-1.75S40.51,65,51,65s19,.78,19,1.75"/><path class="cls-3" d="M66,49a15.5,15.5,0,0,0-31,0v2.5h6v5H60v-5h6Z"/><path class="cls-2" d="M66,49a15.5,15.5,0,0,0-31,0v2.5h6v5H60v-5h6Z"/><path class="cls-4" d="M47,34a3.5,3.5,0,0,0,7,0V30.5H47Z"/><path class="cls-2" d="M47,34V30.5h7V34a3.5,3.5,0,0,1-7,0Z"/><path class="cls-4" d="M60.5,20V17.5a10,10,0,0,0-20,0V20a2,2,0,0,0,0,4h.12a10,10,0,0,0,19.76,0h.12a2,2,0,0,0,0-4"/><path class="cls-2" d="M60.5,20V17.5a10,10,0,0,0-20,0V20a2,2,0,0,0,0,4h.12a10,10,0,0,0,19.76,0h.12a2,2,0,0,0,0-4Z"/><path class="cls-3" d="M60.5,20.5a4.5,4.5,0,0,1-9,0V20a2,2,0,0,1,2-2h7Z"/><path class="cls-3" d="M49.5,20.5a4.5,4.5,0,0,1-9,0V18h7a2,2,0,0,1,2,2Z"/><path class="cls-2" d="M47.49,26.79a4.38,4.38,0,0,0,6,0"/><path class="cls-2" d="M49.5,20.5a4.5,4.5,0,0,1-9,0V18h7a2,2,0,0,1,2,2Z"/><path class="cls-2" d="M60.5,20.5a4.5,4.5,0,0,1-9,0V20a2,2,0,0,1,2-2h7Z"/><line class="cls-2" x1="49.5" y1="20.5" x2="51.5" y2="20.5"/><path class="cls-4" d="M50.5,6s1-1,4-1C65,5,66.38,19.92,58.76,21.38a1,1,0,0,1-1.14-1.06c.75-10-6.16-9.25-7.12-7.32-1-1.93-7.87-2.65-7.12,7.32a1,1,0,0,1-1.14,1.06C34.62,19.92,36,5,46.5,5c3,0,4,1,4,1"/><path class="cls-2" d="M50.5,6s1-1,4-1C65,5,66.38,19.92,58.76,21.38a1,1,0,0,1-1.14-1.06c.75-10-6.16-9.25-7.12-7.32-1-1.93-7.87-2.65-7.12,7.32a1,1,0,0,1-1.14,1.06C34.62,19.92,36,5,46.5,5,49.5,5,50.5,6,50.5,6Z"/><path class="cls-2" d="M56.5,21a1.63,1.63,0,0,0-3,0"/><path class="cls-2" d="M47.51,21a1.63,1.63,0,0,0-3,0"/><path class="cls-4" d="M67.16,63.5H33.84L34.26,65a1.35,1.35,0,0,0,1.3,1H65.44a1.35,1.35,0,0,0,1.3-1Z"/><path class="cls-5" d="M67.16,63.5H33.84L34.26,65a1.35,1.35,0,0,0,1.3,1H65.44a1.35,1.35,0,0,0,1.3-1Z"/><path class="cls-4" d="M67.41,63.5H33.59a1.09,1.09,0,0,1-1.09-1.09V42.5a2,2,0,0,1,2-2h32a2,2,0,0,1,2,2V62.41a1.09,1.09,0,0,1-1.09,1.09"/><path class="cls-4" d="M66.5,40.5h-32a2,2,0,0,0-2,2v4.85c0-.72.58-2.35,1.3-2.35H67.2c.72,0,1.3,1.63,1.3,2.35V42.5a2,2,0,0,0-2-2"/><path class="cls-5" d="M67.41,63.5H33.59a1.09,1.09,0,0,1-1.09-1.09V42.5a2,2,0,0,1,2-2h32a2,2,0,0,1,2,2V62.41A1.09,1.09,0,0,1,67.41,63.5Z"/><path class="cls-3" d="M52.91,53.94a2.13,2.13,0,0,1,.69-1.6,1.54,1.54,0,0,0-1.14-.94,1.76,1.76,0,0,0-1.61,1,1.74,1.74,0,0,0-1.6-1c-1,.12-1.63,1.46-1.45,3s1.13,2.7,2.12,2.58a1.34,1.34,0,0,0,.93-.59,1.38,1.38,0,0,0,.94.59c.72.09,1.42-.51,1.81-1.45a2.13,2.13,0,0,1-.69-1.6"/><path class="cls-5" d="M52.91,53.94a2.13,2.13,0,0,1,.69-1.6,1.54,1.54,0,0,0-1.14-.94,1.76,1.76,0,0,0-1.61,1,1.74,1.74,0,0,0-1.6-1c-1,.12-1.63,1.46-1.45,3s1.13,2.7,2.12,2.58a1.34,1.34,0,0,0,.93-.59,1.38,1.38,0,0,0,.94.59c.72.09,1.42-.51,1.81-1.45A2.13,2.13,0,0,1,52.91,53.94Z"/><path class="cls-3" d="M52.1,48.26a2.08,2.08,0,0,0-.73,1.61,2.09,2.09,0,0,0,1.72-.43,2,2,0,0,0,.72-1.61,2.08,2.08,0,0,0-1.71.43"/><path class="cls-5" d="M52.1,48.26a2.08,2.08,0,0,0-.73,1.61,2.09,2.09,0,0,0,1.72-.43,2,2,0,0,0,.72-1.61A2.08,2.08,0,0,0,52.1,48.26Z"/><path class="cls-4" d="M68.49,53.5l2.44,0a1.5,1.5,0,0,1,1.52,1.48l0,3A1.5,1.5,0,0,1,71,59.46l-2.44,0a2,2,0,0,1-2-1.65,10.6,10.6,0,0,1,0-2.64,2,2,0,0,1,1.95-1.71"/><path class="cls-2" d="M68.49,53.5l2.44,0a1.5,1.5,0,0,1,1.52,1.48l0,3A1.5,1.5,0,0,1,71,59.46l-2.44,0a2,2,0,0,1-2-1.65,10.6,10.6,0,0,1,0-2.64A2,2,0,0,1,68.49,53.5Z"/><path class="cls-4" d="M33.89,49.46l-2.44-.08A1.5,1.5,0,0,1,30,47.83l.11-3a1.5,1.5,0,0,1,1.55-1.45l2.43.09A2,2,0,0,1,36,45.21a10.68,10.68,0,0,1-.09,2.65,2,2,0,0,1-2,1.6"/><path class="cls-2" d="M33.89,49.46l-2.44-.08A1.5,1.5,0,0,1,30,47.83l.11-3a1.5,1.5,0,0,1,1.55-1.45l2.43.09A2,2,0,0,1,36,45.21a10.68,10.68,0,0,1-.09,2.65A2,2,0,0,1,33.89,49.46Z"/><path class="cls-3" d="M43.63,57.12l-2.07,3.1A.5.5,0,0,0,42,61h4.13a.5.5,0,0,0,.42-.78l-2.07-3.1a.5.5,0,0,0-.83,0"/><path class="cls-2" d="M43.63,57.12l-2.07,3.1A.5.5,0,0,0,42,61h4.13a.5.5,0,0,0,.42-.78l-2.07-3.1A.5.5,0,0,0,43.63,57.12Z"/><path class="cls-3" d="M40.05,53.5,42.65,55a3,3,0,1,1,0-3Z"/><path class="cls-2" d="M40.05,53.5,42.65,55a3,3,0,1,1,0-3Z"/><path class="cls-6" d="M43.55,53a.5.5,0,0,0,0,1,.5.5,0,0,0,0-1"/><path class="cls-6" d="M45.55,53a.5.5,0,0,0,0,1,.5.5,0,0,0,0-1"/><path class="cls-3" d="M62.28,58.63l-2,1.22a.53.53,0,0,1-.52,0l-2-1.22a.47.47,0,0,1-.24-.38l-.43-4.7a.5.5,0,0,1,.5-.55h4.9a.5.5,0,0,1,.5.55l-.43,4.7a.47.47,0,0,1-.24.38"/><path class="cls-2" d="M62.28,58.63l-2,1.22a.53.53,0,0,1-.52,0l-2-1.22a.47.47,0,0,1-.24-.38l-.43-4.7a.5.5,0,0,1,.5-.55h4.9a.5.5,0,0,1,.5.55l-.43,4.7A.47.47,0,0,1,62.28,58.63Z"/><polygon class="cls-3" points="56.1 44.03 58.27 43.5 60 44.92 59.44 47.36 57.27 47.89 55.55 46.47 56.1 44.03"/><polygon class="cls-2" points="56.1 44.03 58.27 43.5 60 44.92 59.44 47.36 57.27 47.89 55.55 46.47 56.1 44.03"/><path class="cls-3" d="M49.55,46c0,1.1-2.47,2-5.5,2s-5.5-.9-5.5-2,2.46-2,5.5-2,5.5.9,5.5,2"/><ellipse class="cls-2" cx="44.05" cy="46" rx="5.5" ry="2"/><path class="cls-2" d="M24,34.92c-1.2,1.21,1.81,3,1.81,4.82,0,1.34-1.81,1.8-1.81,3"/><path class="cls-2" d="M19.78,32.52c-1.2,1.2,1.8,3,1.8,4.81,0,1.35-1.8,1.81-1.8,3"/><path class="cls-1" d="M26.5,62.75c0,1-2.46,1.75-5.5,1.75s-5.5-.78-5.5-1.75S18,61,21,61s5.5.78,5.5,1.75"/><path class="cls-4" d="M23.61,62H18.39a1,1,0,0,1-1-.88L16,49.5H26L24.61,61.12a1,1,0,0,1-1,.88"/><path class="cls-5" d="M23.61,62H18.39a1,1,0,0,1-1-.88L16,49.5H26L24.61,61.12A1,1,0,0,1,23.61,62Z"/><path class="cls-4" d="M26,49.5H16a1,1,0,0,1,0-2H26a1,1,0,0,1,0,2"/><path class="cls-5" d="M26,49.5H16a1,1,0,0,1,0-2H26a1,1,0,0,1,0,2Z"/><path class="cls-4" d="M26,47.5H16l.42-1.73a1,1,0,0,1,1-.77h7.22a1,1,0,0,1,1,.77Z"/><path class="cls-5" d="M26,47.5H16l.42-1.73a1,1,0,0,1,1-.77h7.22a1,1,0,0,1,1,.77Z"/><path class="cls-3" d="M23.28,54.78A2.28,2.28,0,1,1,21,52.5a2.28,2.28,0,0,1,2.28,2.28"/><path class="cls-2" d="M23.28,54.78A2.28,2.28,0,1,1,21,52.5,2.28,2.28,0,0,1,23.28,54.78Z"/><path class="cls-6" d="M52.05,42.63a.39.39,0,0,1,.49-.32.5.5,0,0,1,.29.25L54,45.17h0l.45-2a.39.39,0,0,1,.49-.32.38.38,0,0,1,.3.5l-.68,3a.39.39,0,0,1-.49.32.5.5,0,0,1-.29-.25l-1.17-2.58h0l-.44,2a.39.39,0,0,1-.49.32.38.38,0,0,1-.3-.5Z"/><path class="cls-6" d="M61.33,44.77a.4.4,0,0,1,.5-.31l.87.2A1.8,1.8,0,0,1,64.12,47a1.74,1.74,0,0,1-2.22,1.41L61,48.21a.39.39,0,0,1-.32-.49Zm.19,2.8.54.12c.68.16,1.1-.27,1.24-.91a1,1,0,0,0-.77-1.4l-.48-.11Z"/><path class="cls-6" d="M64.83,45.63a.42.42,0,0,1,.52-.37l1.31.3A.36.36,0,0,1,67,46a.37.37,0,0,1-.46.28l-.93-.22-.17.77.86.2a.37.37,0,0,1,.3.45.37.37,0,0,1-.46.28l-.87-.2-.18.8,1,.22a.37.37,0,1,1-.16.73L64.49,49a.4.4,0,0,1-.32-.49Z"/><path class="cls-6" d="M52.05,42.63a.39.39,0,0,1,.49-.32.5.5,0,0,1,.29.25L54,45.17h0l.45-2a.39.39,0,0,1,.49-.32.38.38,0,0,1,.3.5l-.68,3a.39.39,0,0,1-.49.32.5.5,0,0,1-.29-.25l-1.17-2.58h0l-.44,2a.39.39,0,0,1-.49.32.38.38,0,0,1-.3-.5Z"/><path class="cls-6" d="M61.33,44.77a.4.4,0,0,1,.5-.31l.87.2A1.8,1.8,0,0,1,64.12,47a1.74,1.74,0,0,1-2.22,1.41L61,48.21a.39.39,0,0,1-.32-.49Zm.19,2.8.54.12c.68.16,1.1-.27,1.24-.91a1,1,0,0,0-.77-1.4l-.48-.11Z"/><path class="cls-6" d="M64.83,45.63a.42.42,0,0,1,.52-.37l1.31.3A.36.36,0,0,1,67,46a.37.37,0,0,1-.46.28l-.93-.22-.17.77.86.2a.37.37,0,0,1,.3.45.37.37,0,0,1-.46.28l-.87-.2-.18.8,1,.22a.37.37,0,1,1-.16.73L64.49,49a.4.4,0,0,1-.32-.49Z"/></g></g></svg>