<svg xmlns="http://www.w3.org/2000/svg" viewBox="0 0 88 72"><defs><style>.cls-1{fill:#f2fafa;}.cls-2{fill:none;stroke:#1c184e;stroke-linecap:round;stroke-linejoin:round;}.cls-3{fill:#e9f6f6;}.cls-4{fill:#fff;}.cls-5{fill:#1c184e;}</style></defs><title>Resurs 15</title><g id="Lager_2" data-name="Lager 2"><g id="Layer_1" data-name="Layer 1"><path class="cls-1" d="M84,40A40,40,0,1,0,7.56,56.5H80.44A39.85,39.85,0,0,0,84,40"/><line class="cls-2" x1="5" y1="56.5" x2="83" y2="56.5"/><line class="cls-2" x1="0.5" y1="56.5" x2="3" y2="56.5"/><line class="cls-2" x1="85" y1="56.5" x2="87.5" y2="56.5"/><path class="cls-3" d="M59.1,27.73V37.5h-15V27.73h-4V26.58a11.5,11.5,0,0,1,23,0v1.15Z"/><path class="cls-2" d="M59.1,27.73V37.5h-15V27.73h-4V26.58a11.5,11.5,0,0,1,23,0v1.15Z"/><path class="cls-4" d="M63.13,26.57v2.31h-4V39.22a4.5,4.5,0,0,1-2-1.72,10.56,10.56,0,0,1-.68-1.15c-2.87-5.83-2.51-17.83-2.51-17.83l1.57-2.77h0a11.51,11.51,0,0,1,7.62,10.82"/><path class="cls-4" d="M46.82,36.35a9.69,9.69,0,0,1-.68,1.15,4.59,4.59,0,0,1-2,1.73V27.73h-4V26.58a11.5,11.5,0,0,1,7.62-10.83h0l1.57,2.78s.36,12-2.51,17.82"/><path class="cls-2" d="M46.82,36.35a9.69,9.69,0,0,1-.68,1.15,4.59,4.59,0,0,1-2,1.73V27.73h-4V26.58a11.5,11.5,0,0,1,7.62-10.83h0l1.57,2.78S49.69,30.52,46.82,36.35Z"/><path class="cls-4" d="M49.33,18.52l-2.48,1.65a1.15,1.15,0,0,1-1.61-.33L44,17.94a11.45,11.45,0,0,1,3.72-2.2Z"/><path class="cls-2" d="M49.33,18.52l-2.48,1.65a1.15,1.15,0,0,1-1.61-.33L44,17.94a11.45,11.45,0,0,1,3.72-2.2Z"/><path class="cls-2" d="M63.13,26.57v2.31h-4V39.22a4.5,4.5,0,0,1-2-1.72,10.56,10.56,0,0,1-.68-1.15c-2.87-5.83-2.51-17.83-2.51-17.83l1.57-2.77h0A11.51,11.51,0,0,1,63.13,26.57Z"/><path class="cls-4" d="M59.21,17.94,58,19.84a1.15,1.15,0,0,1-1.61.33l-2.48-1.65,1.57-2.78a11.45,11.45,0,0,1,3.72,2.2"/><path class="cls-2" d="M59.21,17.94,58,19.84a1.15,1.15,0,0,1-1.61.33l-2.48-1.65,1.57-2.78A11.45,11.45,0,0,1,59.21,17.94Z"/><path class="cls-4" d="M63.2,28.88H59.1v-2.3h4.1a.5.5,0,0,1,.5.5v1.3a.5.5,0,0,1-.5.5"/><path class="cls-2" d="M63.2,28.88H59.1v-2.3h4.1a.5.5,0,0,1,.5.5v1.3A.5.5,0,0,1,63.2,28.88Z"/><path class="cls-4" d="M49.32,2.42a6.9,6.9,0,0,1,6.9,6.9v.93a1.4,1.4,0,0,1,1.15,1.38A1.41,1.41,0,0,1,56.08,13a6.9,6.9,0,0,1-13.66-1.4V9.32a6.9,6.9,0,0,1,6.9-6.9"/><path class="cls-2" d="M49.32,2.42a6.9,6.9,0,0,1,6.9,6.9v.93a1.4,1.4,0,0,1,1.15,1.38A1.41,1.41,0,0,1,56.08,13a6.9,6.9,0,0,1-13.66-1.4V9.32A6.9,6.9,0,0,1,49.32,2.42Z"/><path class="cls-5" d="M50.19,9.32a.87.87,0,1,0,.86.87.87.87,0,0,0-.86-.87"/><path class="cls-5" d="M45.59,9.32a.87.87,0,1,0,.86.87.87.87,0,0,0-.86-.87"/><path class="cls-3" d="M51.62,12.49a.87.87,0,1,0,.87-.86.87.87,0,0,0-.87.86"/><path class="cls-2" d="M49.9,14.55a3.1,3.1,0,0,1-3.45,0"/><path class="cls-4" d="M53,7.77l.26.44a2.32,2.32,0,0,0,2,1.12h1a6.9,6.9,0,0,0-13-3.12A5.15,5.15,0,0,0,46.45,7a35.42,35.42,0,0,0,4.26-.36A2.3,2.3,0,0,1,53,7.77"/><path class="cls-2" d="M53,7.77l.26.44a2.32,2.32,0,0,0,2,1.12h1a6.9,6.9,0,0,0-13-3.12A5.15,5.15,0,0,0,46.45,7a35.42,35.42,0,0,0,4.26-.36A2.3,2.3,0,0,1,53,7.77Z"/><path class="cls-4" d="M56.23,35.77a6.89,6.89,0,0,0,6.9-6.89h-4a2.88,2.88,0,0,1-2.87,2.87Z"/><path class="cls-2" d="M56.23,35.77a6.89,6.89,0,0,0,6.9-6.89h-4a2.88,2.88,0,0,1-2.87,2.87Z"/><path class="cls-4" d="M58,34.05a2.87,2.87,0,0,0-3.17-2.86,3,3,0,0,0-2.58,3v.42a1.15,1.15,0,0,0,1.15,1.14H56.8A1.14,1.14,0,0,0,58,34.63Z"/><path class="cls-2" d="M58,34.05a2.87,2.87,0,0,0-3.17-2.86,3,3,0,0,0-2.58,3v.42a1.15,1.15,0,0,0,1.15,1.14H56.8A1.14,1.14,0,0,0,58,34.63Z"/><path class="cls-1" d="M74.05,66.83c0,1-16.48,1.72-36.8,1.72S.45,67.78.45,66.83s16.48-1.73,36.8-1.73,36.8.77,36.8,1.73"/><path class="cls-1" d="M85.55,70.27c0,1-9.78,1.73-21.85,1.73s-21.85-.77-21.85-1.73,9.78-1.72,21.85-1.72,21.85.77,21.85,1.72"/><path class="cls-4" d="M37.25,55.33H7.92V36.93a2.31,2.31,0,0,1,2.3-2.3H35a2.3,2.3,0,0,1,2.3,2.3Z"/><path class="cls-2" d="M37.25,55.33H7.92V36.93a2.31,2.31,0,0,1,2.3-2.3H35a2.3,2.3,0,0,1,2.3,2.3Z"/><path class="cls-4" d="M66.58,55.33H37.25V36.93a2.3,2.3,0,0,1,2.3-2.3H64.28a2.31,2.31,0,0,1,2.3,2.3Z"/><path class="cls-2" d="M66.58,55.33H37.25V36.93a2.3,2.3,0,0,1,2.3-2.3H64.28a2.31,2.31,0,0,1,2.3,2.3Z"/><path class="cls-3" d="M11.53,65.68H8.92a1,1,0,0,1-1-1v-1.3h4.61v1.3a1,1,0,0,1-1,1"/><path class="cls-2" d="M11.53,65.68H8.92a1,1,0,0,1-1-1v-1.3h4.61v1.3A1,1,0,0,1,11.53,65.68Z"/><path class="cls-3" d="M65.58,65.68H63a1,1,0,0,1-1-1v-1.3h4.61v1.3a1,1,0,0,1-1,1"/><path class="cls-2" d="M65.58,65.68H63a1,1,0,0,1-1-1v-1.3h4.61v1.3A1,1,0,0,1,65.58,65.68Z"/><path class="cls-3" d="M38.55,65.68H36a1,1,0,0,1-1-1v-1.3h4.6v1.3a1,1,0,0,1-1,1"/><path class="cls-2" d="M38.55,65.68H36a1,1,0,0,1-1-1v-1.3h4.6v1.3A1,1,0,0,1,38.55,65.68Z"/><path class="cls-4" d="M66.58,63.38H7.92V55.33a2.31,2.31,0,0,1,2.3-2.3H64.28a2.31,2.31,0,0,1,2.3,2.3Z"/><path class="cls-2" d="M66.58,63.38H7.92V55.33a2.31,2.31,0,0,1,2.3-2.3H64.28a2.31,2.31,0,0,1,2.3,2.3Z"/><path class="cls-4" d="M3.33,63.38H7.92V47.28H4.47a2.31,2.31,0,0,0-2.3,2.3V62.23a1.16,1.16,0,0,0,1.16,1.15"/><path class="cls-2" d="M3.33,63.38H7.92V47.28H4.47a2.31,2.31,0,0,0-2.3,2.3V62.23A1.16,1.16,0,0,0,3.33,63.38Z"/><path class="cls-4" d="M72.33,62.23a1.16,1.16,0,0,1-1.16,1.15H66.58V47.28H70a2.31,2.31,0,0,1,2.3,2.3Z"/><path class="cls-2" d="M72.33,62.23a1.16,1.16,0,0,1-1.16,1.15H66.58V47.28H70a2.31,2.31,0,0,1,2.3,2.3Z"/><path class="cls-4" d="M48.17,67.69a1.44,1.44,0,0,1-2.87,0V54.17h2.87Z"/><path class="cls-2" d="M48.17,67.69a1.44,1.44,0,0,1-2.87,0V54.17h2.87Z"/><rect class="cls-4" x="48.17" y="54.17" width="31.62" height="3.45"/><rect class="cls-2" x="48.17" y="54.17" width="31.62" height="3.45"/><path class="cls-3" d="M85.55,53a1.14,1.14,0,0,1-1.15,1.15H43.58a1.15,1.15,0,1,1,0-2.29H84.4A1.14,1.14,0,0,1,85.55,53"/><path class="cls-2" d="M85.55,53a1.14,1.14,0,0,1-1.15,1.15H43.58a1.15,1.15,0,1,1,0-2.29H84.4A1.14,1.14,0,0,1,85.55,53Z"/><path class="cls-4" d="M48.17,67.69a1.44,1.44,0,0,1-2.87,0V66.25h2.87Z"/><path class="cls-2" d="M48.17,67.69a1.44,1.44,0,0,1-2.87,0V66.25h2.87Z"/><path class="cls-4" d="M82.67,67.69a1.44,1.44,0,0,1-2.87,0V54.17h2.87Z"/><path class="cls-2" d="M82.67,67.69a1.44,1.44,0,0,1-2.87,0V54.17h2.87Z"/><path class="cls-4" d="M82.67,67.69a1.44,1.44,0,0,1-2.87,0V66.25h2.87Z"/><path class="cls-2" d="M82.67,67.69a1.44,1.44,0,0,1-2.87,0V66.25h2.87Z"/><path class="cls-4" d="M69.45,48.42H82.1a.57.57,0,0,1,.57.58v2.3a.57.57,0,0,1-.57.58H69.45a.57.57,0,0,1-.57-.58V49a.57.57,0,0,1,.57-.58"/><rect class="cls-2" x="68.88" y="48.42" width="13.8" height="3.45" rx="0.58" ry="0.58"/><rect class="cls-3" x="71.17" y="48.42" width="2.3" height="3.45"/><rect class="cls-2" x="71.17" y="48.42" width="2.3" height="3.45"/><path class="cls-4" d="M67.15,45H79.8a.58.58,0,0,1,.58.58v2.3a.57.57,0,0,1-.58.57H67.15a.56.56,0,0,1-.57-.57v-2.3a.57.57,0,0,1,.57-.58"/><rect class="cls-2" x="66.58" y="44.97" width="13.8" height="3.45" rx="0.58" ry="0.58"/><rect class="cls-3" x="68.88" y="44.97" width="2.3" height="3.45"/><rect class="cls-2" x="68.88" y="44.97" width="2.3" height="3.45"/><path class="cls-4" d="M65.34,38.4l-4.05,12a.58.58,0,0,0,.36.73l2.18.73a.56.56,0,0,0,.73-.36l4-12a.58.58,0,0,0-.36-.73L66.07,38a.57.57,0,0,0-.73.36"/><path class="cls-2" d="M58.63,43.21H71.28a.58.58,0,0,1,.58.58v2.3a.57.57,0,0,1-.57.57H58.63a.58.58,0,0,1-.58-.58v-2.3A.58.58,0,0,1,58.63,43.21Z" transform="translate(1.58 92.08) rotate(-71.32)"/><rect class="cls-3" x="64.91" y="39.95" width="2.3" height="3.45" transform="translate(5.43 90.91) rotate(-71.32)"/><rect class="cls-2" x="64.91" y="39.95" width="2.3" height="3.45" transform="translate(5.43 90.91) rotate(-71.32)"/><path class="cls-3" d="M55.34,42.91c0,2.66-1.21,4.83-2.69,4.83S50,45.57,50,42.91a6.81,6.81,0,0,1,2.28-4.47.57.57,0,0,1,.8,0,6.82,6.82,0,0,1,2.29,4.47"/><path class="cls-2" d="M55.34,42.91c0,2.66-1.21,4.83-2.69,4.83S50,45.57,50,42.91a6.81,6.81,0,0,1,2.28-4.47.57.57,0,0,1,.8,0A6.82,6.82,0,0,1,55.34,42.91Z"/><path class="cls-3" d="M52.65,47.74,49.36,40a.58.58,0,0,0-1.07,0l-.5,1.27a4.14,4.14,0,0,0,2.3,5.38Z"/><path class="cls-2" d="M52.65,47.74,49.36,40a.58.58,0,0,0-1.07,0l-.5,1.27a4.14,4.14,0,0,0,2.3,5.38Z"/><path class="cls-3" d="M52.65,47.74,56,40a.58.58,0,0,1,.53-.35.6.6,0,0,1,.53.37l.51,1.27a4.13,4.13,0,0,1-2.31,5.38Z"/><path class="cls-2" d="M52.65,47.74,56,40a.58.58,0,0,1,.53-.35.6.6,0,0,1,.53.37l.51,1.27a4.13,4.13,0,0,1-2.31,5.38Z"/><path class="cls-4" d="M56.73,51.88h-8l-1.14-3.05a1.15,1.15,0,0,1,1.08-1.55H56.8a1.15,1.15,0,0,1,1.08,1.55Z"/><path class="cls-2" d="M56.73,51.88h-8l-1.14-3.05a1.15,1.15,0,0,1,1.08-1.55H56.8a1.15,1.15,0,0,1,1.08,1.55Z"/><path class="cls-4" d="M33.79,25.08l-.18,0a5.64,5.64,0,0,0,.18-1.4,5.2,5.2,0,0,0-.33-1.87,4.22,4.22,0,0,0,1-3c0-1.91-.93-3.45-2.07-3.45a8.74,8.74,0,0,0-9-9,8.74,8.74,0,0,0-9,9c-1.14,0-2.07,1.54-2.07,3.45a4.22,4.22,0,0,0,1,3,5.42,5.42,0,0,0-.33,1.87,5.64,5.64,0,0,0,.18,1.4l-.18,0C12,25.08,11,26.32,11,27.84S12,30.6,13.09,30.6l.15,0a4,4,0,0,0-.15,1.05,3.26,3.26,0,0,0,1.42,2.83,2.76,2.76,0,0,0,2.72,2.35,2.69,2.69,0,0,0,.7-.1s0,.06,0,.1a2.77,2.77,0,0,0,2.76,2.76,2.89,2.89,0,0,0,.78-.12,2.06,2.06,0,0,0,4,0,2.89,2.89,0,0,0,.78.12A2.77,2.77,0,0,0,29,36.81s0-.07,0-.1a2.71,2.71,0,0,0,3.42-2.25,3.24,3.24,0,0,0,1.42-2.83,4,4,0,0,0-.15-1.05l.15,0c1.14,0,2.07-1.24,2.07-2.76s-.93-2.76-2.07-2.76"/><path class="cls-2" d="M33.79,25.08l-.18,0a5.64,5.64,0,0,0,.18-1.4,5.2,5.2,0,0,0-.33-1.87,4.22,4.22,0,0,0,1-3c0-1.91-.93-3.45-2.07-3.45a8.74,8.74,0,0,0-9-9,8.74,8.74,0,0,0-9,9c-1.14,0-2.07,1.54-2.07,3.45a4.22,4.22,0,0,0,1,3,5.42,5.42,0,0,0-.33,1.87,5.64,5.64,0,0,0,.18,1.4l-.18,0C12,25.08,11,26.32,11,27.84S12,30.6,13.09,30.6l.15,0a4,4,0,0,0-.15,1.05,3.26,3.26,0,0,0,1.42,2.83,2.76,2.76,0,0,0,2.72,2.35,2.69,2.69,0,0,0,.7-.1s0,.06,0,.1a2.77,2.77,0,0,0,2.76,2.76,2.89,2.89,0,0,0,.78-.12,2.06,2.06,0,0,0,4,0,2.89,2.89,0,0,0,.78.12A2.77,2.77,0,0,0,29,36.81s0-.07,0-.1a2.71,2.71,0,0,0,3.42-2.25,3.24,3.24,0,0,0,1.42-2.83,4,4,0,0,0-.15-1.05l.15,0c1.14,0,2.07-1.24,2.07-2.76S34.93,25.08,33.79,25.08Z"/><path class="cls-4" d="M28.45,14.37a1.92,1.92,0,0,0,1.89,1.91v1.44c2,0,1.84,3.45-.35,3.45h0a6.86,6.86,0,0,1-13.1,0h0c-2.18,0-2.31-3.45-.34-3.45V16.34s0,0,0-.06a1.92,1.92,0,0,0,1.89-1.91,1.36,1.36,0,0,1,1.6-1.13,2.38,2.38,0,0,0,2-1s2,2.49,6.38,2.17"/><path class="cls-2" d="M28.45,14.37a1.92,1.92,0,0,0,1.89,1.91v1.44c2,0,1.84,3.45-.35,3.45h0a6.86,6.86,0,0,1-13.1,0h0c-2.18,0-2.31-3.45-.34-3.45V16.34s0,0,0-.06a1.92,1.92,0,0,0,1.89-1.91,1.36,1.36,0,0,1,1.6-1.13,2.38,2.38,0,0,0,2-1S24.08,14.69,28.45,14.37Z"/><path class="cls-3" d="M20.57,19.78a.69.69,0,1,1-.69-.69.69.69,0,0,1,.69.69"/><path class="cls-3" d="M27.81,19.78a.69.69,0,1,1-.69-.69.69.69,0,0,1,.69.69"/><path class="cls-2" d="M21.83,22a3.13,3.13,0,0,0,3.45,0"/><path class="cls-5" d="M25.8,16.85a.87.87,0,1,0,.86.87.86.86,0,0,0-.86-.87"/><path class="cls-5" d="M21.2,16.85a.87.87,0,1,0,.86.87.86.86,0,0,0-.86-.87"/><path class="cls-4" d="M17.13,47.27V30.47a10.33,10.33,0,0,0-4,8.16v5.19a3.45,3.45,0,0,0,3.45,3.45Z"/><path class="cls-2" d="M17.13,47.27V30.47a10.33,10.33,0,0,0-4,8.16v5.19a3.45,3.45,0,0,0,3.45,3.45Z"/><path class="cls-4" d="M29.78,30.51a10.1,10.1,0,0,0-6.33-2.21,10.22,10.22,0,0,0-6.32,2.17V49l12.65,0Z"/><path class="cls-2" d="M29.78,30.51a10.1,10.1,0,0,0-6.33-2.21,10.22,10.22,0,0,0-6.32,2.17V49l12.65,0Z"/><path class="cls-4" d="M24.39,33.32a16.57,16.57,0,0,0,2.45-4.44,10.2,10.2,0,0,0-6.78,0c.17,1,1.5,3.09,2.44,4.44a1.15,1.15,0,0,0,1.89,0"/><path class="cls-2" d="M24.39,33.32a16.57,16.57,0,0,0,2.45-4.44,10.2,10.2,0,0,0-6.78,0c.17,1,1.5,3.09,2.44,4.44A1.15,1.15,0,0,0,24.39,33.32Z"/><path class="cls-4" d="M29.78,47.27V30.47a10.35,10.35,0,0,1,4,8.16v5.19a3.45,3.45,0,0,1-3.45,3.45Z"/><path class="cls-2" d="M29.78,47.27V30.47a10.35,10.35,0,0,1,4,8.16v5.19a3.45,3.45,0,0,1-3.45,3.45Z"/><path class="cls-3" d="M26.9,53H20a3.44,3.44,0,0,1-3.45-3.45v-2.3h13.8v2.3A3.44,3.44,0,0,1,26.9,53"/><path class="cls-2" d="M26.9,53H20a3.44,3.44,0,0,1-3.45-3.45v-2.3h13.8v2.3A3.44,3.44,0,0,1,26.9,53Z"/><path class="cls-3" d="M22.05,51.63A2.87,2.87,0,0,0,16.34,51L14.79,64.1l5.71.67Z"/><path class="cls-2" d="M22.05,51.63A2.87,2.87,0,0,0,16.34,51L14.79,64.1l5.71.67Z"/><path class="cls-4" d="M20,65.67a1.14,1.14,0,0,0,1-1.66,3.45,3.45,0,0,0-3-1.79h-.57a3.44,3.44,0,0,0-3,1.79,1.14,1.14,0,0,0,1,1.66Z"/><path class="cls-2" d="M20,65.67a1.14,1.14,0,0,0,1-1.66,3.45,3.45,0,0,0-3-1.79h-.57a3.44,3.44,0,0,0-3,1.79,1.14,1.14,0,0,0,1,1.66Z"/><path class="cls-3" d="M24.39,51.63A2.87,2.87,0,0,1,30.1,51L31.65,64.1l-5.71.67Z"/><path class="cls-2" d="M24.39,51.63A2.87,2.87,0,0,1,30.1,51L31.65,64.1l-5.71.67Z"/><path class="cls-4" d="M26.41,65.67a1.14,1.14,0,0,1-1-1.66,3.42,3.42,0,0,1,3-1.79H29A3.44,3.44,0,0,1,32,64a1.14,1.14,0,0,1-1,1.66Z"/><path class="cls-2" d="M26.41,65.67a1.14,1.14,0,0,1-1-1.66,3.42,3.42,0,0,1,3-1.79H29A3.44,3.44,0,0,1,32,64a1.14,1.14,0,0,1-1,1.66Z"/><path class="cls-4" d="M32.65,49.58H14.25a1.16,1.16,0,0,1-1.15-1.16V47.27H33.8v1.15a1.15,1.15,0,0,1-1.15,1.16"/><path class="cls-2" d="M32.65,49.58H14.25a1.16,1.16,0,0,1-1.15-1.16V47.27H33.8v1.15A1.15,1.15,0,0,1,32.65,49.58Z"/><path class="cls-4" d="M32.65,47.27H14.25a1.15,1.15,0,0,1-1.15-1.14V36.92a1.16,1.16,0,0,1,1.15-1.15h18.4a1.15,1.15,0,0,1,1.15,1.15v9.21a1.14,1.14,0,0,1-1.15,1.14"/><rect class="cls-2" x="13.1" y="35.77" width="20.7" height="11.5" rx="1.15" ry="1.15"/><path class="cls-3" d="M25.18,42.1a1.73,1.73,0,1,1-1.73-1.72,1.74,1.74,0,0,1,1.73,1.72"/><path class="cls-2" d="M25.18,42.1a1.73,1.73,0,1,1-1.73-1.72A1.74,1.74,0,0,1,25.18,42.1Z"/><line class="cls-2" x1="23.45" y1="39.23" x2="24.6" y2="38.08"/><line class="cls-2" x1="59.1" y1="26.57" x2="59.1" y2="23.7"/><line class="cls-2" x1="44.15" y1="26.57" x2="44.15" y2="23.7"/><path class="cls-4" d="M40.13,26.57h0a4,4,0,0,1-4,4H34.66a2,2,0,0,0,0,4H36.1a8.07,8.07,0,0,0,8-8"/><path class="cls-2" d="M40.13,26.57h0a4,4,0,0,1-4,4H34.66a2,2,0,0,0,0,4H36.1a8.07,8.07,0,0,0,8-8"/><path class="cls-4" d="M40.05,27.73h4.1v-2.3h-4.1a.5.5,0,0,0-.5.5v1.3a.5.5,0,0,0,.5.5"/><path class="cls-2" d="M40.05,27.73h4.1v-2.3h-4.1a.5.5,0,0,0-.5.5v1.3A.5.5,0,0,0,40.05,27.73Z"/></g></g></svg>