<svg xmlns="http://www.w3.org/2000/svg" xmlns:xlink="http://www.w3.org/1999/xlink" viewBox="0 0 80 80"><defs><style>.cls-1,.cls-5,.cls-6{fill:none;}.cls-2{fill:#f2fafa;}.cls-3{fill:#e9f6f6;}.cls-4{fill:#fff;}.cls-5,.cls-6{stroke:#1c184e;stroke-linejoin:round;}.cls-5{stroke-linecap:round;}.cls-7{opacity:0.7;}.cls-8{clip-path:url(#clip-path);}</style><clipPath id="clip-path"><rect class="cls-1" x="57.41" y="17.02" width="9.14" height="9.14"/></clipPath></defs><title>Resurs 11</title><g id="Lager_2" data-name="Lager 2"><g id="Layer_1" data-name="Layer 1"><path class="cls-2" d="M80,40A40,40,0,1,1,40,0,40,40,0,0,1,80,40"/><path class="cls-3" d="M34.64,14a3.8,3.8,0,1,1-3.79-3.79A3.8,3.8,0,0,1,34.64,14"/><path class="cls-4" d="M30.85,10.19a3.79,3.79,0,0,0-2.68,6.48l5.36-5.37a3.76,3.76,0,0,0-2.68-1.11"/><path class="cls-5" d="M34.64,14a3.8,3.8,0,1,1-3.79-3.79A3.8,3.8,0,0,1,34.64,14Z"/><path class="cls-3" d="M30.09,29.92a3.8,3.8,0,1,1-3.8-3.79,3.8,3.8,0,0,1,3.8,3.79"/><path class="cls-4" d="M26.29,26.13a3.8,3.8,0,0,0-2.68,6.48L29,27.24a3.79,3.79,0,0,0-2.69-1.11"/><path class="cls-5" d="M30.09,29.92a3.8,3.8,0,1,1-3.8-3.79A3.8,3.8,0,0,1,30.09,29.92Z"/><path class="cls-3" d="M36.8,25.84a1.73,1.73,0,0,0-.2-1.63,1.71,1.71,0,0,0-1.46-.72,16.5,16.5,0,0,1-9.55-3.07,1.72,1.72,0,0,0-1.52-.3,1.68,1.68,0,0,0-1.15,1L21.59,24.5a1.74,1.74,0,0,0,.63,2.06,25.46,25.46,0,0,0,10.31,3.89,3,3,0,0,0,3.22-1.91Z"/><path class="cls-6" d="M36.8,25.84a1.73,1.73,0,0,0-.2-1.63,1.71,1.71,0,0,0-1.46-.72,16.5,16.5,0,0,1-9.55-3.07,1.72,1.72,0,0,0-1.52-.3,1.68,1.68,0,0,0-1.15,1L21.59,24.5a1.74,1.74,0,0,0,.63,2.06,25.46,25.46,0,0,0,10.31,3.89,3,3,0,0,0,3.22-1.91Z"/><path class="cls-4" d="M29.74,26.65a1.3,1.3,0,1,1-.06-1.83,1.3,1.3,0,0,1,.06,1.83"/><path class="cls-3" d="M54.38,14.6A1.74,1.74,0,0,0,52,12.92a16.42,16.42,0,0,1-10,.23,1.73,1.73,0,0,0-2.28,1.57l-.15,3.59a1.72,1.72,0,0,0,1.26,1.74,25.37,25.37,0,0,0,11,.3,3,3,0,0,0,2.42-2.85Z"/><path class="cls-6" d="M54.38,14.6A1.74,1.74,0,0,0,52,12.92a16.42,16.42,0,0,1-10,.23,1.73,1.73,0,0,0-2.28,1.57l-.15,3.59a1.72,1.72,0,0,0,1.26,1.74,25.37,25.37,0,0,0,11,.3,3,3,0,0,0,2.42-2.85Z"/><path class="cls-4" d="M48,17.68A1.3,1.3,0,1,1,47.31,16,1.3,1.3,0,0,1,48,17.68"/><path class="cls-3" d="M58.16,30.5A1.74,1.74,0,0,0,56,28.59a16.36,16.36,0,0,1-10-.79,1.76,1.76,0,0,0-1.55.06,1.73,1.73,0,0,0-.89,1.27l-.51,3.56a1.72,1.72,0,0,0,1.08,1.86A25.49,25.49,0,0,0,55.06,36a3,3,0,0,0,2.69-2.59Z"/><path class="cls-6" d="M58.16,30.5A1.74,1.74,0,0,0,56,28.59a16.36,16.36,0,0,1-10-.79,1.76,1.76,0,0,0-1.55.06,1.73,1.73,0,0,0-.89,1.27l-.51,3.56a1.72,1.72,0,0,0,1.08,1.86A25.49,25.49,0,0,0,55.06,36a3,3,0,0,0,2.69-2.59Z"/><path class="cls-4" d="M51.47,32.92A1.3,1.3,0,1,1,51,31.15a1.3,1.3,0,0,1,.48,1.77"/><path class="cls-4" d="M53,9a4.45,4.45,0,0,0-4-4,4.46,4.46,0,0,0,4-4,4.47,4.47,0,0,0,4,4,4.46,4.46,0,0,0-4,4"/><path class="cls-5" d="M53,9a4.45,4.45,0,0,0-4-4,4.46,4.46,0,0,0,4-4,4.47,4.47,0,0,0,4,4A4.46,4.46,0,0,0,53,9Z"/><path class="cls-4" d="M67.86,41.31a4.47,4.47,0,0,0-4-4,4.46,4.46,0,0,0,4-4,4.45,4.45,0,0,0,4,4,4.46,4.46,0,0,0-4,4"/><path class="cls-5" d="M67.86,41.31a4.47,4.47,0,0,0-4-4,4.46,4.46,0,0,0,4-4,4.45,4.45,0,0,0,4,4A4.46,4.46,0,0,0,67.86,41.31Z"/><path class="cls-4" d="M10.36,44.34c0-5.45-2.15-7.59-7.59-7.59,5.44,0,7.59-2.14,7.59-7.59,0,5.45,2.14,7.59,7.59,7.59-5.45,0-7.59,2.14-7.59,7.59"/><circle class="cls-5" cx="10.36" cy="36.75" r="7.59"/><path class="cls-3" d="M68,22.33A5.32,5.32,0,1,1,62.73,17,5.32,5.32,0,0,1,68,22.33"/><g class="cls-7"><g class="cls-8"><path class="cls-4" d="M62.73,17a5.3,5.3,0,0,0-3.67,9.14l7.49-7.5A5.26,5.26,0,0,0,62.73,17"/></g></g><circle class="cls-5" cx="62.73" cy="22.33" r="5.31" transform="translate(18.09 71.74) rotate(-67.5)"/><path class="cls-3" d="M54,73.44c0,1-5.6,1.9-12.51,1.9S29,74.49,29,73.44s5.6-1.89,12.51-1.89S54,72.39,54,73.44"/><path class="cls-4" d="M40.76,66.38a1.28,1.28,0,0,0,1.43,0c14.46-9.91,17.23-15,17.23-21.78a10.32,10.32,0,0,0-4.3-8c-6.65-5-11.63,2.12-13.64,4.4-1.41-1.6-6.75-9.55-13.64-4.4a10.29,10.29,0,0,0-4.3,8c0,6.78,2.77,11.87,17.22,21.78"/><path class="cls-5" d="M40.76,66.38a1.28,1.28,0,0,0,1.43,0c14.46-9.91,17.23-15,17.23-21.78a10.32,10.32,0,0,0-4.3-8c-6.65-5-11.63,2.12-13.64,4.4-1.41-1.6-6.75-9.55-13.64-4.4a10.29,10.29,0,0,0-4.3,8C23.53,51.38,26.31,56.47,40.76,66.38Z"/></g></g></svg>