<svg xmlns="http://www.w3.org/2000/svg" xmlns:xlink="http://www.w3.org/1999/xlink" viewBox="0 0 80.07 96.44"><defs><style>.cls-1,.cls-4,.cls-5,.cls-7{fill:none;}.cls-2{fill:#f2fafa;}.cls-3{fill:#fff;}.cls-4,.cls-5,.cls-7{stroke:#1c184e;}.cls-4{stroke-miterlimit:10;}.cls-5,.cls-7{stroke-linejoin:round;}.cls-6{fill:#e9f6f6;}.cls-7{stroke-linecap:round;}.cls-8{clip-path:url(#clip-path);}</style><clipPath id="clip-path"><path class="cls-1" d="M.07,46a40,40,0,1,0,40-40,40,40,0,0,0-40,40"/></clipPath></defs><title>Resurs 15</title><g id="Lager_2" data-name="Lager 2"><g id="Layer_1" data-name="Layer 1"><path class="cls-2" d="M80.07,46a40,40,0,1,1-40-40,40,40,0,0,1,40,40"/><path class="cls-3" d="M43.78,38.65A1.71,1.71,0,0,0,45.49,37v-9a7.35,7.35,0,0,0-2.17-5.23L37.58,17a1.7,1.7,0,0,0-2.41,2.41L40.9,25.1a4,4,0,0,1,1.17,2.81v9a1.71,1.71,0,0,0,1.71,1.7"/><path class="cls-3" d="M13,38.65A1.71,1.71,0,0,1,11.32,37v-9a7.35,7.35,0,0,1,2.17-5.23L19.22,17a1.71,1.71,0,0,1,2.42,2.41L15.9,25.1a4,4,0,0,0-1.16,2.81v9A1.71,1.71,0,0,1,13,38.65"/><path class="cls-4" d="M13,38.65A1.71,1.71,0,0,1,11.32,37v-9a7.35,7.35,0,0,1,2.17-5.23L19.22,17a1.71,1.71,0,0,1,2.42,2.41L15.9,25.1a4,4,0,0,0-1.16,2.81v9A1.71,1.71,0,0,1,13,38.65Z"/><path class="cls-4" d="M43.78,38.65A1.71,1.71,0,0,0,45.49,37v-9a7.35,7.35,0,0,0-2.17-5.23L37.58,17a1.7,1.7,0,0,0-2.41,2.41L40.9,25.1a4,4,0,0,1,1.17,2.81v9A1.71,1.71,0,0,0,43.78,38.65Z"/><path class="cls-3" d="M33.51,26.69H23.29a4,4,0,0,1-4-4V15.88H37.51v6.81a4,4,0,0,1-4,4"/><path class="cls-5" d="M33.51,26.69H23.29a4,4,0,0,1-4-4V15.88H37.51v6.81A4,4,0,0,1,33.51,26.69Z"/><path class="cls-3" d="M34.1,32.39a5.7,5.7,0,1,1-5.7-5.69,5.7,5.7,0,0,1,5.7,5.69"/><path class="cls-5" d="M34.1,32.39a5.7,5.7,0,1,1-5.7-5.69A5.7,5.7,0,0,1,34.1,32.39Z"/><path class="cls-6" d="M31.25,32.39a2.85,2.85,0,1,1-2.85-2.85,2.85,2.85,0,0,1,2.85,2.85"/><path class="cls-3" d="M28.4,29.54a2.85,2.85,0,0,0-2.84,2.85,2.81,2.81,0,0,0,.83,2l4-4a2.84,2.84,0,0,0-2-.84"/><path class="cls-5" d="M31.25,32.39a2.85,2.85,0,1,1-2.85-2.85A2.85,2.85,0,0,1,31.25,32.39Z"/><line class="cls-7" x1="48.33" y1="2.21" x2="48.33" y2="6.19"/><path class="cls-3" d="M56.31,2.21a6.57,6.57,0,0,1-4,1.71,6.57,6.57,0,0,1-4-1.71,6.57,6.57,0,0,1,4-1.71,6.57,6.57,0,0,1,4,1.71"/><path class="cls-7" d="M56.31,2.21a6.57,6.57,0,0,1-4,1.71,6.57,6.57,0,0,1-4-1.71,6.57,6.57,0,0,1,4-1.71A6.57,6.57,0,0,1,56.31,2.21Z"/><path class="cls-3" d="M40.36,2.21a6.57,6.57,0,0,0,4,1.71,6.53,6.53,0,0,0,4-1.71,6.53,6.53,0,0,0-4-1.71,6.57,6.57,0,0,0-4,1.71"/><path class="cls-7" d="M40.36,2.21a6.57,6.57,0,0,0,4,1.71,6.53,6.53,0,0,0,4-1.71,6.53,6.53,0,0,0-4-1.71A6.57,6.57,0,0,0,40.36,2.21Z"/><path class="cls-6" d="M50.61,9H46.06V8.47a2.28,2.28,0,1,1,4.55,0Z"/><path class="cls-7" d="M50.61,9H46.06V8.47a2.28,2.28,0,1,1,4.55,0Z"/><line class="cls-7" x1="8.47" y1="2.21" x2="8.47" y2="6.19"/><path class="cls-3" d="M.5,2.21a6.57,6.57,0,0,0,4,1.71,6.53,6.53,0,0,0,4-1.71A6.53,6.53,0,0,0,4.49.5a6.57,6.57,0,0,0-4,1.71"/><path class="cls-7" d="M.5,2.21a6.57,6.57,0,0,0,4,1.71,6.53,6.53,0,0,0,4-1.71A6.53,6.53,0,0,0,4.49.5,6.57,6.57,0,0,0,.5,2.21Z"/><path class="cls-3" d="M16.44,2.21a6.53,6.53,0,0,1-4,1.71,6.57,6.57,0,0,1-4-1.71,6.57,6.57,0,0,1,4-1.71,6.53,6.53,0,0,1,4,1.71"/><path class="cls-7" d="M16.44,2.21a6.53,6.53,0,0,1-4,1.71,6.57,6.57,0,0,1-4-1.71,6.57,6.57,0,0,1,4-1.71A6.53,6.53,0,0,1,16.44,2.21Z"/><path class="cls-6" d="M6.19,9h4.56V8.47a2.28,2.28,0,1,0-4.56,0Z"/><path class="cls-7" d="M6.19,9h4.56V8.47a2.28,2.28,0,1,0-4.56,0Z"/><path class="cls-3" d="M55.17,14.17A5.13,5.13,0,0,0,50,9H43A15.92,15.92,0,0,1,33.89,6.2a9.67,9.67,0,0,0-11,0A15.89,15.89,0,0,1,13.84,9H6.76a5.13,5.13,0,0,0,0,10.25h7.08a15.87,15.87,0,0,1,9.07,2.84,9.62,9.62,0,0,0,11,0A16,16,0,0,1,43,19.29H50a5.13,5.13,0,0,0,5.13-5.12"/><path class="cls-7" d="M55.17,14.17A5.13,5.13,0,0,0,50,9H43A15.92,15.92,0,0,1,33.89,6.2a9.67,9.67,0,0,0-11,0A15.89,15.89,0,0,1,13.84,9H6.76a5.13,5.13,0,0,0,0,10.25h7.08a15.87,15.87,0,0,1,9.07,2.84,9.62,9.62,0,0,0,11,0A16,16,0,0,1,43,19.29H50A5.13,5.13,0,0,0,55.17,14.17Z"/><path class="cls-6" d="M12.46,13.6a1.14,1.14,0,1,1-2.28,0V9h2.28Z"/><path class="cls-5" d="M12.46,13.6a1.14,1.14,0,1,1-2.28,0V9h2.28Z"/><path class="cls-6" d="M15.88,8.9v4.7a1.14,1.14,0,1,0,2.27,0V8.43a15.76,15.76,0,0,1-2.27.47"/><path class="cls-5" d="M15.88,8.9v4.7a1.14,1.14,0,1,0,2.27,0V8.43A15.76,15.76,0,0,1,15.88,8.9Z"/><path class="cls-6" d="M44.35,13.6a1.14,1.14,0,1,0,2.28,0V9H44.35Z"/><path class="cls-5" d="M44.35,13.6a1.14,1.14,0,1,0,2.28,0V9H44.35Z"/><path class="cls-6" d="M40.93,8.9v4.7a1.14,1.14,0,1,1-2.28,0V8.43a16.18,16.18,0,0,0,2.28.47"/><path class="cls-5" d="M40.93,8.9v4.7a1.14,1.14,0,1,1-2.28,0V8.43A16.18,16.18,0,0,0,40.93,8.9Z"/><line class="cls-7" x1="21" y1="11.32" x2="21" y2="13.6"/><line class="cls-7" x1="23.28" y1="11.32" x2="23.28" y2="13.6"/><line class="cls-7" x1="33.53" y1="11.32" x2="33.53" y2="13.6"/><line class="cls-7" x1="35.81" y1="11.32" x2="35.81" y2="13.6"/><g class="cls-8"><path class="cls-3" d="M45.07,65.61h-2v-10a1,1,0,0,1,2,0Z"/><path class="cls-5" d="M45.07,65.61h-2v-10a1,1,0,0,1,2,0Z"/><path class="cls-3" d="M54.07,65.61h2v-10a1,1,0,0,0-2,0Z"/><path class="cls-5" d="M54.07,65.61h2v-10a1,1,0,0,0-2,0Z"/><path class="cls-3" d="M44.07,82.88l-3.85-4.13a3.2,3.2,0,0,0-.95-.67l-4.61-2.19c-.55-.61-.65.25-1.25.8s-2.33,2.91-1.78,3.51l4.83,5.2,0,1.3a1.47,1.47,0,0,0,2.94.07,1.46,1.46,0,0,0,1,.16,1.48,1.48,0,0,0,1.17-1.72l-.18-.92.53.57a1.47,1.47,0,0,0,2.18-2"/><path class="cls-7" d="M44.07,82.88l-3.85-4.13a3.2,3.2,0,0,0-.95-.67l-4.61-2.19c-.55-.61-.65.25-1.25.8s-2.33,2.91-1.78,3.51l4.83,5.2,0,1.3a1.47,1.47,0,0,0,2.94.07,1.46,1.46,0,0,0,1,.16,1.48,1.48,0,0,0,1.17-1.72l-.18-.92.53.57a1.47,1.47,0,0,0,2.18-2Z"/><path class="cls-4" d="M38.3,83.92l.35,1.84a1.47,1.47,0,0,0,2.89-.55"/><line class="cls-4" x1="39.08" y1="81.84" x2="41.89" y2="84.86"/><line class="cls-7" x1="36.27" y1="79.55" x2="35.07" y2="78.95"/><path class="cls-3" d="M32.39,95.94l-7.52-2h0c.38-9.6,1.49-19.8,14.73-23.92l.75-.24a1.47,1.47,0,0,1,.88,2.81l-.75.24c-3.34,1-5.78,2.5-7,5.75-1.92,4.9,1.19,3.62,2.19,2L38,77a1.46,1.46,0,0,1,2-.45,1.48,1.48,0,0,1,.45,2c-3.1,7.17-2.85,8.71-5.13,10.88-1.69,1.62-2,3.05-2.91,6.48"/><path class="cls-7" d="M32.39,95.94l-7.52-2h0c.38-9.6,1.49-19.8,14.73-23.92l.75-.24a1.47,1.47,0,0,1,.88,2.81l-.75.24c-3.34,1-5.78,2.5-7,5.75-1.92,4.9,1.19,3.62,2.19,2L38,77a1.46,1.46,0,0,1,2-.45,1.48,1.48,0,0,1,.45,2c-3.1,7.17-2.85,8.71-5.13,10.88C33.61,91.08,33.32,92.51,32.39,95.94Z"/><path class="cls-3" d="M55.08,82.88l3.85-4.13a3.29,3.29,0,0,1,.94-.67l4.62-2.19c.54-.61.65.25,1.25.8s2.33,2.91,1.78,3.51l-4.83,5.2v1.3a1.47,1.47,0,0,1-2.93.07,1.49,1.49,0,0,1-1,.16,1.47,1.47,0,0,1-1.16-1.72l.18-.92-.53.57a1.47,1.47,0,1,1-2.18-2"/><path class="cls-7" d="M55.08,82.88l3.85-4.13a3.29,3.29,0,0,1,.94-.67l4.62-2.19c.54-.61.65.25,1.25.8s2.33,2.91,1.78,3.51l-4.83,5.2v1.3a1.47,1.47,0,0,1-2.93.07,1.49,1.49,0,0,1-1,.16,1.47,1.47,0,0,1-1.16-1.72l.18-.92-.53.57a1.47,1.47,0,1,1-2.18-2Z"/><path class="cls-4" d="M60.85,83.92l-.35,1.84a1.47,1.47,0,1,1-2.89-.55"/><line class="cls-4" x1="60.06" y1="81.84" x2="57.26" y2="84.86"/><line class="cls-7" x1="62.88" y1="79.55" x2="64.08" y2="78.95"/><path class="cls-3" d="M66.75,95.94l7.52-2h0c-.39-9.6-1.49-19.8-14.73-23.92l-.75-.24a1.47,1.47,0,1,0-.89,2.81l.76.24c3.34,1,5.77,2.5,7,5.75,1.92,4.9-1.18,3.62-2.18,2L61.2,77a1.47,1.47,0,0,0-2.48,1.58c3.09,7.17,2.85,8.71,5.12,10.88,1.7,1.62,2,3.05,2.91,6.48"/><path class="cls-7" d="M66.75,95.94l7.52-2h0c-.39-9.6-1.49-19.8-14.73-23.92l-.75-.24a1.47,1.47,0,1,0-.89,2.81l.76.24c3.34,1,5.77,2.5,7,5.75,1.92,4.9-1.18,3.62-2.18,2L61.2,77a1.47,1.47,0,0,0-2.48,1.58c3.09,7.17,2.85,8.71,5.12,10.88C65.54,91.08,65.82,92.51,66.75,95.94Z"/><path class="cls-6" d="M63.07,84.11a6,6,0,0,1-6,6h-15a6,6,0,0,1-6-6V70.75a6,6,0,0,1,4.5-5.81,29.92,29.92,0,0,1,18,0,6,6,0,0,1,4.49,5.81Z"/><path class="cls-5" d="M63.07,84.11a6,6,0,0,1-6,6h-15a6,6,0,0,1-6-6V70.75a6,6,0,0,1,4.5-5.81,29.92,29.92,0,0,1,18,0,6,6,0,0,1,4.49,5.81Z"/><path class="cls-3" d="M66,81.82c-.58.5-1.92-.36-2.51-1.34L61.2,77a1.47,1.47,0,0,0-2.48,1.58c3.09,7.17,2.85,8.71,5.12,10.88,1.7,1.62,2,3.05,2.91,6.48l3.68-1"/><path class="cls-7" d="M66,81.82c-.58.5-1.92-.36-2.51-1.34L61.2,77a1.47,1.47,0,0,0-2.48,1.58c3.09,7.17,2.85,8.71,5.12,10.88,1.7,1.62,2,3.05,2.91,6.48l3.68-1"/><path class="cls-3" d="M33.14,81.82c.59.5,1.92-.36,2.52-1.34L38,77a1.47,1.47,0,1,1,2.47,1.58c-3.09,7.17-2.84,8.71-5.12,10.88-1.69,1.62-2,3.05-2.91,6.48l-3.67-1"/><path class="cls-7" d="M33.14,81.82c.59.5,1.92-.36,2.52-1.34L38,77a1.47,1.47,0,1,1,2.47,1.58c-3.09,7.17-2.84,8.71-5.12,10.88-1.69,1.62-2,3.05-2.91,6.48l-3.67-1"/><path class="cls-3" d="M47.57,73.61a4,4,0,1,1-4-4,4,4,0,0,1,4,4"/><circle class="cls-5" cx="43.57" cy="73.61" r="4"/><path class="cls-3" d="M51.57,73.61a4,4,0,1,0,4-4,4,4,0,0,0-4,4"/><circle class="cls-5" cx="55.57" cy="73.61" r="4"/><circle class="cls-5" cx="49.57" cy="67.61" r="0.5"/><circle class="cls-5" cx="49.57" cy="79.61" r="0.5"/><path class="cls-3" d="M47.07,83.11a1.5,1.5,0,1,1-1.5-1.5,1.5,1.5,0,0,1,1.5,1.5"/><circle class="cls-5" cx="45.57" cy="83.11" r="1.5"/><path class="cls-3" d="M55.07,83.11a1.5,1.5,0,1,1-1.5-1.5,1.5,1.5,0,0,1,1.5,1.5"/><circle class="cls-5" cx="53.57" cy="83.11" r="1.5"/><path class="cls-3" d="M44.57,73.11a1,1,0,0,1-2,0v-4a1,1,0,0,1,2,0Z"/><path class="cls-5" d="M44.57,73.11a1,1,0,0,1-2,0v-4a1,1,0,0,1,2,0Z"/><path class="cls-3" d="M56.9,73.63a1,1,0,1,1-1.8-.85l1.7-3.62a1,1,0,0,1,1.81.85Z"/><path class="cls-5" d="M56.9,73.63a1,1,0,1,1-1.8-.85l1.7-3.62a1,1,0,0,1,1.81.85Z"/><path class="cls-7" d="M55.57,47.83a8.47,8.47,0,0,0-12,0"/><path class="cls-7" d="M53.49,49.91a5.54,5.54,0,0,0-7.83,0"/><path class="cls-7" d="M51.4,52a2.57,2.57,0,0,0-3.65,0"/></g></g></g></svg>