<svg xmlns="http://www.w3.org/2000/svg" viewBox="0 0 80 80"><defs><style>.cls-1{fill:#f2fafa;}.cls-10,.cls-2,.cls-5{fill:#fff;}.cls-3,.cls-7,.cls-8,.cls-9{fill:none;}.cls-10,.cls-3,.cls-4,.cls-5,.cls-7,.cls-8,.cls-9{stroke:#1c184e;stroke-linejoin:round;}.cls-3,.cls-4,.cls-5,.cls-8,.cls-9{stroke-linecap:round;}.cls-4,.cls-6{fill:#e9f6f6;}.cls-8,.cls-9{stroke-width:2.4px;}.cls-9{stroke-dasharray:0.06 4.9;}</style></defs><title>Resurs 92</title><g id="Lager_2" data-name="Lager 2"><g id="Scene"><circle class="cls-1" cx="40" cy="40" r="40"/><path class="cls-2" d="M58.62,25.24s-1.2-4.25.23-6.9L56.7,16.62c-2.28,2-6.69,1.71-6.69,1.71Z"/><path class="cls-3" d="M58.62,25.24s-1.2-4.25.23-6.9L56.7,16.62c-2.28,2-6.69,1.71-6.69,1.71Z"/><line class="cls-4" x1="11.37" y1="40.77" x2="11.37" y2="38.01"/><path class="cls-5" d="M16,35.25H8.61V38h7A24.77,24.77,0,0,1,16,35.25Z"/><path class="cls-5" d="M15.55,40.77H10v2.76h5.8A25.26,25.26,0,0,1,15.55,40.77Z"/><circle class="cls-6" cx="39.66" cy="40.08" r="24.15"/><path class="cls-2" d="M53.09,32h5.46a3.2,3.2,0,0,0,2.83-1.7,2.86,2.86,0,0,0,.15-.41,24.22,24.22,0,0,0-15-12.92H42.86a3.2,3.2,0,0,0,0,6.4,2.56,2.56,0,0,1,0,5.11h-9.6a6.4,6.4,0,0,0,0,12.79H38.7v3a1.44,1.44,0,0,0,1.44,1.44,1.44,1.44,0,0,1,1.44,1.43v1.76a1.18,1.18,0,0,1-.21.77,3.84,3.84,0,0,0,3,6.27h1.71c4.16,0,5.44-3.84,5.44-5.76V43.8a3.48,3.48,0,0,1,1.87-3.09,5.14,5.14,0,0,0,2.44-4.36.22.22,0,0,0-.22-.23H53.09a1.27,1.27,0,0,1-1.28-1.27v-1.6A1.28,1.28,0,0,1,53.09,32Z"/><circle class="cls-7" cx="39.66" cy="40.08" r="24.15"/><path class="cls-7" d="M53.09,32h5.46a3.2,3.2,0,0,0,2.83-1.7,2.86,2.86,0,0,0,.15-.41,24.22,24.22,0,0,0-15-12.92H42.86a3.2,3.2,0,0,0,0,6.4,2.56,2.56,0,0,1,0,5.11h-9.6a6.4,6.4,0,0,0,0,12.79H38.7v3a1.44,1.44,0,0,0,1.44,1.44,1.44,1.44,0,0,1,1.44,1.43v1.76a1.18,1.18,0,0,1-.21.77,3.84,3.84,0,0,0,3,6.27h1.71c4.16,0,5.44-3.84,5.44-5.76V43.8a3.48,3.48,0,0,1,1.87-3.09,5.14,5.14,0,0,0,2.44-4.36.22.22,0,0,0-.22-.23H53.09a1.27,1.27,0,0,1-1.28-1.27v-1.6A1.28,1.28,0,0,1,53.09,32Z"/><path class="cls-3" d="M33.44,16.53c-2.35-.29-5.51-5.91-5.51-5.91s1.85,6.18.43,8.07"/><line class="cls-3" x1="28.89" y1="16.21" x2="31.29" y2="15.19"/><path class="cls-5" d="M38.28,67A1.38,1.38,0,1,0,41,67V64.23H38.28Z"/><path class="cls-5" d="M45.87,61.47a1.37,1.37,0,0,0-1.38-1.38H38a2.82,2.82,0,0,0-2.1.92,1.4,1.4,0,0,1-1,.46,2.74,2.74,0,0,0-2.5,1.61,23.88,23.88,0,0,0,15.32-.23h-.4A1.38,1.38,0,0,1,45.87,61.47Z"/><path class="cls-8" d="M61.74,36.25l0,0"/><path class="cls-9" d="M57.08,39.47c-3.84,2.53-8.16,5.14-12.8,7.68-18.45,10.08-35,15.34-37,11.73-.55-1,.09-2.6,1.71-4.6"/><path class="cls-8" d="M10.91,52.19l0,0"/><path class="cls-10" d="M71.25,31.37l2.33,2.85a.67.67,0,0,0,.75.22.69.69,0,0,0,.47-.63L75,28.32l2.67-2.18a1.39,1.39,0,0,0,.2-1.95A1.38,1.38,0,0,0,75.92,24l-2.68,2.18-5.42-.92a.7.7,0,0,0-.71.33.71.71,0,0,0,.06.79l2.33,2.85L67.36,31l-2.91-.3,2.18,2.67L68.81,36l.3-2.92Z"/></g></g></svg>