<svg xmlns="http://www.w3.org/2000/svg" xmlns:xlink="http://www.w3.org/1999/xlink" viewBox="0 0 98 84.5"><defs><style>.cls-1,.cls-3{fill:none;}.cls-2{fill:#f2fafa;}.cls-3,.cls-4,.cls-6,.cls-8{stroke:#1c184e;}.cls-3,.cls-4,.cls-8{stroke-linecap:round;stroke-linejoin:round;}.cls-4,.cls-6,.cls-7{fill:#fff;}.cls-5{clip-path:url(#clip-path);}.cls-6{stroke-miterlimit:10;}.cls-8,.cls-9{fill:#e9f6f6;}.cls-10{fill:#1c184e;}</style><clipPath id="clip-path"><circle class="cls-1" cx="49" cy="43" r="40"/></clipPath></defs><title>Resurs 55</title><g id="Lager_2" data-name="Lager 2"><g id="Scene"><path class="cls-2" d="M89,43A40,40,0,1,0,12.56,59.5H85.43A39.86,39.86,0,0,0,89,43Z"/><line class="cls-3" x1="10" y1="59.5" x2="88" y2="59.5"/><line class="cls-3" x1="5.5" y1="59.5" x2="8" y2="59.5"/><line class="cls-3" x1="90" y1="59.5" x2="92.5" y2="59.5"/><path class="cls-4" d="M69,49.47a6.37,6.37,0,0,0-3.59,4.79l3,2.24A6.35,6.35,0,0,1,72,51.72Z"/><g class="cls-5"><polygon class="cls-6" points="57.71 59.5 40.29 59.5 24 84 74 84 57.71 59.5"/><ellipse class="cls-2" cx="48.43" cy="77.27" rx="9.77" ry="1.73"/><path class="cls-7" d="M67,20.61a2.07,2.07,0,0,0-1-.26,2,2,0,0,0-1.91,1.39l-2.63,8a6,6,0,0,1-5.61,3.8H42.19a6,6,0,0,1-5.61-3.8l-2.63-8A2,2,0,0,0,32,20.35a2.07,2.07,0,0,0-1,.26,2.11,2.11,0,0,0-.87,2.51l2.61,8a10.11,10.11,0,0,0,7.12,6.21,3.45,3.45,0,0,1,2.69,3.07c0,.67.09,1.46.09,2.38v9.77H55.33V42.78c0-.92,0-1.71.08-2.38a3.45,3.45,0,0,1,2.68-3.07,10.11,10.11,0,0,0,7.13-6.21l2.61-8A2.11,2.11,0,0,0,67,20.61Z"/><path class="cls-3" d="M67,20.61a2.07,2.07,0,0,0-1-.26,2,2,0,0,0-1.91,1.39l-2.63,8a6,6,0,0,1-5.61,3.8H42.19a6,6,0,0,1-5.61-3.8l-2.63-8A2,2,0,0,0,32,20.35a2.07,2.07,0,0,0-1,.26,2.11,2.11,0,0,0-.87,2.51l2.61,8a10.11,10.11,0,0,0,7.12,6.21,3.45,3.45,0,0,1,2.69,3.07c0,.67.09,1.46.09,2.38v9.77H55.33V42.78c0-.92,0-1.71.08-2.38a3.45,3.45,0,0,1,2.68-3.07,10.11,10.11,0,0,0,7.13-6.21l2.61-8A2.11,2.11,0,0,0,67,20.61Z"/><rect class="cls-8" x="30.97" y="25.3" width="5.16" height="2.88" rx="0.5" ry="0.5" transform="translate(-6.38 11.04) rotate(-17.09)"/><rect class="cls-8" x="61.86" y="25.3" width="5.16" height="2.88" rx="0.5" ry="0.5" transform="translate(118.18 71.23) rotate(-162.91)"/><path class="cls-8" d="M53.6,64.05a2.3,2.3,0,0,1-4.6,0V62.33h4.6Z"/><path class="cls-7" d="M49,62.9H43.33l1.09,13.23h3.43A1.15,1.15,0,0,0,49,75Z"/><path class="cls-3" d="M49,62.9H43.33l1.09,13.23h3.43A1.15,1.15,0,0,0,49,75Z"/><path class="cls-9" d="M49,62.9v-.57h5.66a1.15,1.15,0,0,0,1.14-1.24l-.47-6.24H42.68l-.49,6.82a1.15,1.15,0,0,0,1.15,1.23Z"/><path class="cls-3" d="M49,62.9v-.57h5.66a1.15,1.15,0,0,0,1.14-1.24l-.47-6.24H42.68l-.49,6.82a1.15,1.15,0,0,0,1.15,1.23Z"/><path class="cls-8" d="M43.28,76.13a1.14,1.14,0,0,1-1-1.67,3.44,3.44,0,0,1,3-1.79h.57a3.43,3.43,0,0,1,3,1.79,1.14,1.14,0,0,1-1,1.67Z"/><path class="cls-7" d="M55.33,42.78c-2.3-2.3-.73-6.59,0-9.2H42.68c.72,2.61,2.3,6.9,0,9.2v9.77H55.33Z"/><path class="cls-3" d="M55.33,42.78c-2.3-2.3-.73-6.59,0-9.2H42.68c.72,2.61,2.3,6.9,0,9.2v9.77H55.33Z"/><path class="cls-7" d="M46.83,33.58v.63c0,1.22,1,5.57,2.17,5.69,1.21-.12,2.17-4.47,2.17-5.69v-.63Z"/><path class="cls-3" d="M46.83,33.58v.63c0,1.22,1,5.57,2.17,5.69,1.21-.12,2.17-4.47,2.17-5.69v-.63Z"/><rect class="cls-8" x="42.68" y="52.55" width="12.65" height="2.3"/><line class="cls-3" x1="49" y1="59.45" x2="49" y2="65.2"/><path class="cls-7" d="M58.44,17.52a.64.64,0,0,1,0-.07,2.74,2.74,0,0,0-1.94-4.79,2.75,2.75,0,0,0-4.76-2.47,2.75,2.75,0,0,0-5.44,0,2.75,2.75,0,0,0-4.76,2.47,2.74,2.74,0,0,0-1.94,4.79.64.64,0,0,1,0,.07A2.76,2.76,0,0,0,40,23a9.64,9.64,0,0,0,18,0A2.76,2.76,0,0,0,58.44,17.52Z"/><path class="cls-3" d="M58.44,17.52a.64.64,0,0,1,0-.07,2.74,2.74,0,0,0-1.94-4.79,2.75,2.75,0,0,0-4.76-2.47,2.75,2.75,0,0,0-5.44,0,2.75,2.75,0,0,0-4.76,2.47,2.74,2.74,0,0,0-1.94,4.79.64.64,0,0,1,0,.07A2.76,2.76,0,0,0,40,23a9.64,9.64,0,0,0,18,0A2.76,2.76,0,0,0,58.44,17.52Z"/><g id="_Grupp_" data-name="&lt;Grupp&gt;"><path class="cls-4" d="M55.9,23v-.92h0a1.94,1.94,0,0,1-1.38-1.84,2.11,2.11,0,0,1,.22-.91,2.11,2.11,0,0,1-.91.22,2.07,2.07,0,0,1-2.07-2.07v0a3.41,3.41,0,0,1-5.52,0v0a2.07,2.07,0,0,1-2.07,2.07,2.11,2.11,0,0,1-.91-.22,2.11,2.11,0,0,1,.22.91,1.94,1.94,0,0,1-1.38,1.84h0V23a1.4,1.4,0,0,0,.14,2.78,6.9,6.9,0,0,0,13.52,0A1.4,1.4,0,0,0,55.9,23Z"/><circle class="cls-9" cx="45.26" cy="25.24" r="0.86"/><circle class="cls-9" cx="52.74" cy="25.24" r="0.86"/><path class="cls-3" d="M50.73,27.25a2.86,2.86,0,0,1-3.45,0"/><path class="cls-10" d="M46.41,22.08a.86.86,0,1,0,.87.86.86.86,0,0,0-.87-.86Z"/><path class="cls-10" d="M51.59,22.08a.86.86,0,1,0,0,1.72.86.86,0,0,0,0-1.72Z"/></g><path class="cls-6" d="M22.08,53.48c-.21,0-.42,0-.62,0C11,53.5,1.21,40.45.79,39.88a1.51,1.51,0,0,1,2.42-1.79c.09.13,9.31,12.41,18.24,12.41h.47a30.56,30.56,0,0,0,11-2.72c2.9-1.17,5.63-2.28,9.53-2.28,3.38,0,6.45,1.08,9.7,2.23C56.54,49.25,61,50.82,66.79,50c4-.57,8.13-2.42,12.11-4.21,6.33-2.85,12.31-5.54,17.7-3.18a1.5,1.5,0,0,1-1.2,2.75c-4.17-1.82-9.56.6-15.27,3.16C76,50.4,71.65,52.34,67.21,53c-6.49.93-11.54-.85-16-2.42-3-1.06-5.84-2.06-8.71-2.06-3.31,0-5.67.95-8.41,2.06A33.47,33.47,0,0,1,22.08,53.48Z"/></g><path class="cls-8" d="M68.05,14.75a6.36,6.36,0,0,1-5.21,2.95L61,14.45a6.35,6.35,0,0,0,5.2-2.95Z"/><path class="cls-4" d="M47.08,1a6.36,6.36,0,0,1-.73,5.93l-3.71-.45A6.39,6.39,0,0,0,43.37.5Z"/><path class="cls-8" d="M30.34,18.13a6.34,6.34,0,0,1-1.25-5.84l3.65-.79A6.39,6.39,0,0,0,34,17.35Z"/><path class="cls-4" d="M80.84,70.63a6.34,6.34,0,0,1-1.25-5.84L83.24,64a6.39,6.39,0,0,0,1.26,5.85Z"/><path class="cls-4" d="M27.91,64.5a6.37,6.37,0,0,1,3.59,4.78l-3,2.25a6.39,6.39,0,0,0-3.59-4.79Z"/><path class="cls-8" d="M67.3,64A6.35,6.35,0,0,1,71,68.7L68.06,71a6.35,6.35,0,0,0-3.7-4.7Z"/><path class="cls-8" d="M11.92,63.18a6.37,6.37,0,0,0,3.42,4.91L18.41,66A6.33,6.33,0,0,1,15,61Z"/><path class="cls-4" d="M23.3,34.22a6.33,6.33,0,0,1-5.95.56L17,31.06a6.38,6.38,0,0,0,6-.56Z"/><path class="cls-8" d="M81.5,42.45a6.35,6.35,0,0,1-6,.56l-.34-3.72a6.36,6.36,0,0,0,6-.56Z"/><path class="cls-4" d="M76.3,27.43a6.37,6.37,0,0,1-5.67-1.93L71.84,22a6.34,6.34,0,0,0,5.66,1.93Z"/><path class="cls-8" d="M25.5,56.08a6.35,6.35,0,0,1,3.88-4.56L32.22,54a6.34,6.34,0,0,0-3.87,4.55Z"/></g></g></svg>